<svg id="Capa_1" data-name="Capa 1" xmlns="http://www.w3.org/2000/svg" viewBox="0 0 44.36 44.36"><defs><style>.cls-1{fill:#fff;}</style></defs><title>administrar</title><path class="cls-1" d="M19.93,1.85H35.18c1,0,1.19.24,1.19,1.17,0,4.64,0,9.28,0,13.91a12.35,12.35,0,0,0,.54,2.65c0,.1.18.18.29.24a2.16,2.16,0,0,0,2.68-.15c1.44-1,1.38-1,2.63.3.86.87,1.74,1.74,2.61,2.61a.87.87,0,0,1,.17,1.28c-.35.59-.72,1.16-1,1.76a1.28,1.28,0,0,0,0,.56c0,.05,0,.09,0,.14.18,1.08.94,1.42,1.92,1.6,1.85.35,1.66.43,1.66,2.12v3.64c0,.66-.17.88-.81,1s-1.3.31-1.94.5a1.08,1.08,0,0,0-.45.4,2.09,2.09,0,0,0,.18,2.62c1,1.45.95,1.39-.31,2.63L42,43.46a.9.9,0,0,1-1.36.17c-.54-.32-1.09-.64-1.62-1a.86.86,0,0,0-.75,0,2.07,2.07,0,0,0-1.65,1.95c-.34,1.82-.38,1.66-2.12,1.66H4.74c-1,0-1.23-.22-1.23-1.23V3.09c0-1,.22-1.24,1.23-1.24ZM5.19,3.51v41H29.51c-.05-.9-.29-1.64-1.3-1.8a.88.88,0,0,1-.28-.12.57.57,0,0,0-.71,0c-.53.34-1.07.66-1.62,1s-.88.35-1.4-.16l-2.61-2.62c-1.2-1.18-1.26-1.13-.29-2.55a2.05,2.05,0,0,0,.21-2.62,1.1,1.1,0,0,0-.48-.43c-.63-.2-1.29-.34-1.93-.51s-.8-.38-.8-1V30c0-1.75-.12-1.76,1.63-2.08a2.11,2.11,0,0,0,2-1.68.83.83,0,0,0-.07-.74c-.34-.54-.66-1.08-1-1.63A.88.88,0,0,1,21,22.57l2.65-2.65c1.16-1.16,1.2-1.21,2.55-.28a2.05,2.05,0,0,0,2.62.21,1.1,1.1,0,0,0,.43-.48c.18-.57.3-1.16.45-1.74.21-.86.39-1,1.27-1h3.7V3.51Zm38.46,35.9c-.37-.63-.73-1.25-1.11-1.86a1,1,0,0,1,0-1.11c.29-.62.54-1.25.78-1.89a1.08,1.08,0,0,1,.85-.78c.7-.15,1.39-.35,2.08-.52V29.6c-.69-.18-1.36-.37-2-.51a1.14,1.14,0,0,1-.91-.85,13.45,13.45,0,0,0-.73-1.75,1.16,1.16,0,0,1,.07-1.29c.37-.57.7-1.17,1-1.7L41,20.89c-.58.35-1.2.71-1.81,1.09a1,1,0,0,1-1.06.05c-.64-.3-1.29-.56-1.94-.8a1.11,1.11,0,0,1-.77-.87c-.15-.69-.35-1.38-.52-2.06H31.26c-.18.71-.37,1.41-.53,2.1a1.06,1.06,0,0,1-.75.83c-.64.23-1.28.48-1.89.77a1.1,1.1,0,0,1-1.16,0c-.6-.38-1.22-.74-1.74-1.05l-2.62,2.62c.33.55.68,1.15,1.05,1.75a1.06,1.06,0,0,1,0,1.15,17.52,17.52,0,0,0-.76,1.85,1.12,1.12,0,0,1-.89.81c-.69.15-1.37.35-2,.52v3.64c.72.18,1.41.37,2.11.53a1.06,1.06,0,0,1,.81.76,17.52,17.52,0,0,0,.76,1.85,1.14,1.14,0,0,1-.06,1.24c-.38.59-.72,1.19-1,1.73l2.6,2.6L27,40.86a1,1,0,0,1,1,0c.65.3,1.32.57,2,.82a1.07,1.07,0,0,1,.74.83c.15.7.35,1.39.52,2.09h3.65c.17-.7.37-1.38.52-2.08a1.11,1.11,0,0,1,.78-.86,17.46,17.46,0,0,0,1.85-.75,1.11,1.11,0,0,1,1.2,0c.6.38,1.22.74,1.8,1.09Z" transform="translate(-3.51 -1.85)"/><path class="cls-1" d="M19.94,7.6H8a2.88,2.88,0,0,1-.51,0,.78.78,0,0,1-.71-.81A.77.77,0,0,1,7.52,6,2.36,2.36,0,0,1,8,6H31.9a2.44,2.44,0,0,1,.47,0,.77.77,0,0,1,.7.81.77.77,0,0,1-.71.81,2.88,2.88,0,0,1-.51,0Z" transform="translate(-3.51 -1.85)"/><path class="cls-1" d="M14.6,12.53H8a2.36,2.36,0,0,1-.46,0,.82.82,0,0,1,0-1.62,2.88,2.88,0,0,1,.51,0H21.17a2.88,2.88,0,0,1,.51,0,.82.82,0,0,1,0,1.62,2.36,2.36,0,0,1-.46,0Z" transform="translate(-3.51 -1.85)"/><path class="cls-1" d="M14.65,15h6.58a2.36,2.36,0,0,1,.46,0,.81.81,0,0,1,0,1.61,2.3,2.3,0,0,1-.46,0H8a2.77,2.77,0,0,1-.41,0,.82.82,0,0,1-.77-.81A.83.83,0,0,1,7.57,15h7.08Z" transform="translate(-3.51 -1.85)"/><path class="cls-1" d="M14.14,20.75H7.88a1,1,0,0,1-.72-.18,1.08,1.08,0,0,1-.3-.83,1.12,1.12,0,0,1,.71-.6,8.21,8.21,0,0,1,1.49,0H20.71a.83.83,0,0,1,.87.82.81.81,0,0,1-.87.82H14.14Z" transform="translate(-3.51 -1.85)"/><path class="cls-1" d="M13,23.21h5.08c.65,0,1,.31,1,.82s-.38.82-1,.82H7.82c-.64,0-1-.31-1-.82s.38-.82,1-.82Z" transform="translate(-3.51 -1.85)"/><path class="cls-1" d="M11.78,27.32c1.28,0,2.57,0,3.85,0,.65,0,1,.31,1,.82s-.37.82-1,.82H7.82c-.64,0-1-.31-1-.82s.38-.82,1-.82C9.14,27.31,10.46,27.32,11.78,27.32Z" transform="translate(-3.51 -1.85)"/><path class="cls-1" d="M11.7,38H7.8c-.64,0-1-.33-1-.84s.38-.79,1-.8h7.85c.64,0,1,.34,1,.85s-.38.79-1,.79Z" transform="translate(-3.51 -1.85)"/><path class="cls-1" d="M11.68,41.28H7.83c-.65,0-1-.31-1-.82s.38-.82,1-.82h7.81c.65,0,1,.31,1,.82s-.37.82-1,.82Z" transform="translate(-3.51 -1.85)"/><path class="cls-1" d="M27.3,12.22c.92-.91,1.75-1.77,2.61-2.59a1.15,1.15,0,0,1,.79-.34.9.9,0,0,1,.66.52,1.07,1.07,0,0,1-.21.86c-.61.69-1.29,1.32-1.94,2L28,13.84a.82.82,0,0,1-1.33,0c-.51-.49-1-1-1.49-1.49a.82.82,0,1,1,1.14-1.17C26.65,11.5,27,11.84,27.3,12.22Z" transform="translate(-3.51 -1.85)"/><path class="cls-1" d="M39.66,31.44a6.58,6.58,0,1,1-6.55-6.59A6.59,6.59,0,0,1,39.66,31.44ZM33.08,26.5A4.93,4.93,0,1,0,38,31.42,4.94,4.94,0,0,0,33.08,26.5Z" transform="translate(-3.51 -1.85)"/></svg>