<?xml version="1.0" encoding="utf-8"?>
<!-- Generator: Adobe Illustrator 24.0.2, SVG Export Plug-In . SVG Version: 6.00 Build 0)  -->
<svg version="1.1" id="Capa_1" xmlns="http://www.w3.org/2000/svg" xmlns:xlink="http://www.w3.org/1999/xlink" x="0px" y="0px"
	 viewBox="0 0 40 40" style="enable-background:new 0 0 40 40;" xml:space="preserve">
<style type="text/css">
	.st0{fill:#82B23E;}
	.st1{fill:#FFFFFF;}
</style>
<circle class="st0" cx="20" cy="20.1" r="19.4"/>
<g>
	<path class="st1" d="M16.6,27.6H14c-0.6,0-1.1-0.5-1.1-1.1V14.2c0-0.6,0.5-1.1,1.1-1.1h1.8c0.2,0,0.3,0.2,0.3,0.3
		c0,0.2-0.2,0.3-0.3,0.3H14c-0.2,0-0.4,0.2-0.4,0.4v12.3c0,0.2,0.2,0.4,0.4,0.4h2.6c0.2,0,0.3,0.2,0.3,0.3
		C17,27.5,16.8,27.6,16.6,27.6z"/>
	<path class="st1" d="M24.6,18.8c-0.2,0-0.3-0.2-0.3-0.3v-4.3c0-0.2-0.2-0.4-0.4-0.4h-1.8c-0.2,0-0.3-0.2-0.3-0.3
		c0-0.2,0.2-0.3,0.3-0.3h1.8c0.6,0,1.1,0.5,1.1,1.1v4.3C24.9,18.6,24.8,18.8,24.6,18.8z"/>
	<path class="st1" d="M21.6,14.2h-5.3v-1.8c0-0.6,0.5-1,1-1h3.2c0.6,0,1,0.5,1,1V14.2z M17,13.5h3.9v-1.1c0-0.2-0.2-0.3-0.3-0.3
		h-3.2c-0.2,0-0.3,0.2-0.3,0.3V13.5z"/>
	<path class="st1" d="M22.5,20.5h-4.6c-0.2,0-0.3-0.2-0.3-0.3c0-0.2,0.2-0.3,0.3-0.3h4.6c0.2,0,0.3,0.2,0.3,0.3
		C22.8,20.3,22.7,20.5,22.5,20.5z"/>
	<path class="st1" d="M22.9,17.1h-5c-0.2,0-0.3-0.2-0.3-0.3c0-0.2,0.2-0.3,0.3-0.3h5c0.2,0,0.3,0.2,0.3,0.3
		C23.3,17,23.1,17.1,22.9,17.1z"/>
	<path class="st1" d="M20.8,22.2h-2.9c-0.2,0-0.3-0.2-0.3-0.3c0-0.2,0.2-0.3,0.3-0.3h2.9c0.2,0,0.3,0.2,0.3,0.3
		C21.2,22,21,22.2,20.8,22.2z"/>
	<path class="st1" d="M21.6,18.8h-3.8c-0.2,0-0.3-0.2-0.3-0.3c0-0.2,0.2-0.3,0.3-0.3h3.8c0.2,0,0.3,0.2,0.3,0.3
		C22,18.6,21.8,18.8,21.6,18.8z"/>
	<path class="st1" d="M15.5,21.6l-0.8-0.9c-0.1-0.1-0.1-0.4,0-0.5c0.1-0.1,0.4-0.1,0.5,0l0.3,0.4l0.9-0.9c0.1-0.1,0.4-0.1,0.5,0
		c0.1,0.1,0.1,0.4,0,0.5L15.5,21.6z"/>
	<path class="st1" d="M15.5,18l-0.8-0.9c-0.1-0.1-0.1-0.4,0-0.5c0.1-0.1,0.4-0.1,0.5,0l0.3,0.3l0.8-0.8c0.1-0.1,0.4-0.1,0.5,0
		c0.1,0.1,0.1,0.4,0,0.5L15.5,18z"/>
	<g>
		<path class="st1" d="M18.6,28.4l-0.7-0.7l0.1-0.7c0.2-0.8,0.5-1.5,1.1-2l5.2-5.2c0.6-0.6,1.5-0.6,2.1,0c0.3,0.3,0.4,0.7,0.4,1.1
			s-0.2,0.8-0.4,1.1l-5.2,5.2c-0.6,0.6-1.3,0.9-2,1.1L18.6,28.4z M18.7,27.5l0.1,0.1l0.3-0.1c0.6-0.1,1.2-0.4,1.7-0.9l5.2-5.2
			c0.2-0.2,0.2-0.4,0.2-0.6c0-0.2-0.1-0.4-0.2-0.6c-0.3-0.3-0.8-0.3-1.1,0l-5.2,5.2c-0.5,0.5-0.8,1-0.9,1.7L18.7,27.5z"/>
		<path class="st1" d="M26,22.3c-0.1,0-0.2,0-0.2-0.1l-1.6-1.6c-0.1-0.1-0.1-0.4,0-0.5c0.1-0.1,0.4-0.1,0.5,0l1.6,1.6
			c0.1,0.1,0.1,0.4,0,0.5C26.2,22.3,26.1,22.3,26,22.3z"/>
		<path class="st1" d="M23.1,25.2c-0.1,0-0.2,0-0.2-0.1l-1.6-1.6c-0.1-0.1-0.1-0.4,0-0.5c0.1-0.1,0.4-0.1,0.5,0l1.6,1.6
			c0.1,0.1,0.1,0.4,0,0.5C23.3,25.2,23.2,25.2,23.1,25.2z"/>
		<path class="st1" d="M24,26c-0.1,0-0.2,0-0.2-0.1c-0.1-0.1-0.1-0.4,0-0.5l2.5-2.5c0,0,0.1-0.1,0.1-0.2c0-0.1,0-0.1-0.1-0.2
			c-0.1-0.1-0.2-0.1-0.3,0l-0.7,0.7c-0.1,0.1-0.4,0.1-0.5,0c-0.1-0.1-0.1-0.4,0-0.5l0.7-0.7c0.4-0.4,1-0.4,1.3,0
			c0.2,0.2,0.3,0.4,0.3,0.7c0,0.3-0.1,0.5-0.3,0.7l-2.5,2.5C24.2,25.9,24.1,26,24,26z"/>
		<path class="st1" d="M17.8,28.9c-0.1,0-0.2,0-0.2-0.1c-0.1-0.1-0.1-0.4,0-0.5l0.7-0.7c0.1-0.1,0.4-0.1,0.5,0
			c0.1,0.1,0.1,0.4,0,0.5l-0.7,0.7C18,28.8,17.9,28.9,17.8,28.9z"/>
	</g>
</g>
</svg>
