<?xml version="1.0" encoding="utf-8"?>
<!-- Generator: Adobe Illustrator 24.0.2, SVG Export Plug-In . SVG Version: 6.00 Build 0)  -->
<svg version="1.1" id="Capa_1" xmlns="http://www.w3.org/2000/svg" xmlns:xlink="http://www.w3.org/1999/xlink" x="0px" y="0px"
	 viewBox="0 0 40 40" style="enable-background:new 0 0 40 40;" xml:space="preserve">
<style type="text/css">
	.st0{fill:#82B23E;}
	.st1{fill:#FFFFFF;}
</style>
<circle class="st0" cx="20" cy="20" r="19.4"/>
<g>
	<g>
		<path class="st1" d="M32,18.9c-0.1,0.2-0.2,0.3-0.5,0.2c-0.2-0.1-0.2-0.3-0.2-0.5c0-1.6,0-3.2,0-4.8c0-0.3,0-0.4-0.4-0.4
			c-5.3,0-10.5,0-15.8,0c-0.1,0-0.1,0-0.2,0c0,0.9,0,1.9,0,2.8c0.1,0,0.2,0,0.3,0c0.4,0,0.6,0.2,0.7,0.6c0,0.3,0,0.5,0,0.8
			c0,0.1,0,0.2,0.2,0.2c0.1,0,0.2,0.1,0.4,0.1c0.1,0,0.2,0,0.4,0c0.2,0,0.4,0,0.5,0c0.1,0,0.2-0.1,0.3-0.2c0.2-0.4,0.2-0.7-0.2-0.9
			c-0.3-0.2-0.2-0.5,0-0.8c0.2-0.2,0.4-0.4,0.6-0.6c0.3-0.3,0.6-0.3,0.8,0c0.3,0.3,0.5,0.4,0.9,0.2c0.1-0.1,0.2-0.1,0.2-0.3
			c0-0.8,0.1-0.9,0.9-0.9c0.2,0,0.4,0,0.6,0c0.3,0,0.6,0.2,0.6,0.6c-0.1,0.5,0.2,0.7,0.6,0.8c0.1,0,0.2,0.1,0.3-0.1
			c0.1-0.1,0.2-0.2,0.3-0.3c0.3-0.2,0.5-0.2,0.8,0c0.2,0.2,0.5,0.4,0.7,0.7c0.2,0.2,0.2,0.6,0,0.8c-0.4,0.3-0.4,0.6-0.2,1
			c0.1,0.1,0.1,0.2,0.2,0.2c0.1,0,0.3,0,0.4,0c0.4,0,0.6,0.2,0.6,0.6c0,0.3,0,0.6,0,0.9c0,0.4-0.2,0.6-0.6,0.6
			c-0.4,0-0.6,0.1-0.7,0.5c-0.1,0.2-0.1,0.3,0.1,0.4c0.1,0.1,0.2,0.1,0.2,0.2c0.2,0.2,0.2,0.5,0,0.8c-0.2,0.2-0.4,0.5-0.7,0.7
			c-0.2,0.2-0.5,0.2-0.8,0c-0.1-0.1-0.3-0.3-0.4-0.4c-0.2,0.1-0.5,0.2-0.7,0.3c0,0-0.1,0.1-0.1,0.1c0,0.1,0,0.3,0,0.4
			c0,0.4-0.2,0.6-0.6,0.6c-0.2,0-0.3,0-0.4,0.2c-0.1,0.2-0.3,0.3-0.5,0.3c-0.3,0-0.5,0-0.8,0c-0.1,0-0.2,0.1-0.2,0.2
			c-0.1,0.3-0.3,0.6-0.4,1c0,0.1,0,0.2,0,0.2c0.2,0.2,0.4,0.4,0.6,0.6c0.1,0.1,0.2,0.1,0.3,0.1c1,0,2,0,3,0c0.4,0,0.5,0.1,0.5,0.3
			c0,0.2-0.2,0.4-0.5,0.4c-1,0-1.9,0-2.9,0c-0.1,0-0.3,0-0.4,0.1c-0.3,0.3-0.6,0.6-0.9,0.9c-0.3,0.3-0.7,0.3-1,0
			c-0.2-0.2-0.4-0.4-0.6-0.6c0,0-0.2-0.1-0.2,0c-0.3,0.1-0.7,0.3-1,0.4c-0.1,0-0.1,0.1-0.1,0.2c0,0.2,0,0.5,0,0.8
			c0,0.5-0.3,0.7-0.7,0.7c-0.4,0-0.8,0-1.3,0c-0.4,0-0.7-0.3-0.7-0.7c0-0.3,0-0.5,0-0.8c0-0.1-0.1-0.2-0.1-0.2
			c-0.2-0.1-0.4-0.1-0.6-0.2c-0.2-0.1-0.4-0.2-0.6-0.3c-0.2,0.2-0.4,0.4-0.6,0.7c-0.3,0.3-0.7,0.3-1,0c-0.3-0.3-0.6-0.6-0.9-0.9
			c-0.3-0.3-0.3-0.7,0-1c0.2-0.2,0.3-0.4,0.5-0.5c0.1-0.1,0.1-0.2,0-0.3c-0.1-0.3-0.3-0.6-0.4-0.9c0-0.1-0.1-0.2-0.2-0.2
			c-0.3,0-0.5,0-0.8,0c-0.4,0-0.7-0.3-0.7-0.7c0-0.4,0-0.9,0-1.3c0-0.4,0.3-0.7,0.7-0.7c0.3,0,0.5,0,0.8,0c0.1,0,0.2,0,0.2-0.2
			c0.1-0.3,0.2-0.6,0.4-0.9c0.1-0.1,0-0.2-0.1-0.3c-0.2-0.2-0.4-0.4-0.5-0.5c-0.3-0.3-0.3-0.7,0-1c0.3-0.3,0.6-0.6,0.9-0.9
			c0.3-0.3,0.7-0.3,1,0c0.2,0.2,0.4,0.3,0.5,0.5c0.1,0.1,0.2,0.1,0.3,0c0.3-0.1,0.6-0.3,0.9-0.4c0.1,0,0.2-0.1,0.2-0.2
			c0-0.2,0-0.5,0-0.7c0-0.5,0.3-0.7,0.7-0.7c0.1,0,0.2,0,0.3,0c0-0.1,0-0.2,0-0.3c0-1.5,0-2.9,0-4.4c0-0.7,0.3-1,1-1
			c1.8,0,3.6,0,5.3,0c0.6,0,0.9,0.2,1.1,0.8c0.1,0.4,0.2,0.7,0.3,1.1c0.1,0.2,0.2,0.3,0.4,0.3c2.8,0,5.6,0,8.4,0
			c0.6,0,1,0.2,1.2,0.7C32,15.3,32,17.1,32,18.9z M8.7,23.5c0.3,0,0.6,0,0.9,0c0.4,0,0.6,0.1,0.7,0.5c0.1,0.4,0.3,0.7,0.4,1.1
			c0.2,0.4,0.1,0.6-0.2,0.9c-0.2,0.2-0.4,0.4-0.6,0.6c0.3,0.3,0.6,0.6,0.9,0.9c0,0,0,0,0,0c0.2-0.2,0.4-0.4,0.6-0.6
			c0.3-0.3,0.5-0.3,0.9-0.2c0.3,0.1,0.7,0.3,1,0.4c0.5,0.2,0.6,0.3,0.6,0.8c0,0.3,0,0.5,0,0.8c0.4,0,0.8,0,1.3,0c0-0.3,0-0.6,0-0.9
			c0-0.4,0.1-0.6,0.5-0.7c0.4-0.1,0.7-0.3,1-0.4c0.4-0.2,0.6-0.2,0.9,0.2c0.2,0.2,0.4,0.4,0.5,0.6c0.3-0.3,0.6-0.6,0.9-0.9
			c0,0,0,0,0,0c-0.2-0.2-0.4-0.4-0.6-0.6c-0.3-0.3-0.3-0.5-0.2-0.9c0.2-0.3,0.3-0.7,0.4-1.1c0.1-0.4,0.3-0.5,0.7-0.5
			c0.2,0,0.3,0,0.4,0c0-0.3,0-0.5,0-0.7c0-0.1,0-0.2-0.1-0.2c-0.2-0.1-0.4-0.2-0.6-0.2c-0.2,0.2-0.4,0.4-0.7,0.5
			c-0.3,0.1-0.5-0.1-0.7-0.3c0.1,2.1-1.4,3.4-2.9,3.6c-1.5,0.2-3-0.7-3.6-2.1c-0.6-1.5,0-3.2,1.3-4c0.7-0.4,1.4-0.6,2.2-0.5
			c1.1,0.1,1.9,0.7,2.5,1.6c0.4-0.3,0.3-0.3,0.2-0.7c-0.1-0.4-0.3-0.4-0.6-0.4c-0.5,0-0.7-0.2-0.7-0.7c0-0.2,0-0.4,0-0.6
			c-0.2-0.1-0.4-0.1-0.6-0.2c-0.5-0.2-0.6-0.3-0.6-0.9c0-0.3,0-0.5,0-0.8c-0.4,0-0.8,0-1.3,0c0,0.3,0,0.6,0,0.9
			c0,0.4-0.1,0.6-0.5,0.7c-0.4,0.1-0.7,0.3-1.1,0.4c-0.4,0.2-0.6,0.1-0.9-0.2c-0.2-0.2-0.4-0.4-0.6-0.6c-0.3,0.3-0.6,0.6-0.9,0.9
			c0.2,0.2,0.4,0.4,0.6,0.6c0.3,0.3,0.3,0.5,0.2,0.9c-0.1,0.3-0.3,0.7-0.4,1c-0.2,0.5-0.3,0.6-0.8,0.6c-0.3,0-0.5,0-0.8,0
			C8.7,22.7,8.7,23.1,8.7,23.5z M23.5,16.1c-0.1,0.1-0.2,0.2-0.3,0.3c-0.3,0.3-0.4,0.3-0.8,0.1c-0.2-0.1-0.4-0.2-0.7-0.3
			c-0.3-0.1-0.5-0.3-0.5-0.7c0-0.1,0-0.3,0-0.4c-0.1,0-0.2,0-0.3,0c-0.1,0-0.2,0-0.3,0c0,0.2,0,0.3,0,0.5c0,0.4-0.1,0.5-0.5,0.6
			c-0.2,0.1-0.5,0.2-0.7,0.3c-0.3,0.1-0.5,0.1-0.7-0.1c-0.1-0.1-0.2-0.2-0.3-0.3c-0.2,0.2-0.3,0.3-0.5,0.4c0.1,0.1,0.2,0.2,0.3,0.3
			c0.3,0.3,0.3,0.5,0.1,0.8c-0.1,0.2-0.2,0.4-0.3,0.7c-0.1,0.3-0.3,0.4-0.6,0.4c-0.2,0-0.3,0-0.5,0c0,0.1,0,0.2,0,0.3
			c0,0.1,0,0.2,0,0.3c0.2,0,0.3,0,0.5,0c0.3,0,0.5,0.1,0.6,0.4c0.1,0.2,0.2,0.5,0.3,0.7c0.1,0.3,0.1,0.5-0.1,0.7
			c-0.1,0.1-0.2,0.2-0.4,0.3c0.2,0.2,0.3,0.3,0.5,0.5c0.1-0.1,0.2-0.2,0.3-0.3c0.3-0.3,0.5-0.3,0.8-0.1c0.2,0.1,0.4,0.2,0.6,0.3
			c0.3,0.1,0.5,0.3,0.5,0.6c0,0.2,0,0.3,0,0.5c0.2,0,0.4,0,0.6,0c0-0.2,0-0.3,0-0.5c0-0.3,0.1-0.5,0.4-0.6c0.2-0.1,0.5-0.2,0.7-0.3
			c0.3-0.1,0.5-0.1,0.7,0.1c0.1,0.1,0.2,0.3,0.3,0.4c0.2-0.2,0.3-0.3,0.5-0.5c-0.1-0.1-0.2-0.2-0.4-0.3c-0.2-0.2-0.3-0.4-0.1-0.7
			c0.1-0.2,0.2-0.5,0.3-0.7c0.1-0.3,0.3-0.4,0.6-0.4c0.2,0,0.3,0,0.5,0c0-0.2,0-0.4,0-0.6c-0.2,0-0.3,0-0.5,0
			c-0.4,0-0.5-0.1-0.6-0.5c-0.1-0.2-0.2-0.5-0.3-0.7c-0.2-0.3-0.1-0.5,0.1-0.8c0.1-0.1,0.2-0.2,0.3-0.3
			C23.8,16.4,23.7,16.2,23.5,16.1z M17.2,22.8c0-1.5-1.2-2.6-2.7-2.6c-1.5,0-2.6,1.2-2.6,2.7c0,1.5,1.2,2.6,2.7,2.6
			C16,25.5,17.2,24.3,17.2,22.8z M21.4,12.7c-0.1-0.4-0.3-0.8-0.4-1.2c-0.1-0.2-0.2-0.3-0.4-0.3c-1.1,0-2.3,0-3.4,0
			c-0.7,0-1.3,0-2,0c-0.1,0-0.3,0-0.3,0.2c0,0.4,0,0.8,0,1.2C17.1,12.7,19.2,12.7,21.4,12.7z"/>
		<path class="st1" d="M32,26.2c-0.2,0.5-0.6,0.7-1.2,0.7c-2,0-6.3,0-8.3,0c-0.4,0-0.6-0.1-0.6-0.4c0-0.2,0.2-0.3,0.6-0.3
			c2,0,6.3,0,8.3,0c0.4,0,0.4,0,0.4-0.4c0-1.7,0-5.3,0-7.1c0-0.3,0.2-0.5,0.5-0.4c0.1,0,0.2,0.1,0.2,0.2C32,20.4,32,24.2,32,26.2z"
			/>
		<path class="st1" d="M21,21.5c-1.3,0-2.4-1.1-2.4-2.4c0-1.3,1.1-2.4,2.4-2.4c1.3,0,2.4,1.1,2.4,2.4C23.4,20.4,22.3,21.5,21,21.5z
			 M21,20.8c0.9,0,1.7-0.7,1.7-1.7c0-0.9-0.7-1.7-1.7-1.7c-0.9,0-1.7,0.7-1.7,1.7C19.3,20,20,20.8,21,20.8z"/>
	</g>
</g>
</svg>
