<?xml version="1.0" encoding="utf-8"?>
<!-- Generator: Adobe Illustrator 24.0.2, SVG Export Plug-In . SVG Version: 6.00 Build 0)  -->
<svg version="1.1" id="Capa_1" xmlns="http://www.w3.org/2000/svg" xmlns:xlink="http://www.w3.org/1999/xlink" x="0px" y="0px"
	 viewBox="0 0 40 40" style="enable-background:new 0 0 40 40;" xml:space="preserve">
<style type="text/css">
	.st0{fill:#82B23E;}
	.st1{fill:#FFFFFF;}
</style>
<circle class="st0" cx="20" cy="20.1" r="19.4"/>
<g>
	<g>
		<path class="st1" d="M28.5,29h-17c-0.2,0-0.4-0.2-0.4-0.4v-6.9c0-0.2,0.2-0.4,0.4-0.4s0.4,0.2,0.4,0.4v6.5h16.3v-6.5
			c0-0.2,0.2-0.4,0.4-0.4s0.4,0.2,0.4,0.4v6.9C28.9,28.8,28.7,29,28.5,29z"/>
		<path class="st1" d="M28.5,14.7c-0.2,0-0.4-0.2-0.4-0.4V12H11.9v2.3c0,0.2-0.2,0.4-0.4,0.4s-0.4-0.2-0.4-0.4v-2.7
			c0-0.2,0.2-0.4,0.4-0.4h17c0.2,0,0.4,0.2,0.4,0.4v2.7C28.9,14.5,28.7,14.7,28.5,14.7z"/>
		<path class="st1" d="M20,26.9h-5.3c-0.2,0-0.4-0.2-0.4-0.4v-3.7c0-0.2,0.2-0.4,0.4-0.4H20c0.2,0,0.4,0.2,0.4,0.4v3.7
			C20.4,26.7,20.2,26.9,20,26.9z M15.1,26.1h4.6v-3h-4.6V26.1z"/>
		<path class="st1" d="M26.4,29h-3.2c-0.2,0-0.4-0.2-0.4-0.4v-5.8c0-0.2,0.2-0.4,0.4-0.4h3.2c0.2,0,0.4,0.2,0.4,0.4v5.8
			C26.7,28.8,26.6,29,26.4,29z M23.5,28.3H26v-5.1h-2.5V28.3z"/>
		<path class="st1" d="M28.5,17.3H11c-0.2,0-0.4-0.2-0.4-0.4s0.2-0.4,0.4-0.4h17.5c0.2,0,0.4,0.2,0.4,0.4S28.7,17.3,28.5,17.3z"/>
	</g>
	<path class="st1" d="M29.6,17.3c-0.1,0-0.3-0.1-0.3-0.2l-1.1-2.7c-0.1-0.2,0-0.4,0.2-0.5c0.2-0.1,0.4,0,0.5,0.2l1.1,2.7
		c0.1,0.2,0,0.4-0.2,0.5C29.6,17.3,29.6,17.3,29.6,17.3z"/>
	<path class="st1" d="M10.4,17.3c0,0-0.1,0-0.1,0c-0.2-0.1-0.3-0.3-0.2-0.5l1.1-2.7c0.1-0.1,0.2-0.2,0.3-0.2h17
		c0.2,0,0.4,0.2,0.4,0.4c0,0.2-0.2,0.4-0.4,0.4H11.8l-1,2.4C10.7,17.2,10.6,17.3,10.4,17.3z"/>
	<path class="st1" d="M28,20.5c-0.7,0-1.2-0.3-1.6-0.8c-0.4,0.5-0.9,0.8-1.6,0.8s-1.2-0.3-1.6-0.8c-0.4,0.5-0.9,0.8-1.6,0.8
		s-1.2-0.3-1.6-0.8c-0.4,0.5-0.9,0.8-1.6,0.8s-1.2-0.3-1.6-0.8c-0.4,0.5-0.9,0.8-1.6,0.8s-1.2-0.3-1.6-0.8c-0.4,0.5-0.9,0.8-1.6,0.8
		c-1.1,0-2-0.9-2-2V17c0-0.2,0.2-0.4,0.4-0.4h19.1c0.2,0,0.4,0.2,0.4,0.4v1.6C29.9,19.6,29,20.5,28,20.5z M26.4,18.2
		c0.2,0,0.4,0.2,0.4,0.4c0,0.7,0.6,1.2,1.2,1.2c0.7,0,1.2-0.6,1.2-1.2v-1.2H10.8v1.2c0,0.7,0.6,1.2,1.2,1.2c0.7,0,1.2-0.6,1.2-1.2
		c0-0.2,0.2-0.4,0.4-0.4c0.2,0,0.4,0.2,0.4,0.4c0,0.7,0.6,1.2,1.2,1.2s1.2-0.6,1.2-1.2c0-0.2,0.2-0.4,0.4-0.4s0.4,0.2,0.4,0.4
		c0,0.7,0.6,1.2,1.2,1.2s1.2-0.6,1.2-1.2c0-0.2,0.2-0.4,0.4-0.4s0.4,0.2,0.4,0.4c0,0.7,0.6,1.2,1.2,1.2s1.2-0.6,1.2-1.2
		c0-0.2,0.2-0.4,0.4-0.4s0.4,0.2,0.4,0.4c0,0.7,0.6,1.2,1.2,1.2c0.7,0,1.2-0.6,1.2-1.2C26,18.3,26.2,18.2,26.4,18.2z"/>
</g>
</svg>
