<?xml version="1.0" encoding="utf-8"?>
<!-- Generator: Adobe Illustrator 24.0.2, SVG Export Plug-In . SVG Version: 6.00 Build 0)  -->
<svg version="1.1" id="Capa_1" xmlns="http://www.w3.org/2000/svg" xmlns:xlink="http://www.w3.org/1999/xlink" x="0px" y="0px"
	 viewBox="0 0 40 40" style="enable-background:new 0 0 40 40;" xml:space="preserve">
<style type="text/css">
	.st0{fill:#82B23E;}
	.st1{fill:#FFFFFF;}
</style>
<circle class="st0" cx="20" cy="20" r="19.4"/>
<g>
	<path class="st1" d="M19.1,14.1c-0.9,0-1.6-0.7-1.6-1.6c0-0.9,0.7-1.6,1.6-1.6c0.9,0,1.6,0.7,1.6,1.6C20.7,13.3,20,14.1,19.1,14.1z
		 M19.1,11.5c-0.5,0-0.9,0.4-0.9,0.9c0,0.5,0.4,0.9,0.9,0.9c0.5,0,0.9-0.4,0.9-0.9C20,11.9,19.6,11.5,19.1,11.5z"/>
	<path class="st1" d="M21.2,15.4h-4.3c-0.6,0-1-0.5-1-1v-1.3c0-0.6,0.5-1,1-1h0.9c0.2,0,0.4,0.2,0.4,0.4c0,0.5,0.4,0.9,0.9,0.9
		c0.5,0,0.9-0.4,0.9-0.9c0-0.2,0.2-0.4,0.4-0.4h0.9c0.6,0,1,0.5,1,1v1.3C22.2,14.9,21.8,15.4,21.2,15.4z M16.9,12.8
		c-0.2,0-0.3,0.1-0.3,0.3v1.3c0,0.2,0.1,0.3,0.3,0.3h4.3c0.2,0,0.3-0.1,0.3-0.3v-1.3c0-0.2-0.1-0.3-0.3-0.3h-0.6
		c-0.2,0.7-0.8,1.3-1.6,1.3c-0.8,0-1.4-0.5-1.6-1.3H16.9z"/>
	<path class="st1" d="M23.7,29.2h-9.2c-1,0-1.8-0.8-1.8-1.8V14.6c0-1,0.8-1.8,1.8-1.8h1.8c0.2,0,0.4,0.2,0.4,0.4v1.2
		c0,0.2,0.1,0.3,0.3,0.3h4.3c0.2,0,0.3-0.1,0.3-0.3v-1.2c0-0.2,0.2-0.4,0.4-0.4h1.8c1,0,1.8,0.8,1.8,1.8v2.5c0,0.2-0.2,0.4-0.4,0.4
		c-0.2,0-0.4-0.2-0.4-0.4v-2.5c0-0.6-0.5-1.1-1.1-1.1h-1.4v0.9c0,0.6-0.5,1-1,1h-4.3c-0.6,0-1-0.5-1-1v-0.9h-1.4
		c-0.6,0-1.1,0.5-1.1,1.1v12.9c0,0.6,0.5,1.1,1.1,1.1h9.2c0.6,0,1.1-0.5,1.1-1.1v-1.7c0-0.2,0.2-0.4,0.4-0.4c0.2,0,0.4,0.2,0.4,0.4
		v1.7C25.4,28.4,24.7,29.2,23.7,29.2z"/>
	<path class="st1" d="M23.5,25.4c-2.1,0-3.8-1.7-3.8-3.8c0-1.9,1.3-3.5,3.2-3.8c0.1,0,0.2,0,0.3,0.1c0.1,0.1,0.1,0.2,0.1,0.3v1.4
		c0,0.2-0.2,0.4-0.4,0.4c-0.2,0-0.4-0.2-0.4-0.4v-1c-1.3,0.4-2.2,1.6-2.2,3c0,1.7,1.4,3.1,3.1,3.1c1.4,0,2.6-0.9,3-2.2h-1
		c-0.2,0-0.4-0.2-0.4-0.4s0.2-0.4,0.4-0.4h1.4c0.1,0,0.2,0,0.3,0.1c0.1,0.1,0.1,0.2,0.1,0.3C27,24,25.4,25.4,23.5,25.4z"/>
	<path class="st1" d="M26.9,21.3c-0.2,0-0.3-0.1-0.3-0.3c-0.2-1.3-1.3-2.3-2.6-2.5c-0.2,0-0.3-0.2-0.3-0.4c0-0.2,0.2-0.3,0.4-0.3
		c1.6,0.3,2.9,1.5,3.1,3.1C27.3,21,27.2,21.2,26.9,21.3C27,21.3,26.9,21.3,26.9,21.3z"/>
	<path class="st1" d="M26.9,21.3h-1.4c-0.2,0-0.3-0.1-0.3-0.2c-0.2-0.6-0.6-1-1.2-1.2c-0.2,0-0.3-0.2-0.3-0.3v-1.4
		c0-0.2,0.2-0.4,0.4-0.4c0.2,0,0.4,0.2,0.4,0.4v1.2c0.6,0.2,1.1,0.7,1.3,1.3h1.2c0.2,0,0.4,0.2,0.4,0.4S27.1,21.3,26.9,21.3z"/>
	<path class="st1" d="M23.5,24c-1.3,0-2.4-1.1-2.4-2.4c0-1.1,0.7-2,1.8-2.3c0.2-0.1,0.4,0.1,0.4,0.2c0.1,0.2-0.1,0.4-0.2,0.4
		c-0.7,0.2-1.3,0.9-1.3,1.7c0,1,0.8,1.7,1.7,1.7c0.8,0,1.5-0.5,1.7-1.3c0.1-0.2,0.2-0.3,0.4-0.2c0.2,0.1,0.3,0.2,0.2,0.4
		C25.6,23.2,24.6,24,23.5,24z"/>
	<path class="st1" d="M21.8,17.3h-7.2c-0.2,0-0.4-0.2-0.4-0.4s0.2-0.4,0.4-0.4h7.2c0.2,0,0.4,0.2,0.4,0.4S22,17.3,21.8,17.3z"/>
	<path class="st1" d="M19.8,18.9h-5.2c-0.2,0-0.4-0.2-0.4-0.4s0.2-0.4,0.4-0.4h5.2c0.2,0,0.4,0.2,0.4,0.4S20,18.9,19.8,18.9z"/>
	<path class="st1" d="M19,20.6h-4.3c-0.2,0-0.4-0.2-0.4-0.4s0.2-0.4,0.4-0.4H19c0.2,0,0.4,0.2,0.4,0.4S19.1,20.6,19,20.6z"/>
	<path class="st1" d="M18.7,22.2h-4c-0.2,0-0.4-0.2-0.4-0.4s0.2-0.4,0.4-0.4h4c0.2,0,0.4,0.2,0.4,0.4S18.9,22.2,18.7,22.2z"/>
	<path class="st1" d="M19.1,23.9h-4.5c-0.2,0-0.4-0.2-0.4-0.4s0.2-0.4,0.4-0.4h4.5c0.2,0,0.4,0.2,0.4,0.4S19.3,23.9,19.1,23.9z"/>
	<path class="st1" d="M20.6,25.5h-5.9c-0.2,0-0.4-0.2-0.4-0.4s0.2-0.4,0.4-0.4h5.9c0.2,0,0.4,0.2,0.4,0.4S20.7,25.5,20.6,25.5z"/>
	<path class="st1" d="M23.1,27.2h-8.5c-0.2,0-0.4-0.2-0.4-0.4s0.2-0.4,0.4-0.4h8.5c0.2,0,0.4,0.2,0.4,0.4S23.3,27.2,23.1,27.2z"/>
</g>
</svg>
