<svg id="Capa_1" data-name="Capa 1" xmlns="http://www.w3.org/2000/svg" viewBox="0 0 38.82 38.82"><defs><style>.cls-1{fill:#82b23e;}.cls-2{fill:#fff;}</style></defs><title>caracteristicas 6</title><circle class="cls-1" cx="19.41" cy="19.41" r="19.41"/><path class="cls-2" d="M28.5,17.58H24.25a.45.45,0,0,0-.45.45v3.63H20.45V20.5a.45.45,0,0,0-.45-.45H15.75a.45.45,0,0,0-.45.45V23H11.5a.45.45,0,0,0-.45.45v4.17a.45.45,0,0,0,.45.45h17a.45.45,0,0,0,.45-.45V18A.45.45,0,0,0,28.5,17.58Zm-3.8,4.53V18.48h3.36V27.2H24.7Zm-.9.44V27.2H20.45V22.55Zm-7.6.93V20.94h3.35V27.2H16.2Zm-.9.45V27.2H11.94V23.93Z" transform="translate(-0.59 -0.63)"/><path class="cls-2" d="M12.47,18.08a.43.43,0,0,0,.22-.06l4.43-2.57L21,17.33a.46.46,0,0,0,.48-.06l4.41-3.56v1.6a.45.45,0,0,0,.45.45.45.45,0,0,0,.45-.45V12.76a.49.49,0,0,0,0-.15l-.08-.14-.09-.07,0,0-.11,0L24,12a.43.43,0,0,0-.33.09.44.44,0,0,0,.21.8l1.41.2L21.17,16.4,17.3,14.54a.45.45,0,0,0-.42,0l-4.64,2.68a.45.45,0,0,0-.2.28.41.41,0,0,0,0,.34A.47.47,0,0,0,12.47,18.08ZM26.7,12.77Z" transform="translate(-0.59 -0.63)"/></svg>