<?xml version="1.0" encoding="utf-8"?>
<!-- Generator: Adobe Illustrator 24.0.2, SVG Export Plug-In . SVG Version: 6.00 Build 0)  -->
<svg version="1.1" id="Capa_1" xmlns="http://www.w3.org/2000/svg" xmlns:xlink="http://www.w3.org/1999/xlink" x="0px" y="0px"
	 viewBox="0 0 34 45.6" style="enable-background:new 0 0 34 45.6;" xml:space="preserve">
<style type="text/css">
	.st0{fill:#fff;}
</style>
<title>desde cualquier lugar</title>
<g>
	<g>
		<path class="st0" d="M31.8,17.3c-0.1,3.3-1,6.1-2.6,8.7c-3.5,5.4-7,10.7-10.6,16.1c-1,1.4-2.5,1.4-3.5,0
			c-3.5-5.3-7.1-10.6-10.5-15.9c-1.8-2.8-2.8-5.9-2.6-9.4c0.3-6,4.8-11.6,10.6-13.2c8.5-2.3,16.8,2.6,18.7,11.2
			C31.7,15.6,31.7,16.6,31.8,17.3z M16.9,41.5c0.6-1,1.2-1.7,1.7-2.5c3.2-4.8,6.4-9.6,9.4-14.5c2-3.2,2.6-6.7,1.6-10.4
			C28.1,9,23.6,5.2,18,4.7C12.9,4.2,7.6,7.1,5.3,11.7c-2.2,4.4-1.9,8.7,0.6,12.7c3.5,5.6,7.2,11.1,10.8,16.6
			C16.7,41.2,16.8,41.3,16.9,41.5z"/>
		<path class="st0" d="M17,9.9c4.4,0,7.9,3.5,7.8,7.9c0,4.3-3.6,7.8-7.9,7.8c-4.4,0-7.9-3.6-7.8-7.9C9.1,13.4,12.6,9.9,17,9.9z
			 M17,11.6c-3.4,0-6.1,2.7-6.1,6c0,3.4,2.7,6.2,6.1,6.2c3.4,0,6.2-2.7,6.1-6.1C23,14.4,20.3,11.6,17,11.6z"/>
	</g>
</g>
</svg>
