<?xml version="1.0" encoding="utf-8"?>
<!-- Generator: Adobe Illustrator 24.0.2, SVG Export Plug-In . SVG Version: 6.00 Build 0)  -->
<svg version="1.1" id="Capa_1" xmlns="http://www.w3.org/2000/svg" xmlns:xlink="http://www.w3.org/1999/xlink" x="0px" y="0px"
	 viewBox="0 0 50 50" style="enable-background:new 0 0 50 50;" xml:space="preserve">
<style type="text/css">
	.st0{fill:#33333;}
</style>
<g>
	<path class="st0" d="M48.7,9.9c-0.1,0.1-0.1,0.2-0.2,0.3L32.2,28.6c-1.8,2-4.3,3.1-6.9,3.1c-2.6,0-5.2-1.1-6.9-3.1L1.8,9.9
		c-0.3,0.7-0.5,1.4-0.5,2.2v21.2c0,5.5,4.4,9.9,9.9,9.9h27.9c5.5,0,9.9-4.4,9.9-9.9V12.1C49.2,11.3,49,10.5,48.7,9.9z"/>
	<path class="st0" d="M22.1,25.3c0.8,0.9,2,1.4,3.2,1.4c1.2,0,2.4-0.5,3.2-1.4L44.8,6.8c0.1-0.1,0.1-0.1,0.2-0.2
		c-0.5-0.1-0.9-0.2-1.5-0.2H7c-0.5,0-1,0.1-1.4,0.2L22.1,25.3z"/>
</g>
</svg>
