<svg id="Capa_1" data-name="Capa 1" xmlns="http://www.w3.org/2000/svg" viewBox="0 0 46.8 46.75"><defs><style>.cls-1{fill:#fff;}</style></defs><title>estadisticas</title><path class="cls-1" d="M1.65,38.3V4.2A8.46,8.46,0,0,1,2,3.36,3.22,3.22,0,0,1,4.21,1.64H45.89c.28.1.57.18.85.31A3.2,3.2,0,0,1,48.45,4.2V31.44c0,.29,0,.57-.05.86,0,1.74,0,3.47,0,5.21A3.86,3.86,0,0,1,48.13,39a3,3,0,0,1-3,1.84h-13v2.44h1.82A2.54,2.54,0,0,1,36.63,46q0,.52,0,1.05a1.21,1.21,0,0,1-1.34,1.36h-9.5c-.29,0-.58,0-.86,0a.6.6,0,0,1-.62-.65.62.62,0,0,1,.6-.68,3.46,3.46,0,0,1,.46,0h9.89V46.2c0-1.17-.39-1.57-1.55-1.57H16.3a3.81,3.81,0,0,0-.59,0,1,1,0,0,0-.87.84,10.83,10.83,0,0,0,0,1.51H26c.47,0,.77.3.77.69a.7.7,0,0,1-.76.67H14.5a1.12,1.12,0,0,1-1.06-1.1c0-.57,0-1.13,0-1.69a2.41,2.41,0,0,1,1.69-2.17,5.87,5.87,0,0,1,1.26-.15c.52,0,1.05,0,1.58,0V40.82H5a3.09,3.09,0,0,1-2.84-1.41A7.34,7.34,0,0,1,1.65,38.3ZM3.05,11V33.79H47V11ZM47,9.57C47,8,47,6.36,47,4.78A1.64,1.64,0,0,0,45.21,3H4.9A1.65,1.65,0,0,0,3.07,4.82c0,1.48,0,3,0,4.43a1.75,1.75,0,0,0,0,.32ZM3,35.22v2.19c0,1.43.59,2,2,2H45a3.44,3.44,0,0,0,.72,0A1.4,1.4,0,0,0,47,38.19a29.37,29.37,0,0,0,0-3ZM19.4,40.84v2.4H30.66v-2.4Z" transform="translate(-1.65 -1.64)"/><path class="cls-1" d="M35.22,14.07H30.74V31.28h4.45c0-.16,0-.34,0-.51V20.85a2.32,2.32,0,0,1,.06-.59.61.61,0,0,1,.68-.48.62.62,0,0,1,.61.58,4.1,4.1,0,0,1,0,.5V31.28h.9a4.38,4.38,0,0,0,0-.52c0-2.88,0-5.76,0-8.63a1.4,1.4,0,0,1,1.6-1.6c1.43.06,2.87,0,4.3,0a1.24,1.24,0,0,1,1.38,1.38v9.83c0,.69-.23.93-.94.93h-30c-.73,0-1-.23-1-1q0-3.06,0-6.12a1.25,1.25,0,0,1,1.4-1.41H18.8a1.26,1.26,0,0,1,1.4,1.42V31.3h.92V19.57c0-1,.45-1.49,1.51-1.49h4.29c1,0,1.48.46,1.48,1.48V31.28h.93v-.54c0-5.5,0-11,0-16.49a1.39,1.39,0,0,1,1.58-1.57c1.45.05,2.89,0,4.34,0A1.22,1.22,0,0,1,36.58,14c0,.7,0,6.84,0,7.54,0,.52-.24.8-.67.8s-.68-.28-.69-.79C35.21,20.89,35.22,14.79,35.22,14.07ZM22.51,31.32c1.36,0,2.68,0,4,0,.43,0,.53-.12.53-.54,0-3.6,0-7.21,0-10.82v-.48H22.51Zm20.89,0V22H38.9v9c0,.21,0,.35.3.34ZM14.32,25.59v5.69h4.47V25.59Z" transform="translate(-1.65 -1.64)"/><path class="cls-1" d="M15.1,12.78h5.17a2.26,2.26,0,0,1,.45,0,.62.62,0,0,1,.58.6.61.61,0,0,1-.46.69,2,2,0,0,1-.54.06H9.88a2.74,2.74,0,0,1-.5,0,.62.62,0,0,1-.52-.7.63.63,0,0,1,.62-.62,4.21,4.21,0,0,1,.5,0Z" transform="translate(-1.65 -1.64)"/><path class="cls-1" d="M17.6,15.8c.7,0,1.4,0,2.1,0,.52,0,.8.24.81.66s-.29.7-.82.7q-2.1,0-4.2,0c-.52,0-.84-.3-.82-.71s.31-.65.83-.65C16.2,15.79,16.9,15.8,17.6,15.8Z" transform="translate(-1.65 -1.64)"/><path class="cls-1" d="M7.28,15.8c.6,0,1.19,0,1.78,0s.81.28.8.68a.71.71,0,0,1-.77.68c-1.2,0-2.4,0-3.61,0a.69.69,0,0,1-.76-.72c0-.4.3-.63.78-.64S6.69,15.8,7.28,15.8Z" transform="translate(-1.65 -1.64)"/><path class="cls-1" d="M6.33,12.79c.3,0,.61,0,.91,0a.63.63,0,0,1,.63.6.57.57,0,0,1-.53.71,16.19,16.19,0,0,1-2.09,0,.58.58,0,0,1-.53-.68.63.63,0,0,1,.65-.63C5.69,12.77,6,12.79,6.33,12.79Z" transform="translate(-1.65 -1.64)"/><path class="cls-1" d="M12.39,15.81c.27,0,.54,0,.82,0a.61.61,0,0,1,.6.62.57.57,0,0,1-.52.68,12.28,12.28,0,0,1-1.82,0,.59.59,0,0,1-.54-.67.63.63,0,0,1,.64-.64c.27,0,.54,0,.82,0Z" transform="translate(-1.65 -1.64)"/><path class="cls-1" d="M11.82,4.28a2,2,0,0,1,2,2,2,2,0,1,1-2-2Zm0,1.38a.63.63,0,0,0,0,1.25.63.63,0,0,0,.63-.64A.61.61,0,0,0,11.8,5.66Z" transform="translate(-1.65 -1.64)"/><path class="cls-1" d="M8.7,6.3a2,2,0,1,1-2-2A2,2,0,0,1,8.7,6.3Zm-1.38,0a.6.6,0,0,0-.62-.63.61.61,0,0,0-.63.63.63.63,0,0,0,1.25,0Z" transform="translate(-1.65 -1.64)"/><path class="cls-1" d="M16.93,4.28a2,2,0,0,1,2,2,2,2,0,0,1-2,2,2,2,0,1,1,0-4Zm0,1.38a.63.63,0,0,0-.64.62.64.64,0,0,0,.65.63.63.63,0,0,0,0-1.25Z" transform="translate(-1.65 -1.64)"/></svg>