<?xml version="1.0" encoding="utf-8"?>
<!-- Generator: Adobe Illustrator 24.0.2, SVG Export Plug-In . SVG Version: 6.00 Build 0)  -->
<svg version="1.1" id="Capa_1" xmlns="http://www.w3.org/2000/svg" xmlns:xlink="http://www.w3.org/1999/xlink" x="0px" y="0px"
	 viewBox="0 0 50 50" style="enable-background:new 0 0 50 50;" xml:space="preserve">
<style type="text/css">
	.st0{fill:#FFFFFF;}
</style>
<g>
	<g>
		<path class="st0" d="M26.5,49.6c-1,0-1.9,0-2.9,0c-0.1,0-0.2-0.1-0.4-0.1c-3-0.2-5.9-0.9-8.5-2.2c-7.5-3.7-12-9.6-13.6-17.8
			c-0.2-0.9-0.3-1.9-0.4-2.8c0-1,0-1.9,0-2.9c0.1-0.8,0.2-1.7,0.3-2.5c0.9-5.5,3.4-10.2,7.5-14c5.4-4.9,11.7-7,19-6.4
			c5.2,0.5,9.7,2.5,13.6,5.9c5.2,4.6,7.9,10.4,8.3,17.3c0.2,4.4-0.7,8.6-2.8,12.4c-3.8,6.9-9.5,11.1-17.3,12.6
			C28.4,49.4,27.5,49.5,26.5,49.6z M24.3,24.4c0-3.5,0-7,0-10.5c-0.3,0-0.5,0-0.7,0c-3.5,0.1-6.9,0.6-10.3,1.2
			c-0.4,0.1-0.6,0.2-0.7,0.7c-0.3,1.9-0.7,3.7-1,5.5c-0.2,1-0.2,2-0.2,3.1C15.7,24.4,20,24.4,24.3,24.4z M26,24.4
			c4.3,0,8.6,0,12.9,0c0-0.1,0-0.1,0-0.1c-0.1-3-0.5-5.9-1.3-8.8c0-0.1-0.3-0.3-0.4-0.3c-2.7-0.4-5.5-0.8-8.2-1.1
			c-1-0.1-2-0.1-3-0.1C26,17.5,26,20.9,26,24.4z M24.3,36.6c0-3.6,0-7,0-10.5c-4.3,0-8.6,0-12.9,0c0,0.1,0,0.1,0,0.1
			c0.1,3,0.5,5.9,1.3,8.8c0,0.1,0.3,0.3,0.4,0.3c2,0.3,4,0.7,6,0.9C20.8,36.4,22.5,36.5,24.3,36.6z M38.9,26.1c-4.3,0-8.6,0-12.9,0
			c0,3.5,0,7,0,10.5c0.1,0,0.2,0,0.3,0c3.7-0.1,7.3-0.6,10.9-1.2c0.1,0,0.3-0.2,0.3-0.4c0.2-0.9,0.4-1.7,0.6-2.6
			C38.6,30.3,38.8,28.2,38.9,26.1z M13.3,37c0.7,1.8,1.5,3.5,2.6,5.1c1.5,2.2,3.3,4,5.7,5.1c0.8,0.4,1.7,0.7,2.7,0.7
			c0-3.3,0-6.5,0-9.7C20.6,38.2,17,37.7,13.3,37z M24.3,2.6c-1.3,0.1-2.5,0.5-3.5,1.1c-3.8,2.2-5.8,5.8-7.4,9.8
			c3.7-0.7,7.3-1.1,11-1.2C24.3,9,24.3,5.8,24.3,2.6z M26,12.3c3.7,0,7.3,0.5,10.9,1.2c-0.7-2.3-2.5-5.3-4.2-7.2
			c-1.2-1.3-2.5-2.3-4.1-3c-0.9-0.4-1.7-0.6-2.7-0.7C26,5.8,26,9,26,12.3z M26,38.2c0,3.3,0,6.5,0,9.7c0.2,0,0.4,0,0.6-0.1
			c1.3-0.2,2.6-0.7,3.7-1.5c3.3-2.3,5.2-5.6,6.7-9.3C33.3,37.7,29.7,38.2,26,38.2z M9.7,24.4c0.1-3,0.5-5.9,1.3-8.8
			c-0.1,0-0.1,0-0.2,0c-2.2,0.4-4.3,0.7-6.5,1.1C4.2,16.7,4,16.9,4,17c-0.4,1.4-0.9,2.7-1.2,4.1c-0.2,1.1-0.3,2.2-0.4,3.3
			C4.8,24.4,7.2,24.4,9.7,24.4z M39.2,15.5c0.8,3,1.2,5.9,1.3,8.9c2.5,0,4.9,0,7.3,0c0-2-0.7-5.8-1.5-7.5c-0.1-0.1-0.2-0.2-0.3-0.2
			c-0.4-0.1-0.8-0.2-1.3-0.2C42.9,16.1,41.1,15.8,39.2,15.5z M9.7,26.1c-2.5,0-4.9,0-7.3,0C2.5,28.7,3,31.2,4,33.6
			c0,0.1,0.2,0.2,0.4,0.3c1.4,0.3,2.8,0.5,4.2,0.7c0.8,0.1,1.5,0.3,2.4,0.4C10.2,32,9.8,29.1,9.7,26.1z M40.5,26.1
			c-0.1,3-0.5,5.9-1.3,8.8c0.1,0,0.1,0,0.2,0c2.2-0.4,4.3-0.7,6.5-1.1c0.1,0,0.3-0.2,0.3-0.3c0.4-1.4,0.9-2.7,1.2-4.1
			c0.2-1.1,0.3-2.2,0.4-3.3C45.4,26.1,43,26.1,40.5,26.1z M4.9,14.9c0.2,0,0.3,0,0.4,0c1.9-0.3,3.8-0.7,5.7-1
			c0.4-0.1,0.6-0.2,0.8-0.7c0.8-2.4,2-4.7,3.6-6.7c0.8-1,1.6-1.8,2.5-2.8C12.1,5.8,7.8,9.5,4.9,14.9z M45.4,14.9
			c-2.9-5.5-7.2-9.1-12.9-11.1c0.4,0.4,0.7,0.8,1.1,1.2c2.3,2.4,4,5.3,5,8.5c0.1,0.3,0.2,0.4,0.5,0.4c1,0.2,2,0.4,3,0.5
			C43.2,14.6,44.2,14.7,45.4,14.9z M4.9,35.6c2.9,5.4,7.2,9.1,12.9,11.1c-0.3-0.4-0.7-0.8-1.1-1.2c-2.3-2.4-4-5.3-5-8.5
			c-0.1-0.3-0.2-0.4-0.5-0.4c-0.8-0.1-1.7-0.3-2.5-0.4C7.4,36,6.2,35.8,4.9,35.6z M45.3,35.6c-0.2,0-0.3,0-0.4,0
			c-1.9,0.3-3.8,0.7-5.7,1c-0.4,0.1-0.6,0.2-0.7,0.6c-1.2,3.6-3.2,6.7-5.9,9.2c-0.1,0.1-0.2,0.2-0.2,0.3
			C38.2,44.7,42.5,41,45.3,35.6z"/>
	</g>
</g>
</svg>
