<?xml version="1.0" encoding="utf-8"?>
<!-- Generator: Adobe Illustrator 24.0.2, SVG Export Plug-In . SVG Version: 6.00 Build 0)  -->
<svg version="1.1" id="Capa_1" xmlns="http://www.w3.org/2000/svg" xmlns:xlink="http://www.w3.org/1999/xlink" x="0px" y="0px"
	 viewBox="0 0 50 50" style="enable-background:new 0 0 50 50;" xml:space="preserve">
<style type="text/css">
	.st0{fill:#00A0D9;}
	.st1{fill:#FFFFFF;}
</style>
<circle class="st0" cx="25" cy="25" r="24.4"/>
<g>
	<g>
		<g>
			<g>
				<g>
					<path class="st1" d="M31.5,34.9H18.5c-0.3,0-0.6-0.1-0.8-0.3c-0.2-0.2-0.3-0.5-0.3-0.8c0-0.6,0.5-1.1,1.1-1.2l3.8-0.3l0.1-1.7
						c0-0.2,0.2-0.4,0.5-0.4c0.2,0,0.4,0.2,0.4,0.5L23,32.7c0,0.2-0.2,0.4-0.4,0.4l-4.2,0.3c-0.1,0-0.3,0.1-0.3,0.3
						c0,0.1,0,0.1,0.1,0.2c0.1,0.1,0.1,0.1,0.2,0.1h13.1c0.2,0,0.3-0.1,0.3-0.3c0-0.1,0-0.1-0.1-0.2c0-0.1-0.1-0.1-0.2-0.1l-4.2-0.3
						c-0.2,0-0.4-0.2-0.4-0.4l-0.1-2.1c0-0.2,0.2-0.5,0.4-0.5c0.2,0,0.5,0.2,0.5,0.4l0.1,1.7l3.8,0.3c0.3,0,0.6,0.2,0.8,0.4
						c0.2,0.2,0.3,0.5,0.3,0.8C32.7,34.3,32.2,34.9,31.5,34.9z"/>
				</g>
				<g>
					<g>
						<path class="st1" d="M34.8,30.9H15.2c-0.4,0-0.8-0.3-0.8-0.8V15.9c0-0.4,0.3-0.8,0.8-0.8h19.5c0.4,0,0.8,0.3,0.8,0.8v14.2
							C35.5,30.6,35.2,30.9,34.8,30.9z M15.4,30h19.3V16H15.4V30z"/>
					</g>
					<g>
						<path class="st1" d="M33.7,29H16.3c-0.2,0-0.4-0.2-0.4-0.4c0-0.2,0.2-0.4,0.4-0.4h17.5c0.2,0,0.4,0.2,0.4,0.4
							C34.2,28.8,34,29,33.7,29z"/>
					</g>
				</g>
			</g>
		</g>
		<g>
			<g>
				<g>
					<g>
						<g>
							<g>
								<g>
									<path class="st1" d="M25,27.6c-0.1,0-0.1,0-0.2-0.1l-2.5-1.3c-1.2-0.6-1.8-1.8-1.8-3.1l0.2-4.9c0-0.2,0.1-0.4,0.3-0.4
										l3.8-0.8c0.1,0,0.1,0,0.2,0l3.8,0.8c0.2,0,0.3,0.2,0.3,0.4l0.2,4.9c0,1.3-0.6,2.4-1.8,3.1l-2.5,1.3
										C25.1,27.5,25.1,27.6,25,27.6z M21.6,18.6l-0.2,4.6c0,0.9,0.5,1.8,1.3,2.2l2.2,1.2l2.3-1.2c0.9-0.5,1.4-1.3,1.3-2.2
										l-0.2-4.6L25,17.9L21.6,18.6z"/>
								</g>
							</g>
						</g>
					</g>
				</g>
			</g>
		</g>
		<g>
			<path class="st1" d="M25,23.7c-0.1,0-0.2,0-0.3-0.1L23,21.9c-0.2-0.2-0.2-0.4,0-0.6c0.2-0.2,0.4-0.2,0.6,0l1.3,1.3l2-2.2
				c0.2-0.2,0.4-0.2,0.6,0c0.2,0.2,0.2,0.4,0,0.6l-2.3,2.5C25.2,23.6,25.1,23.7,25,23.7C25,23.7,25,23.7,25,23.7z"/>
		</g>
	</g>
</g>
</svg>
