<?xml version="1.0" encoding="utf-8"?>
<!-- Generator: Adobe Illustrator 24.0.2, SVG Export Plug-In . SVG Version: 6.00 Build 0)  -->
<svg version="1.1" id="Capa_1" xmlns="http://www.w3.org/2000/svg" xmlns:xlink="http://www.w3.org/1999/xlink" x="0px" y="0px"
	 viewBox="0 0 50 50" style="enable-background:new 0 0 50 50;" xml:space="preserve">
<style type="text/css">
	.st0{fill:#FFFFFF;}
</style>
<g>
	<g>
		<path class="st0" d="M1.1,41.8c0.2-0.7,0.7-1,1.3-1.3c0.8-0.4,1.7-0.8,2.5-1.3c0.2-0.1,0.5-0.4,0.6-0.6
			c5.5-10.1,11-20.2,16.5-30.2C22,8.2,22.1,8,22.3,7.8c0.5-0.7,1.4-0.8,2.1-0.3c0.2,0.1,0.3,0.3,0.5,0.4
			c5.7,5.7,11.4,11.4,17.2,17.2c0.2,0.2,0.4,0.4,0.5,0.6c0.5,0.8,0.2,1.7-0.7,2.2c-1.4,0.8-2.8,1.5-4.1,2.3c-2.4,1.3-4.9,2.6-7.3,4
			c-0.1,0.1-0.3,0.2-0.5,0.3c0.2,0.5,0.5,0.9,0.7,1.4c0.6,1.3,0.1,3-1.1,3.8c-0.8,0.5-1.6,0.9-2.4,1.3c-1.1,0.6-2.3,1.2-3.4,1.8
			c-1.8,0.9-3.6,0.4-4.6-1.4c-0.1-0.3-0.3-0.5-0.4-0.8c-0.2,0.1-0.3,0.1-0.4,0.2c-2.3,1.3-4.6,2.5-6.9,3.8c-0.2,0.1-0.4,0.4-0.6,0.6
			c-0.4,0.8-0.9,1.7-1.3,2.5c-0.3,0.6-0.7,1.1-1.3,1.3c-0.2,0-0.4,0-0.7,0c-0.4-0.3-0.8-0.5-1.2-0.9c-1.5-1.4-2.9-2.9-4.4-4.4
			c-0.3-0.3-0.6-0.8-0.9-1.2C1.1,42.2,1.1,42,1.1,41.8z M21.9,11.8c0,0-0.1,0.1-0.1,0.1C16.9,21,11.9,30.1,7,39.2
			c-0.1,0.3-0.1,0.4,0.1,0.6c1,1,2,2,3,3c0.3,0.3,0.5,0.4,0.9,0.2c8.9-4.9,17.9-9.7,26.8-14.6c0.1-0.1,0.3-0.2,0.4-0.2
			C32.7,22.7,27.3,17.2,21.9,11.8z M23.5,8.8c-0.2,0.3-0.3,0.7-0.5,0.9c-0.2,0.3-0.2,0.5,0.1,0.8c5.4,5.4,10.9,10.9,16.3,16.3
			c0.1,0.1,0.1,0.2,0.2,0.2c0.1,0,0.2,0.1,0.3,0c0.4-0.2,0.8-0.5,1.2-0.7C35.3,20.6,29.4,14.7,23.5,8.8z M20.1,39.8
			c0.2,0.4,0.4,0.7,0.6,1c0.4,0.7,1.3,1,2,0.6c1.9-1,3.9-2.1,5.8-3.1c0.6-0.3,0.9-1,0.7-1.6c-0.2-0.5-0.4-1-0.7-1.5
			C25.7,36.7,22.9,38.2,20.1,39.8z M2.8,42.1c1.7,1.7,3.4,3.4,5.1,5.1c0.4-0.8,0.9-1.7,1.3-2.7c0.1-0.1,0-0.3-0.1-0.4
			C8.1,43,7,41.9,5.9,40.8c-0.1-0.1-0.3-0.2-0.4-0.1C4.6,41.2,3.6,41.6,2.8,42.1z"/>
		<path class="st0" d="M29.2,1c0.6,0.4,0.6,0.6,0.4,1.3c-0.5,1.5-1,3.1-1.5,4.6c-0.1,0.3-0.3,0.6-0.7,0.7c-0.7,0.1-1.1-0.4-0.9-1.1
			c0.5-1.6,1.1-3.2,1.6-4.9c0.1-0.2,0.4-0.4,0.6-0.6C28.9,1,29.1,1,29.2,1z"/>
		<path class="st0" d="M49,21.2c-0.3,0.2-0.5,0.5-0.8,0.6c-1.5,0.5-3.1,1-4.6,1.5c-0.2,0.1-0.3,0.1-0.5,0.1c-0.4,0-0.6-0.2-0.7-0.5
			c-0.1-0.4,0-0.7,0.3-0.9c0.1-0.1,0.3-0.2,0.5-0.2c1.5-0.5,3-1,4.5-1.5c0.7-0.2,0.9-0.2,1.3,0.4C49,20.9,49,21.1,49,21.2z"/>
		<path class="st0" d="M41.2,9.6c-0.2,0.3-0.2,0.5-0.4,0.7c-1.3,1.3-2.6,2.6-3.9,3.9c-0.4,0.4-0.9,0.4-1.2,0.1
			c-0.3-0.3-0.3-0.8,0.1-1.2c1.3-1.3,2.6-2.6,3.9-3.9C40,8.9,40.3,8.8,40.6,9C40.8,9.1,41,9.4,41.2,9.6z"/>
		<path class="st0" d="M32,11.1c-0.7,0-1.1-0.5-0.9-1c0-0.1,0.1-0.3,0.2-0.4c0.9-1.6,1.7-3.1,2.6-4.7c0.1-0.3,0.5-0.5,0.7-0.6
			c0.6-0.1,1,0.5,0.8,1.1c-0.3,0.6-0.6,1.1-0.9,1.6c-0.6,1.1-1.2,2.2-1.8,3.3C32.4,10.8,32.1,10.9,32,11.1z"/>
		<path class="st0" d="M39.6,19.1c-0.2-0.2-0.5-0.3-0.6-0.6c-0.1-0.2,0-0.6,0.2-0.8c0.1-0.1,0.3-0.2,0.4-0.3c1.5-0.8,3-1.7,4.6-2.5
			c0.1-0.1,0.3-0.2,0.4-0.2c0.4-0.1,0.7,0,0.9,0.4c0.2,0.3,0.1,0.7-0.2,0.9c-0.1,0.1-0.2,0.2-0.4,0.3c-1.5,0.9-3.1,1.7-4.6,2.6
			C40.1,18.9,39.9,18.9,39.6,19.1z"/>
		<path class="st0" d="M15.9,28c-0.4,0-0.8-0.5-0.7-1c0-0.1,0.1-0.2,0.1-0.3c1.3-2.4,2.5-4.7,3.8-7.1c0-0.1,0.1-0.1,0.1-0.2
			c0.3-0.3,0.6-0.4,1-0.3c0.4,0.2,0.5,0.6,0.4,1c0,0.1-0.1,0.2-0.1,0.3c-1.2,2.3-2.5,4.6-3.7,7C16.6,27.8,16.4,28,15.9,28z"/>
		<path class="st0" d="M21.2,18.4c-0.6,0-1.1-0.5-0.9-1c0.4-0.9,0.8-1.7,1.3-2.6c0.2-0.4,0.6-0.4,1-0.2c0.4,0.2,0.5,0.5,0.4,0.9
			c-0.4,0.9-0.8,1.7-1.3,2.5C21.6,18.3,21.3,18.4,21.2,18.4z"/>
	</g>
</g>
</svg>
