<?xml version="1.0" encoding="utf-8"?>
<!-- Generator: Adobe Illustrator 24.0.2, SVG Export Plug-In . SVG Version: 6.00 Build 0)  -->
<svg version="1.1" id="Capa_1" xmlns="http://www.w3.org/2000/svg" xmlns:xlink="http://www.w3.org/1999/xlink" x="0px" y="0px"
	 viewBox="0 0 50 50" style="enable-background:new 0 0 50 50;" xml:space="preserve">
<style type="text/css">
	.st0{fill:#FFFFFF;}
</style>
<g>
	<path class="st0" d="M40.2,36.9c-1.4,0-2.6-1.2-2.6-2.6V20c0-1.4,1.2-2.6,2.6-2.6c3.6,0,6.5,2.9,6.5,6.5v6.5
		C46.6,34,43.7,36.9,40.2,36.9z M40.2,18.6c-0.8,0-1.5,0.7-1.5,1.5v14.3c0,0.8,0.7,1.5,1.5,1.5c3,0,5.4-2.4,5.4-5.4v-6.5
		C45.5,21,43.1,18.6,40.2,18.6z"/>
	<path class="st0" d="M9.7,36.9c-3.5,0-6.3-2.8-6.3-6.3v-6.8c0-3.5,2.8-6.3,6.3-6.3c1.5,0,2.8,1.2,2.8,2.8v13.9
		C12.4,35.6,11.2,36.9,9.7,36.9z M9.7,18.6c-2.9,0-5.2,2.3-5.2,5.2v6.8c0,2.9,2.3,5.2,5.2,5.2c0.9,0,1.6-0.7,1.6-1.6V20.2
		C11.3,19.3,10.6,18.6,9.7,18.6z"/>
	<path class="st0" d="M42.7,18h-1.1c0-5-1.8-9.1-5.2-12c-3-2.6-7.1-4-11.4-4C17,2,8.4,7,8.4,18H7.3C7.3,6.2,16.5,0.8,25,0.8
		C33.5,0.8,42.7,6.2,42.7,18z"/>
	<path class="st0" d="M36.8,9.9c-1.1,0-2.2-0.4-3-1.3c-4.6-4.6-13.2-4.5-18,0C14.4,9.9,12.3,10,10.7,9l-0.2-0.2l0.6-0.9L11.3,8
		C12.5,8.8,14,8.7,15,7.8c5.3-5,14.6-4.9,19.6,0c1,1,2.4,1.2,3.6,0.6L39,7.9l0.5,1l-0.8,0.5C38.1,9.7,37.5,9.9,36.8,9.9z"/>
	<path class="st0" d="M46.1,33c-3.2,0-5.8-2.6-5.8-5.8c0-3.2,2.6-5.8,5.8-5.8v1.1c-2.6,0-4.7,2.1-4.7,4.7s2.1,4.7,4.7,4.7V33z"/>
	<path class="st0" d="M3.9,33v-1.1c2.6,0,4.7-2.1,4.7-4.7s-2.1-4.7-4.7-4.7v-1.1c3.2,0,5.8,2.6,5.8,5.8C9.7,30.4,7.1,33,3.9,33z"/>
	<path class="st0" d="M33.3,47.2h-1.4V46h1.4c4.2,0,7.5-3.4,7.5-7.5v-2.2h1.1v2.2C41.9,43.3,38,47.2,33.3,47.2z"/>
	<path class="st0" d="M29.7,49.2h-6.5c-1.4,0-2.6-1.2-2.6-2.6c0-1.4,1.2-2.6,2.6-2.6h6.5c1.4,0,2.6,1.2,2.6,2.6
		C32.4,48,31.2,49.2,29.7,49.2z M23.3,45.1c-0.8,0-1.5,0.7-1.5,1.5s0.7,1.5,1.5,1.5h6.5c0.8,0,1.5-0.7,1.5-1.5s-0.7-1.5-1.5-1.5
		H23.3z"/>
	<path class="st0" d="M28,19.6h-5.3v-5.3H28V19.6z M23.8,18.5h3v-3h-3V18.5z"/>
	<path class="st0" d="M28.1,35.8h-5.3v-9.6h-2.9v-5.1h8.1V35.8z M23.9,34.6H27V22.2H21v2.9h2.9V34.6z"/>
</g>
</svg>
