<?xml version="1.0" encoding="utf-8"?>
<!-- Generator: Adobe Illustrator 24.0.2, SVG Export Plug-In . SVG Version: 6.00 Build 0)  -->
<svg version="1.1" id="Capa_1" xmlns="http://www.w3.org/2000/svg" xmlns:xlink="http://www.w3.org/1999/xlink" x="0px" y="0px"
	 viewBox="0 0 50 50" style="enable-background:new 0 0 50 50;" xml:space="preserve">
<style type="text/css">
	.st0{fill:#00A0D9;}
	.st1{fill:#FFFFFF;}
</style>
<circle class="st0" cx="25" cy="24.8" r="24.4"/>
<g>
	<g>
		<path class="st1" d="M39.4,19.9c0.7,0.9,0.6,2.2-0.3,2.9c-0.8,0.7-1.9,0.5-2.6-0.3c-2.9-3.6-7.1-5.7-11.5-5.7H25
			c-4.4,0-8.6,2.1-11.5,5.8c-0.6,0.8-1.8,1-2.6,0.3c-0.9-0.7-1-2.1-0.3-2.9c3.5-4.4,8.6-7.2,14.3-7.2h0.1c2.8,0,5.4,0.6,7.9,1.9
			c0.2,0.1,0.3,0.4,0.2,0.6c-0.1,0.2-0.4,0.3-0.6,0.2c-2.4-1.2-4.9-1.8-7.5-1.8H25c-5.2,0-10.2,2.5-13.6,6.9
			c-0.4,0.5-0.3,1.3,0.2,1.7c0.4,0.3,1,0.3,1.3-0.2C15.9,18.2,20.3,16,25,16h0.1c4.6,0,9.1,2.2,12.1,6c0.3,0.4,0.9,0.5,1.3,0.2
			c0.5-0.4,0.6-1.2,0.2-1.7c-1.3-1.6-2.8-2.9-4.4-4c-0.2-0.1-0.3-0.4-0.1-0.6c0.1-0.2,0.4-0.3,0.6-0.1C36.5,16.8,38,18.2,39.4,19.9
			L39.4,19.9z M39.4,19.9"/>
	</g>
	<path class="st1" d="M34.6,23.6c0.8,0.9,0.7,2.3-0.2,3c-0.8,0.6-1.9,0.5-2.5-0.2c-1.8-2.1-4.2-3.2-6.8-3.2c0,0,0,0,0,0
		c-2.6,0-5,1.2-6.8,3.3c-0.7,0.8-1.8,0.9-2.5,0.3l0,0c-0.9-0.7-1-2.1-0.2-3c2.4-2.8,5.8-4.6,9.6-4.6C28.8,19.1,32.2,20.9,34.6,23.6
		L34.6,23.6z M33.9,26c0.5-0.4,0.6-1.3,0.1-1.8c-2.4-2.7-5.5-4.2-8.9-4.2c0,0,0,0-0.1,0c-3.4,0-6.6,1.5-8.9,4.3
		c-0.2,0.2-0.3,0.6-0.3,0.9c0,0.3,0.2,0.6,0.4,0.8c0,0,0,0,0,0l0,0c0.4,0.3,1,0.3,1.3-0.1c2-2.3,4.6-3.5,7.5-3.6h0
		c2.8,0,5.5,1.2,7.5,3.5C32.9,26.3,33.5,26.3,33.9,26L33.9,26z M33.9,26"/>
	<path class="st1" d="M29.7,27.4c0.4,0.4,0.7,1,0.7,1.6c0,0.6-0.3,1.2-0.7,1.6c-0.7,0.6-1.7,0.5-2.3,0c-0.4-0.3-0.8-0.6-1.3-0.7
		c-0.2-0.1-0.4-0.3-0.3-0.5c0.1-0.2,0.3-0.4,0.5-0.3c0.6,0.2,1.1,0.5,1.6,0.9c0.4,0.3,0.8,0.3,1.2,0c0.6-0.5,0.6-1.4,0-1.9
		c-1.2-1-2.6-1.6-4.1-1.6h0c-1.5,0-2.9,0.6-4.1,1.6c-0.5,0.5-0.5,1.4,0.1,1.9c0.4,0.3,0.9,0.3,1.2,0c0.5-0.5,1.2-0.8,1.9-1
		c0.2-0.1,0.5,0.1,0.5,0.3c0.1,0.2-0.1,0.5-0.3,0.5c-0.5,0.1-1.1,0.4-1.5,0.8c-0.7,0.6-1.6,0.6-2.3,0.1c-1-0.8-1-2.4-0.1-3.2
		c1.3-1.2,3-1.8,4.7-1.8h0C26.7,25.6,28.4,26.2,29.7,27.4L29.7,27.4z M29.7,27.4"/>
	<path class="st1" d="M25,32.4c1.2,0,2.2,1,2.2,2.3c0,1.2-1,2.3-2.2,2.3c-1.2,0-2.2-1-2.2-2.3C22.8,33.4,23.8,32.4,25,32.4L25,32.4z
		 M26.4,34.6c0-0.8-0.6-1.4-1.4-1.4c-0.8,0-1.4,0.6-1.4,1.4c0,0.8,0.6,1.4,1.4,1.4C25.8,36,26.4,35.4,26.4,34.6L26.4,34.6z
		 M26.4,34.6"/>
</g>
</svg>
