<svg id="Capa_1" data-name="Capa 1" xmlns="http://www.w3.org/2000/svg" viewBox="0 0 48.8 48.8"><defs><style>.cls-1{fill:#ba007c;}.cls-2{fill:#fff;}</style></defs><title>icono Tener una aplicación para mostrar información y avisos</title><circle class="cls-1" cx="24.4" cy="24.4" r="24.4"/><path class="cls-2" d="M24.52,35.58a2.47,2.47,0,0,1-1.39-.81c-.31-.32-.64-.61-.95-.92a.75.75,0,0,0-.72-.23c-.54.09-1.07.16-1.61.23a1.89,1.89,0,0,1-2.23-1.7c-.08-.51-.18-1-.26-1.53a.79.79,0,0,0-.44-.6c-.49-.24-1-.5-1.45-.76a1.89,1.89,0,0,1-.85-2.6c.24-.49.48-1,.73-1.47a.76.76,0,0,0,0-.76c-.24-.48-.47-1-.71-1.45a1.89,1.89,0,0,1,.86-2.62l1.41-.75a.82.82,0,0,0,.47-.65c.08-.54.17-1.08.28-1.61a1.88,1.88,0,0,1,2.27-1.57l1.6.24a.7.7,0,0,0,.63-.22l1.21-1.17a1.88,1.88,0,0,1,2.73,0l1.18,1.14A.76.76,0,0,0,28,16c.54-.08,1.07-.16,1.61-.22a1.88,1.88,0,0,1,2.21,1.65c.09.51.18,1,.26,1.53a.83.83,0,0,0,.46.65l1.4.74A1.9,1.9,0,0,1,34.81,23c-.23.46-.44.92-.68,1.37a.84.84,0,0,0,0,.84c.24.47.47.95.7,1.43a1.88,1.88,0,0,1-.84,2.6c-.48.25-1,.51-1.43.75a.8.8,0,0,0-.47.67c-.09.53-.18,1.06-.28,1.59a1.88,1.88,0,0,1-2.27,1.57l-1.6-.23a.7.7,0,0,0-.63.21c-.33.32-.67.63-1,1a2.45,2.45,0,0,1-1.38.81Zm5.36-2.94a.63.63,0,0,0,.69-.53c.1-.48.2-1,.26-1.44a2.15,2.15,0,0,1,1.32-1.85c.43-.2.83-.43,1.25-.66a.64.64,0,0,0,.31-1q-.35-.73-.72-1.47a1.92,1.92,0,0,1,0-1.83c.24-.48.47-1,.7-1.44a.66.66,0,0,0-.33-1l-1.45-.76a1.88,1.88,0,0,1-1-1.37c-.11-.58-.21-1.17-.32-1.75a.63.63,0,0,0-.77-.56l-1.6.23a2,2,0,0,1-1.82-.58c-.37-.37-.76-.73-1.14-1.1a.66.66,0,0,0-1.06,0L23,16.7a1.86,1.86,0,0,1-1.59.55L19.68,17a.65.65,0,0,0-.81.56c-.08.47-.19.92-.24,1.39a2.16,2.16,0,0,1-1.33,1.86c-.42.19-.82.43-1.23.65a.64.64,0,0,0-.32,1c.24.5.47,1,.72,1.48a1.93,1.93,0,0,1,0,1.81c-.24.48-.48,1-.71,1.45a.66.66,0,0,0,.33,1l1.43.76a2,2,0,0,1,1.07,1.51c.08.53.18,1.06.28,1.59a.65.65,0,0,0,.83.58l1.6-.23a2,2,0,0,1,1.78.6l1.11,1.08a.66.66,0,0,0,1.06,0c.37-.36.75-.71,1.11-1.07a2,2,0,0,1,1.91-.61C28.81,32.5,29.36,32.56,29.88,32.64Z" transform="translate(-0.33 -0.41)"/><path class="cls-2" d="M29.48,20.73c-.06.12-.11.25-.17.37s-.1.1-.14.15q-4,4-8,8a.76.76,0,0,1-.54.28.62.62,0,0,1-.55-.33.61.61,0,0,1,.06-.66c0-.06.1-.11.15-.17l8-8a.69.69,0,0,1,.54-.28A.67.67,0,0,1,29.48,20.73Z" transform="translate(-0.33 -0.41)"/><path class="cls-2" d="M22.23,23.77a2.28,2.28,0,1,1,0-4.55,2.31,2.31,0,0,1,2.26,2.3A2.28,2.28,0,0,1,22.23,23.77Zm0-3.3a1,1,0,0,0-1,1,1,1,0,1,0,2.07,0A1,1,0,0,0,22.25,20.47Z" transform="translate(-0.33 -0.41)"/><path class="cls-2" d="M27.22,25.85a2.28,2.28,0,1,1-2.28,2.27A2.27,2.27,0,0,1,27.22,25.85Zm0,3.3a1,1,0,0,0,1.05-1,1.05,1.05,0,0,0-1-1.05,1,1,0,0,0-1,1A1,1,0,0,0,27.2,29.15Z" transform="translate(-0.33 -0.41)"/></svg>