<?xml version="1.0" encoding="utf-8"?>
<!-- Generator: Adobe Illustrator 24.0.2, SVG Export Plug-In . SVG Version: 6.00 Build 0)  -->
<svg version="1.1" id="Capa_1" xmlns="http://www.w3.org/2000/svg" xmlns:xlink="http://www.w3.org/1999/xlink" x="0px" y="0px"
	 viewBox="0 0 50 50" style="enable-background:new 0 0 50 50;" xml:space="preserve">
<style type="text/css">
	.st0{fill:#FFFFFF;}
</style>
<g>
	<g>
		<path class="st0" d="M1.5,42c0.2-1,0.9-1.8,1.5-2.5c7.3-8.3,14.7-16.5,22-24.8c0.1-0.1,0.2-0.2,0.3-0.3c-0.7-0.9-0.7-1.3,0.1-1.6
			c0.2-0.9,0.2-1.9,0.5-2.8c0.3-1,0.8-2,1.2-3c0.1-0.2,0.1-0.5,0.1-0.7c0.1-0.3,0-0.7,0.2-1c0.3-0.4,0.7-0.8,1.1-1.1
			C28.8,4,29.2,4,29.4,4.3c0.3,0.3,0.3,0.6,0,0.9c-0.2,0.3-0.6,0.5-0.8,0.7c5.3,5.3,10.5,10.5,15.7,15.7c0.6-0.6,1.3-1.3,2-2
			c-0.1-0.1-0.2-0.1-0.4-0.2c-5-5-10-10-15-15c-0.2-0.2-0.3-0.3-0.4-0.5c-0.2-0.4,0.1-0.9,0.6-1c0.2,0,0.5-0.1,0.6-0.2
			c7.4-4,16.5,0.8,17.3,9.2c0.2,2.4-0.2,4.6-1.3,6.7c-0.1,0.2-0.2,0.4-0.1,0.7c0.2,0.5,0.1,1-0.3,1.4c-0.7,0.7-1.3,1.3-2,2
			c-0.4,0.4-0.8,0.5-1.3,0.3c-0.1,0-0.3,0-0.4,0c-1.8,1.1-3.8,1.7-5.9,1.8c-0.3,0.9-0.8,1-1.5,0.3c-3.1-3.1-6.3-6.3-9.4-9.4
			c-0.1-0.1-0.2-0.3-0.3-0.4c-0.1,0-0.1,0-0.2,0c-0.1,0.1-0.1,0.3-0.2,0.4C18.6,24.1,11,32.6,3.5,41c-0.8,0.9-0.8,2.1,0.1,3
			c0.9,0.9,1.8,1.8,2.7,2.7c1,0.9,2.1,1,3.1,0.1c5.7-5.1,11.5-10.2,17.2-15.3c2.2-2,4.5-4,6.7-6c0.3-0.3,0.6-0.4,0.9-0.2
			c0.2,0.2,0.3,0.5,0.3,0.8c0,0.2-0.2,0.4-0.4,0.5c-3.2,2.9-6.4,5.7-9.7,8.6c-4.6,4-9.1,8.1-13.6,12.1c-0.7,0.7-1.5,1.3-2.5,1.5
			c-0.4,0-0.7,0-1.1,0c-1-0.3-1.8-0.9-2.5-1.7c-0.5-0.5-0.9-1-1.4-1.4c-0.8-0.7-1.5-1.5-1.8-2.6C1.5,42.7,1.5,42.3,1.5,42z
			 M32.6,3.9c4.7,4.7,9.3,9.3,14,14c2.1-3.7,1.5-8.7-1.9-12.1C41.2,2.2,36,1.9,32.6,3.9z M42.6,22c-4.7-4.7-9.5-9.4-14.2-14.2
			c0,0-0.1,0-0.1,0.1c-1,1.8-1.5,3.8-1.3,5.9c0,0.1,0.1,0.3,0.2,0.4c3,3,6,6,9,9c0.1,0.1,0.3,0.2,0.5,0.2c1-0.1,2-0.1,2.9-0.2
			C40.7,23,41.7,22.6,42.6,22z"/>
		<path class="st0" d="M23.4,29.7c-1.1-0.1-2-0.6-2.5-1.7c-0.5-1.1-0.3-2.1,0.5-3c1.3-1.4,2.6-2.7,3.9-3.9c1.1-1,2.8-0.9,3.8,0.1
			c1,1.1,1.1,2.7,0.1,3.8c-0.7,0.8-1.5,1.5-2.2,2.2c-0.5,0.5-1,1-1.5,1.5C24.9,29.4,24.3,29.7,23.4,29.7z M23.6,28.3
			c0.2-0.1,0.5-0.2,0.8-0.4c1.3-1.2,2.6-2.5,3.8-3.8c0.5-0.5,0.5-1.4,0-1.9c-0.5-0.5-1.3-0.6-1.9-0.1c-1.3,1.3-2.6,2.5-3.8,3.8
			c-0.4,0.4-0.5,1-0.2,1.5C22.5,28,22.9,28.3,23.6,28.3z"/>
	</g>
</g>
</svg>
