<?xml version="1.0" encoding="utf-8"?>
<!-- Generator: Adobe Illustrator 24.0.2, SVG Export Plug-In . SVG Version: 6.00 Build 0)  -->
<svg version="1.1" id="Capa_1" xmlns="http://www.w3.org/2000/svg" xmlns:xlink="http://www.w3.org/1999/xlink" x="0px" y="0px"
	 viewBox="0 0 50 50" style="enable-background:new 0 0 50 50;" xml:space="preserve">
<style type="text/css">
	.st0{fill:#00A0D9;}
	.st1{fill:#FFFFFF;}
</style>
<circle class="st0" cx="25.1" cy="24.6" r="24.4"/>
<g>
	<g>
		<path class="st1" d="M10.2,37.9c0.9-2.2,1.8-4.3,2.7-6.5c0.1-0.2,0.2-0.3,0.3-0.5c6.8-6.8,13.6-13.7,20.5-20.5
			c1.1-1.1,2.3-1.1,3.4,0c0.7,0.7,1.5,1.5,2.2,2.2c1,1,1,2.3,0,3.3c-6.9,6.9-13.7,13.7-20.6,20.6c-0.1,0.1-0.2,0.2-0.4,0.2
			c-2.1,0.9-4.2,1.7-6.3,2.6c-0.1,0-0.2,0.1-0.3,0.1c-0.2,0-0.3,0-0.5,0c-0.5-0.2-0.9-0.5-1-1C10.2,38.2,10.2,38.1,10.2,37.9z
			 M29.8,15.6c-5.3,5.3-10.5,10.5-15.7,15.7c0.6,0.6,1.2,1.2,1.8,1.8c0-0.1,0.1-0.1,0.2-0.2c2.3-2.3,4.6-4.6,6.9-6.9
			c0.3-0.3,0.6-0.4,0.8-0.2c0.2,0.2,0.2,0.5-0.2,0.8c-2.3,2.3-4.6,4.6-6.9,6.9c-0.1,0.1-0.2,0.2-0.2,0.2c0.6,0.6,1.2,1.2,1.8,1.8
			c5.2-5.2,10.5-10.5,15.7-15.7c-0.6-0.6-1.2-1.2-1.8-1.8c0,0.1-0.1,0.1-0.2,0.2c-2.3,2.3-4.6,4.6-6.9,6.9c-0.1,0.1-0.2,0.2-0.3,0.2
			c-0.2,0.1-0.4,0.1-0.5,0c-0.2-0.2-0.2-0.4-0.1-0.6c0.1-0.1,0.1-0.2,0.2-0.2c2.3-2.3,4.6-4.6,6.9-6.9c0.1-0.1,0.2-0.2,0.2-0.2
			C31,16.8,30.4,16.2,29.8,15.6z M36.6,17.3c0.7-0.7,1.5-1.4,2.2-2.2c0.5-0.5,0.4-1.3-0.1-1.8c-0.8-0.8-1.6-1.6-2.4-2.4
			c-0.6-0.6-1.3-0.6-1.9,0c-0.3,0.3-0.5,0.5-0.8,0.8c-0.4,0.4-0.9,0.9-1.3,1.3C33.8,14.5,35.2,15.9,36.6,17.3z M17.4,36.2
			c-1.3-1.3-2.6-2.6-4-4c-0.4,1.1-0.9,2.2-1.3,3.3c0,0.1,0,0.2,0.1,0.2c0.6,0.6,1.1,1.1,1.7,1.7c0.1,0.1,0.2,0.1,0.3,0.1
			c0.5-0.2,1.1-0.4,1.6-0.6C16.4,36.6,16.9,36.4,17.4,36.2z M31.7,13.8c-0.4,0.4-0.8,0.8-1.1,1.1c1.4,1.4,2.8,2.8,4.3,4.3
			c0.4-0.4,0.8-0.8,1.1-1.1C34.5,16.6,33.1,15.2,31.7,13.8z M11.7,36.5c-0.2,0.5-0.4,1-0.6,1.5c-0.1,0.3,0.2,0.7,0.5,0.6
			c0.5-0.2,1-0.4,1.5-0.6C12.6,37.5,12.2,37,11.7,36.5z"/>
	</g>
</g>
</svg>
