<?xml version="1.0" encoding="utf-8"?>
<!-- Generator: Adobe Illustrator 24.0.2, SVG Export Plug-In . SVG Version: 6.00 Build 0)  -->
<svg version="1.1" id="Capa_1" xmlns="http://www.w3.org/2000/svg" xmlns:xlink="http://www.w3.org/1999/xlink" x="0px" y="0px"
	 viewBox="0 0 50 50" style="enable-background:new 0 0 50 50;" xml:space="preserve">
<style type="text/css">
	.st0{fill:#00A0D9;}
	.st1{fill:#FFFFFF;}
</style>
<circle class="st0" cx="24.8" cy="24.9" r="24.4"/>
<g>
	<g>
		<path class="st1" d="M12.5,14.8c0-0.1,0.1-0.3,0.1-0.4c0.3-1,1.3-1.8,2.4-1.8c1.4,0,2.7,0,4.1,0c0.3,0,0.6,0.2,0.6,0.5
			c0,0.3-0.2,0.5-0.6,0.5c-1.3,0-2.6,0-3.8,0c-1.1,0-1.7,0.6-1.7,1.7c0,1.3,0,2.6,0,3.8c0,0.4-0.3,0.7-0.6,0.6
			c-0.1-0.1-0.3-0.2-0.4-0.3C12.5,17.8,12.5,16.3,12.5,14.8z"/>
		<path class="st1" d="M12.5,30.3C12.5,30.3,12.5,30.3,12.5,30.3c0.2-0.3,0.4-0.4,0.7-0.3c0.2,0.1,0.4,0.3,0.4,0.6
			c0,1.2,0,2.4,0,3.6c0,0.1,0,0.2,0,0.3c0,0.9,0.7,1.6,1.6,1.6c1.3,0,2.6,0,4,0c0.4,0,0.7,0.3,0.6,0.6c-0.1,0.1-0.2,0.3-0.3,0.4
			c-1.5,0-3.1,0-4.6,0c-0.1,0-0.1,0-0.2-0.1c-1-0.2-1.6-0.8-1.9-1.7c0-0.1-0.1-0.3-0.1-0.4C12.5,33.4,12.5,31.9,12.5,30.3z"/>
		<path class="st1" d="M30.3,37.2c0,0-0.1-0.1-0.1-0.1c-0.2-0.1-0.3-0.3-0.2-0.6c0.1-0.2,0.2-0.3,0.5-0.3c0.5,0,1,0,1.6,0
			c0.8,0,1.6,0,2.5,0c1,0,1.6-0.7,1.7-1.7c0-1.3,0-2.6,0-3.9c0-0.3,0.1-0.5,0.4-0.6c0.3-0.1,0.6,0.2,0.6,0.6c0,1.1,0,2.3,0,3.4
			c0,0.4,0,0.8-0.1,1.2c-0.2,1.1-0.9,1.7-2,2c-0.1,0-0.1,0-0.2,0.1C33.4,37.2,31.8,37.2,30.3,37.2z"/>
		<path class="st1" d="M17.6,27.9c-0.5,0-1,0-1.4,0c-0.4,0-0.6-0.2-0.6-0.5c0-0.3,0.2-0.5,0.6-0.5c4.9,0,9.9,0,14.8,0
			c0.8,0,1.6,0,2.5,0c0.3,0,0.5,0.2,0.6,0.5c0,0.3-0.2,0.6-0.5,0.6c-0.5,0-0.9,0-1.4,0c0,0-0.1,0-0.1,0c0,0.1,0,0.2,0,0.3
			c0,0.7,0,1.5,0,2.2c0,1-0.6,1.6-1.6,1.6c-3.7,0-7.4,0-11.2,0c-1,0-1.6-0.6-1.6-1.6c0-0.7,0-1.5,0-2.2
			C17.6,28.1,17.6,28.1,17.6,27.9z M31,28c-4.1,0-8.2,0-12.3,0c0,0.8,0,1.6,0,2.4c0,0.5,0.2,0.7,0.7,0.7c3.6,0,7.3,0,10.9,0
			c0.1,0,0.1,0,0.2,0c0.3,0,0.5-0.2,0.5-0.5C31,29.7,31,28.8,31,28z"/>
		<path class="st1" d="M24.8,17.7c1.9,0,3.7,0,5.6,0c0.8,0,1.4,0.5,1.6,1.2c0,0.1,0,0.2,0,0.4c0,1.3,0,2.7,0,4
			c0,0.4-0.4,0.7-0.7,0.5C31,23.7,31,23.5,31,23.2c0-1,0-1.9,0-2.9c0-0.4,0-0.7,0-1.1c0-0.4-0.2-0.6-0.6-0.6c-3.7,0-7.5,0-11.2,0
			c-0.4,0-0.6,0.2-0.6,0.6c0,1.3,0,2.6,0,3.9c0,0.4-0.2,0.6-0.5,0.6c-0.3,0-0.5-0.2-0.5-0.6c0-0.9,0-1.7,0-2.6c0-0.5,0-0.9,0-1.4
			c0-1,0.6-1.6,1.6-1.6C21.1,17.7,23,17.7,24.8,17.7z"/>
		<path class="st1" d="M37.1,17.1c0,0.7,0,1.4,0,2.1c0,0.4-0.3,0.6-0.6,0.5c-0.3,0-0.4-0.2-0.4-0.6c0-0.8,0-1.6,0-2.5
			c0-0.5,0-1,0-1.5c0-1-0.7-1.6-1.6-1.6c-1.3,0-2.6,0-3.9,0c-0.3,0-0.6-0.2-0.6-0.4c0-0.3,0.2-0.6,0.5-0.6c0.6,0,1.2,0,1.8,0
			c0.7,0,1.5,0,2.2,0c1.5,0,2.6,1.1,2.6,2.6C37.1,15.8,37.1,16.4,37.1,17.1z"/>
	</g>
</g>
</svg>
