<?xml version="1.0" encoding="utf-8"?>
<!-- Generator: Adobe Illustrator 24.0.2, SVG Export Plug-In . SVG Version: 6.00 Build 0)  -->
<svg version="1.1" id="Capa_1" xmlns="http://www.w3.org/2000/svg" xmlns:xlink="http://www.w3.org/1999/xlink" x="0px" y="0px"
	 viewBox="0 0 50 50" style="enable-background:new 0 0 50 50;" xml:space="preserve">
<style type="text/css">
	.st0{fill:#FFFFFF;}
</style>
<g>
	<path class="st0" d="M5.7,31.7c-0.2,0-0.3-0.1-0.4-0.2C5,31.4,4.9,31.1,5,30.8l1.4-4.7C3.9,25.6,2,23.4,2,20.7V9.2
		c0-3,2.4-5.4,5.4-5.4h20c3,0,5.4,2.4,5.4,5.4v11.5c0,3-2.4,5.4-5.4,5.4H15.2l-9.1,5.5C6,31.7,5.9,31.7,5.7,31.7z M7.4,5.3
		c-2.2,0-4,1.8-4,4v11.5c0,2.2,1.8,4,4,4c0.2,0,0.5,0.1,0.6,0.3c0.1,0.2,0.2,0.4,0.1,0.6L7,29.4l7.6-4.6c0.1-0.1,0.2-0.1,0.4-0.1
		h12.4c2.2,0,4-1.8,4-4V9.2c0-2.2-1.8-4-4-4H7.4z"/>
	<path class="st0" d="M17.4,17.9c-1.5,0-2.7-1.2-2.7-2.7c0-1.5,1.2-2.7,2.7-2.7c1.5,0,2.7,1.2,2.7,2.7
		C20.1,16.7,18.9,17.9,17.4,17.9z M17.4,13.9c-0.7,0-1.3,0.6-1.3,1.3c0,0.7,0.6,1.3,1.3,1.3c0.7,0,1.3-0.6,1.3-1.3
		C18.7,14.5,18.1,13.9,17.4,13.9z"/>
	<path class="st0" d="M25.1,17.9c-1.5,0-2.7-1.2-2.7-2.7c0-1.5,1.2-2.7,2.7-2.7c1.5,0,2.7,1.2,2.7,2.7
		C27.8,16.7,26.6,17.9,25.1,17.9z M25.1,13.9c-0.7,0-1.3,0.6-1.3,1.3c0,0.7,0.6,1.3,1.3,1.3c0.7,0,1.3-0.6,1.3-1.3
		C26.4,14.5,25.8,13.9,25.1,13.9z"/>
	<path class="st0" d="M9.7,17.9c-1.5,0-2.7-1.2-2.7-2.7c0-1.5,1.2-2.7,2.7-2.7c1.5,0,2.7,1.2,2.7,2.7C12.4,16.7,11.2,17.9,9.7,17.9z
		 M9.7,13.9c-0.7,0-1.3,0.6-1.3,1.3c0,0.7,0.6,1.3,1.3,1.3s1.3-0.6,1.3-1.3C11,14.5,10.4,13.9,9.7,13.9z"/>
	<path class="st0" d="M45.2,48.6c-0.1,0-0.3,0-0.4-0.1L35.7,43H23.5c-3,0-5.4-2.4-5.4-5.4v-9.2c0-0.4,0.3-0.7,0.7-0.7
		c0.4,0,0.7,0.3,0.7,0.7v9.2c0,2.2,1.8,4,4,4h12.4c0.1,0,0.3,0,0.4,0.1l7.6,4.6l-1.1-3.8c-0.1-0.2,0-0.5,0.1-0.6
		c0.1-0.2,0.4-0.3,0.6-0.3c2.2,0,4-1.8,4-4V26.1c0-2.2-1.8-4-4-4H35c-0.4,0-0.7-0.3-0.7-0.7c0-0.4,0.3-0.7,0.7-0.7h8.5
		c3,0,5.4,2.4,5.4,5.4v11.5c0,2.7-1.9,4.9-4.5,5.4l1.4,4.7c0.1,0.3,0,0.6-0.3,0.8C45.5,48.5,45.3,48.6,45.2,48.6z"/>
	<path class="st0" d="M33.5,34.8c-1.5,0-2.7-1.2-2.7-2.7c0-1.5,1.2-2.7,2.7-2.7c1.5,0,2.7,1.2,2.7,2.7C36.3,33.5,35,34.8,33.5,34.8z
		 M33.5,30.7c-0.7,0-1.3,0.6-1.3,1.3c0,0.7,0.6,1.3,1.3,1.3c0.7,0,1.3-0.6,1.3-1.3C34.8,31.3,34.2,30.7,33.5,30.7z"/>
	<path class="st0" d="M25.8,34.8c-1.5,0-2.7-1.2-2.7-2.7c0-1.5,1.2-2.7,2.7-2.7c1.5,0,2.7,1.2,2.7,2.7
		C28.5,33.5,27.3,34.8,25.8,34.8z M25.8,30.7c-0.7,0-1.3,0.6-1.3,1.3c0,0.7,0.6,1.3,1.3,1.3s1.3-0.6,1.3-1.3
		C27.1,31.3,26.5,30.7,25.8,30.7z"/>
	<path class="st0" d="M41.2,34.8c-1.5,0-2.7-1.2-2.7-2.7c0-1.5,1.2-2.7,2.7-2.7c1.5,0,2.7,1.2,2.7,2.7C44,33.5,42.7,34.8,41.2,34.8z
		 M41.2,30.7c-0.7,0-1.3,0.6-1.3,1.3c0,0.7,0.6,1.3,1.3,1.3s1.3-0.6,1.3-1.3C42.5,31.3,41.9,30.7,41.2,30.7z"/>
</g>
</svg>
