<?xml version="1.0" encoding="utf-8"?>
<!-- Generator: Adobe Illustrator 24.0.2, SVG Export Plug-In . SVG Version: 6.00 Build 0)  -->
<svg version="1.1" id="Capa_1" xmlns="http://www.w3.org/2000/svg" xmlns:xlink="http://www.w3.org/1999/xlink" x="0px" y="0px"
	 viewBox="0 0 50 50" style="enable-background:new 0 0 50 50;" xml:space="preserve">
<style type="text/css">
	.st0{fill:#FFFFFF;}
</style>
<path class="st0" d="M46.3,47.7c0.2-0.2,0.3-0.6,0.2-0.9l-8-36.8c-0.1-0.5-0.5-0.8-1-0.8h-4.9c0-2.3-0.9-4.4-2.6-6.1
	c-1.7-1.7-3.8-2.6-6.2-2.6c-4.8,0-8.7,3.9-8.7,8.6h-4.9c-0.5,0-0.9,0.3-1,0.8l-8,36.8c-0.1,0.3,0,0.6,0.2,0.9
	c0.2,0.2,0.5,0.4,0.8,0.4h43.2C45.8,48.1,46.1,47.9,46.3,47.7z M23.8,2.6c1.8,0,3.5,0.7,4.7,2c1.2,1.2,1.9,2.9,2,4.6H17.2
	C17.2,5.6,20.2,2.6,23.8,2.6z M3.5,46L11,11.3h4.1v2.1c-0.6,0.4-1,1-1,1.7c0,1.1,0.9,2,2,2c1.1,0,2-0.9,2-2c0-0.7-0.4-1.4-1-1.7
	v-2.1h13.4v2.1c-0.6,0.4-1,1-1,1.7c0,1.1,0.9,2,2,2c1.1,0,2-0.9,2-2c0-0.7-0.4-1.4-1-1.7v-2.1h4.1L44.2,46H3.5z"/>
</svg>
