<?xml version="1.0" encoding="utf-8"?>
<!-- Generator: Adobe Illustrator 24.0.2, SVG Export Plug-In . SVG Version: 6.00 Build 0)  -->
<svg version="1.1" id="Capa_1" xmlns="http://www.w3.org/2000/svg" xmlns:xlink="http://www.w3.org/1999/xlink" x="0px" y="0px"
	 viewBox="0 0 50 50" style="enable-background:new 0 0 50 50;" xml:space="preserve">
<style type="text/css">
	.st0{fill:#FFFFFF;}
</style>
<g>
	<path class="st0" d="M48,30c-0.2-0.5-0.8-0.7-1.3-0.5c-0.5,0.2-0.7,0.8-0.5,1.3c0.7,1.5,1,3,1,4.7c0,6.1-5,11.1-11.1,11.1
		s-11.1-5-11.1-11.1s5-11.1,11.1-11.1c1.6,0,3.2,0.3,4.7,1c0.5,0.2,1,0,1.3-0.5c0.2-0.5,0-1-0.5-1.3c-1.7-0.8-3.5-1.2-5.5-1.2
		c-4.6,0-8.7,2.4-11,6h-4.5c3.8-2.3,6.3-6.4,6.3-11.1c0-7.2-5.8-13-13-13s-13,5.8-13,13c0,4.7,2.5,8.8,6.3,11.1H4.2
		c-0.5,0-0.9,0.4-0.9,0.9v5.1H1.9c-0.5,0-0.9,0.4-0.9,0.9v6c0,0.5,0.4,0.9,0.9,0.9h1.3v5.1c0,0.5,0.4,0.9,0.9,0.9h24.1
		c0.5,0,0.9-0.4,0.9-0.9v-1.1c2,1.3,4.4,2,7,2c7.2,0,13-5.8,13-13C49.2,33.6,48.8,31.7,48,30L48,30z M2.8,17.4
		c0-6.1,5-11.1,11.1-11.1s11.1,5,11.1,11.1s-5,11.1-11.1,11.1S2.8,23.5,2.8,17.4L2.8,17.4z M5.1,30.4h19.1c-0.6,1.3-0.9,2.7-1,4.1
		H5.1V30.4z M2.8,36.4h20.4c0.1,1.5,0.5,2.9,1,4.1H2.8V36.4z M27.4,46.6H5.1v-4.1h20.1c0.6,0.9,1.3,1.8,2.1,2.5V46.6z M27.4,46.6"/>
	<path class="st0" d="M44.7,27.9c0.2,0,0.5-0.1,0.7-0.3c0.2-0.2,0.3-0.4,0.3-0.7c0-0.2-0.1-0.5-0.3-0.7C45.2,26.1,45,26,44.7,26
		c-0.2,0-0.5,0.1-0.7,0.3c-0.2,0.2-0.3,0.4-0.3,0.7c0,0.2,0.1,0.5,0.3,0.7C44.3,27.8,44.5,27.9,44.7,27.9L44.7,27.9z M44.7,27.9"/>
	<path class="st0" d="M36.2,44c0.5,0,0.9-0.4,0.9-0.9v-0.9c1.8-0.4,2.9-1.9,3.1-3.4c0.3-1.9-0.7-3.6-2.6-4.2
		c-0.2-0.1-0.4-0.1-0.6-0.2v-3.7C37.7,30.7,38,31,38,31c0.4,0.3,1,0.2,1.3-0.2c0.3-0.4,0.2-1-0.2-1.3c-0.1,0-0.8-0.6-2-0.9v-0.8
		c0-0.5-0.4-0.9-0.9-0.9s-0.9,0.4-0.9,0.9v0.8c-0.1,0-0.3,0.1-0.4,0.1c-1.2,0.4-2.2,1.4-2.4,2.8c-0.2,1.2,0.2,2.4,1,3.1
		c0.4,0.4,1,0.7,1.8,1v4.8c-0.6-0.1-1-0.2-1.7-0.7c-0.4-0.3-1-0.2-1.3,0.3c-0.3,0.4-0.2,1,0.3,1.3c1.1,0.7,1.8,0.9,2.8,1v0.8
		C35.3,43.6,35.7,44,36.2,44L36.2,44z M38.4,38.4c-0.1,0.7-0.5,1.4-1.3,1.7v-3.9C38.6,36.8,38.5,38.1,38.4,38.4L38.4,38.4z
		 M34.7,33.1c-0.3-0.2-0.4-0.7-0.3-1.2c0.1-0.5,0.4-1,0.9-1.2v2.9C35,33.3,34.8,33.2,34.7,33.1L34.7,33.1z M34.7,33.1"/>
	<path class="st0" d="M15.5,16.4c-0.2-0.1-0.4-0.1-0.6-0.2v-3.7c0.5,0.2,0.8,0.4,0.8,0.4c0.4,0.3,1,0.2,1.3-0.2
		c0.3-0.4,0.2-1-0.2-1.3c-0.1,0-0.8-0.6-2-0.9V9.7c0-0.5-0.4-0.9-0.9-0.9c-0.5,0-0.9,0.4-0.9,0.9v0.8c-0.1,0-0.3,0.1-0.4,0.1
		c-1.2,0.4-2.2,1.4-2.4,2.8c-0.2,1.2,0.2,2.4,1,3.1c0.4,0.4,1,0.7,1.8,1v4.8c-0.6-0.1-1-0.2-1.7-0.7c-0.4-0.3-1-0.2-1.3,0.3
		c-0.3,0.4-0.2,1,0.3,1.3c1.1,0.7,1.8,0.9,2.8,1V25c0,0.5,0.4,0.9,0.9,0.9c0.5,0,0.9-0.4,0.9-0.9v-0.9c1.8-0.4,2.9-1.9,3.1-3.4
		C18.4,18.7,17.4,17.1,15.5,16.4L15.5,16.4z M12.4,15c-0.3-0.2-0.4-0.7-0.3-1.2c0.1-0.5,0.4-1,0.9-1.2v2.9
		C12.8,15.2,12.6,15.1,12.4,15L12.4,15z M16.2,20.3c-0.1,0.7-0.5,1.4-1.3,1.7v-3.9C16.3,18.7,16.3,20,16.2,20.3L16.2,20.3z
		 M16.2,20.3"/>
</g>
</svg>
