<svg id="Capa_1" data-name="Capa 1" xmlns="http://www.w3.org/2000/svg" viewBox="0 0 48.8 48.8"><defs><style>.cls-1{fill:#ba007c;}.cls-2{fill:#fff;}</style></defs><title>icono Experiencia de compra única visualizando</title><circle class="cls-1" cx="24.4" cy="24.4" r="24.4"/><path class="cls-2" d="M27.91,13.27a8.87,8.87,0,0,1,1.37.48,3.53,3.53,0,0,1,1.87,3.06c.12,2.16.23,4.32.35,6.48,0,.19.09.21.24.21q1.23,0,2.46,0a.89.89,0,0,1,1,1v.42c0,.66-.19.91-.85,1.08v4.49A1.27,1.27,0,0,1,33,31.94h-.28c0,.13,0,.23,0,.34,0,.36-.14.49-.49.51h-1l-.24,0v.54c0,1.34,0,2.67,0,4a1.27,1.27,0,0,1-1.41,1.37,1.17,1.17,0,0,1-1.1-1.06c-.05-.83,0-1.66,0-2.49V33c0-.06,0-.13,0-.21H21.64v4.55a1.28,1.28,0,0,1-1.93,1.2,1.1,1.1,0,0,1-.6-1c0-1.15,0-2.29,0-3.43V32.79h-1c-.59,0-.67-.09-.68-.67a1.62,1.62,0,0,0,0-.18H17.1a1.28,1.28,0,0,1-1.41-1.42V26c-.68-.2-.85-.43-.85-1.14,0-.19,0-.38,0-.57a.85.85,0,0,1,.89-.86h2.8a1.81,1.81,0,0,0,0-.23q.18-3.22.35-6.45A3.71,3.71,0,0,1,22,13.31l.12,0Zm3,14.42c-.05-.92-.1-1.82-.14-2.72-.15-2.7-.3-5.41-.44-8.11a2.82,2.82,0,0,0-2.68-2.73q-2.6-.06-5.19,0a2.74,2.74,0,0,0-2.62,2.42c-.13,1.34-.17,2.68-.25,4l-.33,6.13c0,.33,0,.65-.05,1Zm.9,4.23a.15.15,0,0,0,0-.06c0-.63,0-1.26,0-1.89a1.32,1.32,0,0,0-1.45-1.43H19.64a1.29,1.29,0,0,0-1.4,1.39c0,.46,0,.93,0,1.39v.6ZM31.65,26c0,.66.08,1.29.13,1.91a.37.37,0,0,0,.1.24A2.22,2.22,0,0,1,32.67,30c0,.34,0,.69,0,1,.69.09.85,0,.85-.69V26ZM17.39,31.08V29.9a2.15,2.15,0,0,1,.77-1.73.33.33,0,0,0,.12-.17c0-.66.09-1.32.13-2H16.54v4.51c0,.43.13.56.57.56ZM20,32.8c0,.1,0,.18,0,.26V34.9c0,.84,0,1.67,0,2.51a.42.42,0,0,0,.64.4.49.49,0,0,0,.2-.48V33c0-.07,0-.13,0-.21Zm9.34,0a1.83,1.83,0,0,0,0,.21v4.32a1.23,1.23,0,0,0,0,.2.4.4,0,0,0,.56.31c.25-.09.27-.29.27-.51V32.8ZM15.7,25.14h2.76v-.82H15.7Zm15.91,0h2.74v-.82H31.57Z" transform="translate(-0.63 -0.42)"/><path class="cls-2" d="M25,15h2.36a2,2,0,0,1,2,1.39,3.1,3.1,0,0,1,.08.42.43.43,0,0,1-.84.14,2.89,2.89,0,0,0-.34-.76,1,1,0,0,0-.85-.34H22.65a1.1,1.1,0,0,0-1.17,1c0,.22-.1.42-.38.44a.41.41,0,0,1-.48-.52,2,2,0,0,1,2-1.77C23.45,15,24.24,15,25,15Z" transform="translate(-0.63 -0.42)"/></svg>