<?xml version="1.0" encoding="utf-8"?>
<!-- Generator: Adobe Illustrator 24.0.2, SVG Export Plug-In . SVG Version: 6.00 Build 0)  -->
<svg version="1.1" id="Capa_1" xmlns="http://www.w3.org/2000/svg" xmlns:xlink="http://www.w3.org/1999/xlink" x="0px" y="0px"
	 viewBox="0 0 50 50" style="enable-background:new 0 0 50 50;" xml:space="preserve">
<style type="text/css">
	.st0{fill:#FFFFFF;}
</style>
<g>
	<g>
		<path class="st0" d="M49,15.8c0,0.4,0,0.8,0,1.1c0,0.2-0.1,0.3-0.1,0.5c-0.2,2.5-0.5,5-0.7,7.5c-0.3,3.2-0.6,6.5-0.9,9.7
			c-0.2,2.5-0.5,5-0.7,7.5c-0.1,1.8-1.8,3.1-3.7,2.9c-3.1-0.3-6.2-0.7-9.3-1c-4.3-0.5-8.6-1-12.9-1.5c-4.8-0.5-9.7-1.1-14.5-1.6
			c-1.3-0.1-2.4-0.8-2.7-2c-0.2-0.8-0.6-1.3-1.3-1.8c-0.7-0.4-1-1.2-1.2-1.9c0-8.9,0-17.8,0-26.6c0.8-2.2,1.6-2.7,4-2.7
			c10.3,0,20.7,0,31,0c1.6,0,3.3,0,4.9,0c1.1,0,2,0.4,2.7,1.3c0.5,0.6,0.6,1.4,0.6,2.2c0,1.2,0,2.3,0,3.6c0.5,0.1,1,0.1,1.5,0.2
			c1.2,0.1,2.2,0.6,2.8,1.7C48.7,15,48.8,15.4,49,15.8z M2.5,17.7c0,0.2,0,0.4,0,0.5c0,5.3,0,10.6,0,15.8c0,1.4,0.6,2,2,2
			c12,0,24.1,0,36.1,0c1.4,0,2-0.6,2-2c0-5.3,0-10.6,0-15.9c0-0.2,0-0.3,0-0.5C29.2,17.7,15.9,17.7,2.5,17.7z M4.8,37.7
			c0.2,0.9,0.6,1.4,1.5,1.5c1.2,0.1,2.4,0.3,3.5,0.4c3.2,0.4,6.4,0.7,9.6,1.1c3.2,0.4,6.4,0.7,9.6,1.1c2.9,0.3,5.8,0.7,8.8,1
			c1.7,0.2,3.5,0.4,5.2,0.6c1,0.1,1.8-0.5,1.9-1.5c0.1-0.7,0.1-1.5,0.2-2.2c0.3-3.2,0.6-6.4,0.9-9.6c0.3-2.9,0.5-5.7,0.8-8.6
			c0.2-1.8,0.3-3.5,0.5-5.3c0.1-0.9-0.4-1.6-1.2-1.7c-0.6-0.1-1.3-0.1-2-0.2c0,0.2,0,0.4,0,0.6c0,6.4,0,12.8,0,19.2
			c0,0.6-0.1,1.2-0.3,1.8c-0.6,1.3-1.7,1.8-3.2,1.8c-11.7,0-23.4,0-35.2,0C5.3,37.7,5.1,37.7,4.8,37.7z M42.5,11.4
			c-13.4,0-26.7,0-40,0c0,1.6,0,3.2,0,4.7c13.4,0,26.7,0,40,0C42.5,14.5,42.5,13,42.5,11.4z M42.5,9.7c0.2-1.6-0.5-2.4-2-2.4
			c-12,0-24,0-36.1,0C3,7.3,2.2,8.2,2.5,9.7C15.9,9.7,29.2,9.7,42.5,9.7z"/>
		<path class="st0" d="M32.9,32.9c-2,0-4.1,0-6.1,0c-0.9,0-1.1-0.2-1.1-1.1c0-2.2,0-4.4,0-6.6c0-0.8,0.3-1.1,1.1-1.1
			c4.1,0,8.2,0,12.3,0c0.8,0,1.1,0.3,1.1,1.1c0,2.2,0,4.5,0,6.7c0,0.8-0.3,1-1,1C37,32.9,35,32.9,32.9,32.9z M27.3,31.3
			c3.7,0,7.5,0,11.2,0c0-1.9,0-3.7,0-5.5c-3.7,0-7.4,0-11.2,0C27.3,27.6,27.3,29.4,27.3,31.3z"/>
		<path class="st0" d="M10.1,25.7c-1.7,0-3.3,0-5,0c-0.3,0-0.7,0-0.8-0.4c-0.3-0.5,0-1.1,0.5-1.2c0.2,0,0.3,0,0.5,0
			c3.2,0,6.4,0,9.7,0c0.1,0,0.2,0,0.3,0c0.5,0,0.8,0.3,0.8,0.8c0,0.5-0.3,0.8-0.9,0.8C13.5,25.7,11.8,25.7,10.1,25.7z"/>
		<path class="st0" d="M8.1,22.5c-1,0-2,0-3.1,0c-0.6,0-1-0.3-1-0.8c0-0.5,0.3-0.8,1-0.8c2,0,4,0,6.1,0c0.4,0,0.8,0.1,0.9,0.5
			c0.2,0.6-0.2,1-0.8,1C10.2,22.5,9.2,22.5,8.1,22.5C8.1,22.5,8.1,22.5,8.1,22.5z"/>
		<path class="st0" d="M17.7,22.5c-1,0-2,0-3,0c-0.6,0-0.9-0.3-1-0.8c0-0.5,0.3-0.8,1-0.8c2,0,4,0,6.1,0c0.6,0,1,0.3,1,0.8
			c0,0.5-0.3,0.8-1,0.8C19.7,22.5,18.7,22.5,17.7,22.5z"/>
		<path class="st0" d="M19.7,25.7c-0.4,0-0.8,0-1.2,0c-0.5,0-0.8-0.3-0.8-0.8c0-0.4,0.3-0.8,0.7-0.8c0.9,0,1.7,0,2.6,0
			c0.5,0,0.7,0.4,0.7,0.8c0,0.4-0.3,0.7-0.8,0.8c0,0-0.1,0-0.1,0C20.4,25.7,20.1,25.7,19.7,25.7C19.7,25.7,19.7,25.7,19.7,25.7z"/>
	</g>
</g>
</svg>
