<?xml version="1.0" encoding="utf-8"?>
<!-- Generator: Adobe Illustrator 24.0.2, SVG Export Plug-In . SVG Version: 6.00 Build 0)  -->
<svg version="1.1" id="Capa_1" xmlns="http://www.w3.org/2000/svg" xmlns:xlink="http://www.w3.org/1999/xlink" x="0px" y="0px"
	 viewBox="0 0 50 50" style="enable-background:new 0 0 50 50;" xml:space="preserve">
<style type="text/css">
	.st0{fill:#FFFFFF;}
</style>
<g>
	<g>
		<path class="st0" d="M0.7,27.4C0.8,27,0.9,26.5,1,26.1c1-3.8,4.4-6.5,8.3-6.6c0.4,0,0.8,0.1,1,0.4c1.8,1.8,3.5,3.5,5.3,5.3
			c0.1,0.1,0.2,0.3,0.3,0.4c0.2-0.2,0.3-0.3,0.5-0.4c1.7-1.7,3.5-3.5,5.2-5.2c0.3-0.4,0.7-0.5,1.2-0.5c1.9,0.1,3.7,0.7,5.2,2
			c0.1,0.1,0.3,0.2,0.3,0.3c0.8-0.5,1.5-1.1,2.3-1.5c1.2-0.7,2.5-0.8,3.9-0.7c0.2,0,0.5,0.2,0.7,0.4c0.8,0.8,1.6,1.7,2.4,2.6
			c0.8-0.8,1.6-1.5,2.3-2.3c0.5-0.5,1-0.7,1.7-0.7c3.2,0.1,5.9,1.9,7,4.9c0.3,0.8,0.4,1.6,0.4,2.5c0.1,2.2,0,4.5,0,6.7
			c0,1.2-0.5,2-1.6,2.4c-2.9,1.1-5.8,2.3-8.7,3.4c-0.6,0.2-1.3,0.2-1.9,0c-1.7-0.7-3.3-1.3-5-1.9c-0.1-0.1-0.3-0.1-0.5-0.2
			c0,0.5,0,0.9,0,1.3c0,1.1-0.5,1.9-1.5,2.3c-4,1.8-8.1,3.6-12.1,5.4c-1.2,0.5-2.3,0.5-3.5,0c-4-1.8-8-3.6-12-5.3
			c-0.8-0.4-1.3-1-1.5-1.8C0.7,35.2,0.7,31.3,0.7,27.4z M29.7,33.1c0-1.5,0-3.1,0-4.6c0-0.6,0-1.1-0.2-1.7c-0.7-3.1-3-5.2-6.2-5.7
			c-0.4-0.1-0.6,0-0.9,0.3c-1.9,1.9-3.7,3.7-5.6,5.6c-0.7,0.7-1,0.7-1.6,0c-1.9-1.9-3.8-3.8-5.7-5.7c-0.2-0.2-0.4-0.3-0.7-0.3
			c-3.8,0.5-6.5,3.5-6.5,7.4c0,3.3,0,6.6,0,9.8c0,0.6,0.2,0.9,0.7,1.1c3.9,1.7,7.9,3.5,11.8,5.2c0.8,0.3,1.5,0.4,2.3,0
			c3.9-1.8,7.9-3.5,11.9-5.3c0.5-0.2,0.7-0.5,0.7-1.1C29.7,36.6,29.7,34.9,29.7,33.1z M29.6,23c0,0.1,0.1,0.1,0.1,0.2
			c1.2,1.7,1.7,3.6,1.7,5.6c0,2.1,0,4.2,0,6.3c0,0.3,0.1,0.4,0.4,0.6c1.9,0.7,3.7,1.5,5.6,2.2c0.3,0.1,0.6,0.1,0.9,0
			c2.8-1.1,5.7-2.2,8.5-3.3c0.5-0.2,0.7-0.5,0.7-1c0-2.3,0-4.5,0-6.8c0-3.2-2.5-5.6-5.7-5.6c-0.2,0-0.5,0.1-0.7,0.3
			c-0.9,0.8-1.7,1.7-2.5,2.5c-0.6,0.6-0.9,0.6-1.5,0c-0.9-0.8-1.7-1.7-2.6-2.5c-0.1-0.1-0.2-0.2-0.4-0.2C32.3,21,30.8,21.6,29.6,23z
			"/>
		<path class="st0" d="M8.8,12.2c0-4,3.3-7.2,7.3-7.2c4,0,7.3,3.3,7.3,7.3c0,4-3.3,7.3-7.3,7.2C12,19.4,8.7,16.1,8.8,12.2z
			 M10.4,12.1c-0.1,3,2.3,5.6,5.4,5.8c3,0.1,5.7-2.3,5.8-5.4c0.1-3.1-2.3-5.7-5.5-5.9C13.1,6.4,10.5,8.9,10.4,12.1z"/>
		<path class="st0" d="M37.8,18.7c-3.1,0-5.6-2.5-5.6-5.7c0-3.1,2.5-5.6,5.7-5.6c3.1,0,5.6,2.5,5.6,5.6
			C43.4,16.1,40.9,18.7,37.8,18.7z M37.8,17c2.2,0,4-1.8,4-4c0-2.2-1.8-4-4-4c-2.2,0-4,1.8-4,4C33.8,15.2,35.6,17,37.8,17z"/>
	</g>
</g>
</svg>
