<?xml version="1.0" encoding="utf-8"?>
<!-- Generator: Adobe Illustrator 24.0.2, SVG Export Plug-In . SVG Version: 6.00 Build 0)  -->
<svg version="1.1" id="Capa_1" xmlns="http://www.w3.org/2000/svg" xmlns:xlink="http://www.w3.org/1999/xlink" x="0px" y="0px"
	 viewBox="0 0 50 50" style="enable-background:new 0 0 50 50;" xml:space="preserve">
<style type="text/css">
	.st0{fill:#00A0D9;}
	.st1{fill:#FFFFFF;}
</style>
<circle class="st0" cx="25" cy="25" r="24.4"/>
<g>
	<g>
		<path class="st1" d="M18.1,40.3c-0.5-0.1-1-0.3-1.3-0.7c-0.5-0.5-0.6-1.1-0.6-1.8c0-2.9,0-5.9,0-8.8c0-5.6,0-11.2,0-16.7
			c0-0.6,0.1-1.1,0.4-1.6c0.5-0.7,1.2-0.9,2-0.9c3.7,0,7.4,0,11.1,0c0.6,0,1.2,0,1.7,0c1.4,0,2.4,0.9,2.4,2.4c0,0,0,0.1,0,0.1
			c0,8.5,0,17,0,25.5c0,0.7-0.1,1.3-0.6,1.8c-0.4,0.4-0.8,0.6-1.3,0.7C27.3,40.3,22.7,40.3,18.1,40.3z M17.1,34.9c0,1,0,2,0,3
			c0,1,0.5,1.5,1.5,1.5c4.3,0,8.5,0,12.8,0c1,0,1.5-0.5,1.5-1.5c0-0.9,0-1.8,0-2.7c0-0.1,0-0.2,0-0.3c-0.1,0-0.3,0-0.4,0
			c-4,0-8,0-12,0c-0.1,0-0.2,0-0.3,0c-0.2,0-0.4-0.2-0.4-0.4c0-0.2,0.1-0.4,0.4-0.4c0.1,0,0.2,0,0.3,0c4,0,8,0,12.1,0
			c0.1,0,0.2,0,0.3,0c0-6.6,0-13.2,0-19.8c-5.3,0-10.5,0-15.8,0c0,6.6,0,13.2,0,19.8c0.4,0,0.8,0,1.2,0c0.4,0,0.6,0.2,0.6,0.4
			c0,0.3-0.2,0.4-0.6,0.4C17.9,34.9,17.5,34.9,17.1,34.9z M32.9,13.3c0-0.4,0-0.8,0-1.2c0-0.1,0-0.3,0-0.4c-0.1-0.7-0.7-1.1-1.4-1.1
			c-4.3,0-8.6,0-12.9,0c-0.1,0-0.2,0-0.2,0c-0.6,0.1-1,0.4-1.1,0.9c-0.1,0.6-0.1,1.1-0.1,1.7C22.4,13.3,27.6,13.3,32.9,13.3z"/>
		<path class="st1" d="M26.3,37.1c0,0.7-0.6,1.3-1.3,1.3c-0.7,0-1.4-0.6-1.4-1.3c0-0.7,0.6-1.4,1.3-1.3
			C25.7,35.8,26.3,36.4,26.3,37.1z M25.4,37.1c0-0.2-0.2-0.4-0.4-0.5c-0.2,0-0.4,0.2-0.5,0.4c0,0.3,0.2,0.5,0.4,0.5
			C25.2,37.6,25.4,37.4,25.4,37.1z"/>
		<path class="st1" d="M25.9,12.4c-0.3,0-0.6,0-0.9,0c-0.3,0-0.5-0.2-0.5-0.5c0-0.2,0.2-0.4,0.5-0.4c0.6,0,1.2,0,1.7,0
			c0.3,0,0.5,0.2,0.5,0.4c0,0.3-0.2,0.4-0.5,0.4C26.5,12.4,26.2,12.4,25.9,12.4z"/>
		<path class="st1" d="M23.6,12c0,0.2-0.2,0.4-0.4,0.4c-0.2,0-0.5-0.2-0.4-0.5c0-0.2,0.2-0.4,0.4-0.4C23.4,11.5,23.6,11.7,23.6,12z"
			/>
	</g>
</g>
</svg>
