<svg xmlns="http://www.w3.org/2000/svg" viewBox="0 0 251.62 106.98"><defs><style>.cls-1{isolation:isolate;}.cls-2{fill:none;}.cls-3{fill:#d9007f;}.cls-4,.cls-7{fill:#00a0d9;}.cls-5{fill:#170c66;mix-blend-mode:multiply;}.cls-6{fill:#711f87;}.cls-7{fill-rule:evenodd;}</style></defs><title>logo portal entradas</title><g class="cls-1"><g id="Capa_1" data-name="Capa 1"><path class="cls-2" d="M204.14,130.92a3.89,3.89,0,0,0-.5,2.63,3.61,3.61,0,0,0,1.15,2.11,3.5,3.5,0,0,0,2.34.87,5.15,5.15,0,0,0,3.1-1.09l1.82-8.55a14,14,0,0,0-5.27,1.56A7,7,0,0,0,204.14,130.92Z" transform="translate(-6.17 -83.53)"/><path class="cls-2" d="M99.17,114.87a3.65,3.65,0,0,0-2.69,1.44,14.56,14.56,0,0,0-2.29,3.6,24.58,24.58,0,0,0-1.61,4.66,20.67,20.67,0,0,0-.63,4.66,8.32,8.32,0,0,0,.65,3.59,2.24,2.24,0,0,0,2.17,1.44,3.59,3.59,0,0,0,2.64-1.44,14.29,14.29,0,0,0,2.23-3.59,25.48,25.48,0,0,0,1.55-4.66,22,22,0,0,0,.63-4.66,8.7,8.7,0,0,0-.59-3.6A2.12,2.12,0,0,0,99.17,114.87Z" transform="translate(-6.17 -83.53)"/><path class="cls-2" d="M183.17,118.22c-.26,1.14-.52,2.3-.77,3.46-.46,2.07-.92,4.11-1.41,6.15s-1,4.08-1.4,6.15-.45,3.53,0,4.5a2.55,2.55,0,0,0,1.94,1.64,3.86,3.86,0,0,0,2.73-.79c.2-.14.39-.3.58-.46a14,14,0,0,1,.35-5.47,19.51,19.51,0,0,1,4.34-8.67,23,23,0,0,1,8-5.52,27.67,27.67,0,0,1,4-1.36c1.39-.36,2.8-.67,4.23-.9s2.86-.43,4.3-.57,2.86-.26,4.25-.36a2.36,2.36,0,0,0,.08-2.2,3.19,3.19,0,0,0-1.8-1.32,9.42,9.42,0,0,0-3.22-.42,19.1,19.1,0,0,0-4.18.54,28.43,28.43,0,0,0-4.67,1.56,28,28,0,0,0-4.71,2.6l-3.12,0,.47-2H184Z" transform="translate(-6.17 -83.53)"/><path class="cls-3" d="M74.63,124.61a32.79,32.79,0,0,1,3.67-9.4,26.94,26.94,0,0,1,6-7.08,25.92,25.92,0,0,1,3.48-2.4c0-.26,0-.54,0-.8a31.6,31.6,0,0,0-1-9.6,16.81,16.81,0,0,0-3.67-7,13.15,13.15,0,0,0-6.48-3.85,23.15,23.15,0,0,0-9.39-.26,51.12,51.12,0,0,0-12.43,3.82l.52-3H30.29l-24.12,105H30.28l10.21-40.11a28.79,28.79,0,0,0,10.84,1.42A30.72,30.72,0,0,0,61.25,149,35.11,35.11,0,0,0,70,143.61a46.82,46.82,0,0,0,5.21-5.14,16.08,16.08,0,0,1-1.23-4.4A27,27,0,0,1,74.63,124.61ZM62.23,115a29,29,0,0,1-2.08,5.87A22.59,22.59,0,0,1,56.88,126a15.23,15.23,0,0,1-7.2,4.7,8.89,8.89,0,0,1-4.85.55l5.9-25.85c2.11-1,6.85-2.79,8.18-2.52a4.22,4.22,0,0,1,3,2.11,8.85,8.85,0,0,1,1,4.39A23.67,23.67,0,0,1,62.23,115Z" transform="translate(-6.17 -83.53)"/><path class="cls-4" d="M111.36,103.76a23.07,23.07,0,0,0-9.24-1.65,30.12,30.12,0,0,0-9.81,1.55,27.63,27.63,0,0,0-4.55,2.07,65.65,65.65,0,0,1-1.59,11,50.87,50.87,0,0,1-3.44,10,51.41,51.41,0,0,1-5.5,9.22c-.65.87-1.34,1.7-2,2.52a12.66,12.66,0,0,0,1.54,2.65,14,14,0,0,0,6,4.41,24,24,0,0,0,9,1.53,29.41,29.41,0,0,0,9.85-1.59,26.34,26.34,0,0,0,6-3l8.25-35.76A14.35,14.35,0,0,0,111.36,103.76Zm-10.17,20.81a25.48,25.48,0,0,1-1.55,4.66,14.29,14.29,0,0,1-2.23,3.59,3.59,3.59,0,0,1-2.64,1.44,2.24,2.24,0,0,1-2.17-1.44,8.32,8.32,0,0,1-.65-3.59,20.67,20.67,0,0,1,.63-4.66,24.58,24.58,0,0,1,1.61-4.66,14.56,14.56,0,0,1,2.29-3.6,3.65,3.65,0,0,1,2.69-1.44,2.12,2.12,0,0,1,2.06,1.44,8.7,8.7,0,0,1,.59,3.6A22,22,0,0,1,101.19,124.57Z" transform="translate(-6.17 -83.53)"/><path class="cls-5" d="M82.73,126.73a50.87,50.87,0,0,0,3.44-10,65.65,65.65,0,0,0,1.59-11,25.92,25.92,0,0,0-3.48,2.4,26.94,26.94,0,0,0-6,7.08,32.79,32.79,0,0,0-3.67,9.4,27,27,0,0,0-.67,9.46,16.08,16.08,0,0,0,1.23,4.4c.7-.82,1.39-1.65,2-2.52A51.41,51.41,0,0,0,82.73,126.73Z" transform="translate(-6.17 -83.53)"/><path class="cls-6" d="M161.74,98.53l1.55-6.73c-1.86-.29-3.59-.49-5.18-.62a28.21,28.21,0,0,0-4.69,0,22.66,22.66,0,0,0-4.63.94,31.44,31.44,0,0,0-5,2.06l.7-2.95H119.39l-3.57,15.46a12.06,12.06,0,0,1,1.45,1.66,14.79,14.79,0,0,1,2.58,7.12,27.76,27.76,0,0,1-.68,9.11,34.08,34.08,0,0,1-3.64,9.27A26.45,26.45,0,0,1,109.6,141a24.82,24.82,0,0,1-2,1.51l-2.06,8.92h25.13l8.63-37.46a9.33,9.33,0,0,1,2.23-3.22c1.83-1.54,8-1.71,9.6,2.47h1.72l2.85-14.72Z" transform="translate(-6.17 -83.53)"/><path class="cls-5" d="M115.53,133.88a34.08,34.08,0,0,0,3.64-9.27,27.76,27.76,0,0,0,.68-9.11,14.79,14.79,0,0,0-2.58-7.12,12.06,12.06,0,0,0-1.45-1.66l-8.25,35.76a24.82,24.82,0,0,0,2-1.51A26.45,26.45,0,0,0,115.53,133.88Z" transform="translate(-6.17 -83.53)"/><path class="cls-3" d="M185,139.57c0-.23-.07-.47-.11-.7-.19.16-.38.32-.58.46a3.86,3.86,0,0,1-2.73.79,2.55,2.55,0,0,1-1.94-1.64q-.68-1.46,0-4.5t1.4-6.15c.49-2,.95-4.08,1.41-6.15.25-1.16.51-2.32.77-3.46s1-4.52,1.28-5.69h9.18l2.34-9.75q2.33-.72,5.34-1.38l.6-2.57H187.62l3.25-13.94H168.21l-3.29,13.66-3.18,0-3.39,14.66,3.06,0-1.67,8.45L156.64,135a29.69,29.69,0,0,0-.77,5.79,15.52,15.52,0,0,0,.68,5.32,10,10,0,0,0,2.61,4.24,10.08,10.08,0,0,0,5.08,2.47,42.29,42.29,0,0,0,6.15.77q3.35.19,6.75.12t6.61-.29q3.19-.21,5.76-.41l1.47-6.47a11.28,11.28,0,0,1-3.76-2.6A9.55,9.55,0,0,1,185,139.57Z" transform="translate(-6.17 -83.53)"/><polygon class="cls-5" points="155.57 15 149.5 14.94 146.65 29.66 152.19 29.66 155.57 15"/><path class="cls-4" d="M227.75,102a25.12,25.12,0,0,0-5.95-1.69,40.25,40.25,0,0,0-6.79-.5,64.81,64.81,0,0,0-7,.44c-2.3.27-4.49.64-6.55,1.09l-.14,0-2.6,11.13H193.6l-.95,4.22,3.12,0a28,28,0,0,1,4.71-2.6,28.43,28.43,0,0,1,4.67-1.56,19.1,19.1,0,0,1,4.18-.54,9.42,9.42,0,0,1,3.22.42,3.19,3.19,0,0,1,1.8,1.32,2.36,2.36,0,0,1-.08,2.2c-1.39.1-2.81.22-4.25.36s-2.87.33-4.3.57-2.84.54-4.23.9a27.67,27.67,0,0,0-4,1.36,23,23,0,0,0-8,5.52,19.51,19.51,0,0,0-4.34,8.67,14,14,0,0,0-.35,5.47,7.52,7.52,0,0,0,1.82-2.38h6.58l-2.26,10,.33.15a19.45,19.45,0,0,0,5.21,1.32,27.12,27.12,0,0,0,5.63,0c1.91-.17,5.37-2,5.37-2L207.3,148l15.47.14L232,105A12.77,12.77,0,0,0,227.75,102Zm-17.52,33.41a8.23,8.23,0,0,1-4,1.31,3.5,3.5,0,0,1-2.34-.87,3.64,3.64,0,0,1-1.15-2.11,3.89,3.89,0,0,1,.5-2.63,7,7,0,0,1,2.64-2.47,19,19,0,0,1,6.16-1.78Z" transform="translate(-6.17 -83.53)"/><path class="cls-5" d="M186.66,136.49a7.52,7.52,0,0,1-1.82,2.38c0,.23.06.47.11.7a9.55,9.55,0,0,0,2.27,4.36,11.28,11.28,0,0,0,3.76,2.6l2.26-10Z" transform="translate(-6.17 -83.53)"/><path class="cls-5" d="M193.6,112.53h5.11l2.6-11.13q-3,.66-5.34,1.38Z" transform="translate(-6.17 -83.53)"/><path class="cls-6" d="M236.29,84.72,232,105l.25.26a10.5,10.5,0,0,1,2.37,5,16.53,16.53,0,0,1-.36,7l-7.41,30.94-4.06,0L220.46,159H242l15.83-74.24Z" transform="translate(-6.17 -83.53)"/><path class="cls-5" d="M234.24,117.19a16.53,16.53,0,0,0,.36-7,10.5,10.5,0,0,0-2.37-5L232,105l-9.21,43.15,4.06,0Z" transform="translate(-6.17 -83.53)"/><path class="cls-6" d="M39.68,190.16l5-20.37H60.31L59,174.94h-8.3l-.42,1.73H58l-1.25,5.15H49.05l-.79,3.2h8.3l-1.27,5.14Z" transform="translate(-6.17 -83.53)"/><path class="cls-6" d="M72.81,180.71l-.14.62-2.19,8.89H63.59l5-20.37h8.06L79,177.06l1.78-7.21h6.92l-5,20.37h-6.8L73,181.33Z" transform="translate(-6.17 -83.53)"/><path class="cls-6" d="M95.63,190.13l3.7-15.19H93.57l1.25-5.15h18.82l-1.26,5.15h-5.73L103,190.13Z" transform="translate(-6.17 -83.53)"/><path class="cls-6" d="M136.86,190.13h-8.68l-3.61-6.6-1.61,6.6h-7.3l5-20.34c.62,0,1.36,0,2.22,0s1.76,0,2.71,0,1.92,0,2.91.06,1.93.12,2.83.24a17,17,0,0,1,2.3.46,6.25,6.25,0,0,1,1.93.9,3.79,3.79,0,0,1,1.23,1.49,4,4,0,0,1,.23,2.24,6,6,0,0,1-.62,1.9,10.5,10.5,0,0,1-1.19,1.79,10.74,10.74,0,0,1-1.54,1.55,11.69,11.69,0,0,1-1.7,1.19Zm-11-11.8a4.72,4.72,0,0,0,1.58-.26,3.61,3.61,0,0,0,1.2-.66,2.19,2.19,0,0,0,.67-.85,1,1,0,0,0,0-.84,1.45,1.45,0,0,0-.82-.66,4.79,4.79,0,0,0-1.77-.26Z" transform="translate(-6.17 -83.53)"/><path class="cls-6" d="M140.17,190.19l12.16-20.41h7.3l2.08,20.41h-7.5l-.3-3.86h-4.15c-.39.64-.76,1.28-1.11,1.93s-.71,1.29-1.1,1.93Zm13.55-8.63.06-4.86-2.09,4.86Z" transform="translate(-6.17 -83.53)"/><path class="cls-6" d="M190.86,180a12.76,12.76,0,0,1-1.47,3.52,13.9,13.9,0,0,1-2.44,3,14.34,14.34,0,0,1-3.24,2.2,13.47,13.47,0,0,1-3.82,1.24q-1.38.18-2.82.24c-1,0-1.92.06-2.89.07l-2.9,0-2.83,0,5-20.41,1.77,0,2.29,0c.82,0,1.67,0,2.55,0s1.72.05,2.54.1,1.58.14,2.28.25a9.14,9.14,0,0,1,1.78.46,6.72,6.72,0,0,1,2.51,1.64,6.83,6.83,0,0,1,1.45,2.3,7.85,7.85,0,0,1,.52,2.7A10.48,10.48,0,0,1,190.86,180Zm-7.47,0a8.15,8.15,0,0,0,.28-2.3,2.86,2.86,0,0,0-.5-1.59,2.69,2.69,0,0,0-1.35-.93,7.1,7.1,0,0,0-2.24-.3l-2.53,10.26a9.09,9.09,0,0,0,2.41-.29,4.92,4.92,0,0,0,1.8-.9,5.09,5.09,0,0,0,1.28-1.59A10.26,10.26,0,0,0,183.39,180Z" transform="translate(-6.17 -83.53)"/><path class="cls-6" d="M193.94,190.19l12.16-20.41h7.3l2.07,20.41H208l-.3-3.86h-4.15c-.39.64-.76,1.28-1.11,1.93s-.72,1.29-1.1,1.93Zm13.55-8.63.06-4.86-2.09,4.86Z" transform="translate(-6.17 -83.53)"/><path class="cls-6" d="M222.78,183H225a2.12,2.12,0,0,0,.64,1.31,4.71,4.71,0,0,0,1.39,1,6.6,6.6,0,0,0,1.8.54,6.24,6.24,0,0,0,1.82.06,3.54,3.54,0,0,0,1.49-.48,1.77,1.77,0,0,0,.81-1.1.6.6,0,0,0-.27-.65,3.53,3.53,0,0,0-1-.52c-.41-.16-.88-.31-1.41-.46l-1.59-.45c-.54-.16-1-.32-1.51-.49a5,5,0,0,1-1.16-.59,4.24,4.24,0,0,1-1-1.07,3.87,3.87,0,0,1-.55-1.21,4.78,4.78,0,0,1-.12-1.32,7.88,7.88,0,0,1,.21-1.41,7.28,7.28,0,0,1,1.54-3.08,8.79,8.79,0,0,1,2.64-2.08,12,12,0,0,1,3.37-1.15,18.29,18.29,0,0,1,3.71-.32,19,19,0,0,1,3.7.44,15.6,15.6,0,0,1,3.34,1.12l-1.34,5.48h-2.25a1,1,0,0,0-.24-.73,3.1,3.1,0,0,0-.73-.64,6.26,6.26,0,0,0-1.07-.5,7.5,7.5,0,0,0-1.26-.32,6.21,6.21,0,0,0-1.28-.11,4.69,4.69,0,0,0-1.17.14,2.5,2.5,0,0,0-.9.42,1.4,1.4,0,0,0-.49.76.7.7,0,0,0,.32.78,4.53,4.53,0,0,0,1.18.53c.5.15,1.08.31,1.72.46a18.82,18.82,0,0,1,1.91.55,9.44,9.44,0,0,1,1.76.82,3.72,3.72,0,0,1,1.83,2.81,5,5,0,0,1-.1,1.64,7.15,7.15,0,0,1-.6,1.61,9.85,9.85,0,0,1-1,1.5,11.41,11.41,0,0,1-1.2,1.3,9.14,9.14,0,0,1-1.28,1,12.4,12.4,0,0,1-3.65,1.52,16.29,16.29,0,0,1-3.94.42,18,18,0,0,1-4-.52,19.17,19.17,0,0,1-3.73-1.32Z" transform="translate(-6.17 -83.53)"/><path class="cls-7" d="M213.57,97.94a2.93,2.93,0,0,1-1.63-2.26c-.33-3.13-1.21-6.2-1-9.39a4.92,4.92,0,0,1,.17-1.55,3.12,3.12,0,0,1,1-1.11.75.75,0,0,1,1.06.42,2.36,2.36,0,0,1,.12.51,82.85,82.85,0,0,1,1,10.19A5.41,5.41,0,0,1,213.57,97.94Z" transform="translate(-6.17 -83.53)"/><path class="cls-7" d="M220.81,97.25a12.91,12.91,0,0,1,.85-4.73,44.48,44.48,0,0,1,2.67-6,13,13,0,0,1,2.46-2.7c.2-.2.61-.2,1-.31a2.77,2.77,0,0,1-.22,2.59c-1,2.23-2,4.45-3.07,6.68C223.72,94.43,222.39,95.57,220.81,97.25Z" transform="translate(-6.17 -83.53)"/><path class="cls-7" d="M204.68,95.76c-.75-1-1.33-1.68-1.89-2.41-.75-1-1.51-1.94-2.21-2.95a8,8,0,0,1-1.29-3.69,1.81,1.81,0,0,1,1.28-2,1.63,1.63,0,0,1,2,1.24c.44,2.19,1.55,4.1,2.28,6.16A3.85,3.85,0,0,1,204.68,95.76Z" transform="translate(-6.17 -83.53)"/><path class="cls-7" d="M205.3,153.36a2,2,0,0,1,1,1.55c.14,2.1.64,4.18.41,6.3a3.19,3.19,0,0,1-.15,1,2.07,2.07,0,0,1-.7.71.5.5,0,0,1-.7-.31,1.35,1.35,0,0,1-.06-.34,55.89,55.89,0,0,1-.37-6.84A3.62,3.62,0,0,1,205.3,153.36Z" transform="translate(-6.17 -83.53)"/><path class="cls-7" d="M200.44,153.62a8.49,8.49,0,0,1-.7,3.14,29.15,29.15,0,0,1-1.94,3.92,8.85,8.85,0,0,1-1.72,1.74c-.14.13-.41.12-.66.18a1.87,1.87,0,0,1,.22-1.73l2.23-4.37A12.09,12.09,0,0,1,200.44,153.62Z" transform="translate(-6.17 -83.53)"/><path class="cls-7" d="M211.17,155.06c.48.66.85,1.16,1.2,1.66.48.67,1,1.34,1.39,2a5.31,5.31,0,0,1,.77,2.51,1.21,1.21,0,0,1-.92,1.32,1.09,1.09,0,0,1-1.31-.89,29,29,0,0,0-1.36-4.17A2.58,2.58,0,0,1,211.17,155.06Z" transform="translate(-6.17 -83.53)"/><path class="cls-7" d="M104.31,100.46A2.33,2.33,0,0,1,103,98.67c-.27-2.48-1-4.91-.79-7.44a3.84,3.84,0,0,1,.13-1.23,2.54,2.54,0,0,1,.79-.88.62.62,0,0,1,.85.34,2.88,2.88,0,0,1,.09.4,66.16,66.16,0,0,1,.76,8.07A4.33,4.33,0,0,1,104.31,100.46Z" transform="translate(-6.17 -83.53)"/><path class="cls-7" d="M110,99.91a10.15,10.15,0,0,1,.67-3.75,35.13,35.13,0,0,1,2.11-4.73,10.33,10.33,0,0,1,2-2.14c.16-.16.48-.16.77-.24a2.17,2.17,0,0,1-.18,2c-.8,1.77-1.61,3.52-2.42,5.28A14.6,14.6,0,0,1,110,99.91Z" transform="translate(-6.17 -83.53)"/><path class="cls-7" d="M97.27,98.73l-1.5-1.91c-.59-.77-1.19-1.53-1.74-2.33a6.28,6.28,0,0,1-1-2.93A1.43,1.43,0,0,1,94,90a1.29,1.29,0,0,1,1.6,1,33.05,33.05,0,0,0,1.81,4.87A3.09,3.09,0,0,1,97.27,98.73Z" transform="translate(-6.17 -83.53)"/><path class="cls-7" d="M88.29,149.19a2.53,2.53,0,0,0-2,1.39c-1.14,2.46-2.69,4.72-3.4,7.38a4.12,4.12,0,0,0-.29,1.31,2.63,2.63,0,0,0,.51,1.18.65.65,0,0,0,1,0,3.14,3.14,0,0,0,.24-.39A72,72,0,0,0,88,152,4.67,4.67,0,0,0,88.29,149.19Z" transform="translate(-6.17 -83.53)"/><path class="cls-7" d="M94,151.75a11,11,0,0,0-.61,4.08,37.38,37.38,0,0,0,.53,5.6,11.27,11.27,0,0,0,1.26,2.88c.11.22.44.33.71.52a2.4,2.4,0,0,0,.53-2.17c-.21-2.1-.44-4.19-.66-6.28C95.59,154.85,94.82,153.55,94,151.75Z" transform="translate(-6.17 -83.53)"/><path class="cls-7" d="M80.45,148.52c-.87.57-1.55,1-2.21,1.45-.87.59-1.76,1.16-2.6,1.79a6.81,6.81,0,0,0-2.07,2.65,1.55,1.55,0,0,0,.49,2,1.39,1.39,0,0,0,2-.45,36.52,36.52,0,0,1,3.55-4.38A3.36,3.36,0,0,0,80.45,148.52Z" transform="translate(-6.17 -83.53)"/></g></g></svg>