<?xml version="1.0" encoding="utf-8"?>
<!-- Generator: Adobe Illustrator 24.0.2, SVG Export Plug-In . SVG Version: 6.00 Build 0)  -->
<svg version="1.1" id="Capa_1" xmlns="http://www.w3.org/2000/svg" xmlns:xlink="http://www.w3.org/1999/xlink" x="0px" y="0px"
	 viewBox="0 0 322.5 107" style="enable-background:new 0 0 322.5 107;" xml:space="preserve">
<style type="text/css">
	.st0{fill:#FFDD00;}
</style>
<title>logo portal entradas</title>
<g>
	<path d="M231.3,52.3v16.5c0,1.6-1.8,2.8-4.2,2.8c-2.2,0-3.9-1.2-3.9-2.8v-2c-2.4,2.8-5.6,5.3-10.3,5.3c-4.8,0-8.8-2.8-8.8-9
		c0-7.8,6.4-9.9,15.7-9.9h2.8v-0.9c0-2.9-1.5-6.2-5.9-6.2c-5.2,0-6.1,2.1-7.7,2.1c-2,0-3-2.4-3-4.3c0-2.8,6-4.9,10.8-4.9
		C227.4,39.2,231.3,45.5,231.3,52.3z M222.6,57.8h-1c-4.5,0-8.8,0.5-8.8,4.2c0,2.5,1.6,3.6,3.6,3.6c2.8,0,6.2-3.2,6.2-6.5V57.8z"/>
	<path d="M246,42.3v2c1.6-2.6,4.8-5.1,9.1-5.1c6.7,0,12.1,6.2,12.1,13.7v5.5c0,7.2-5.5,13.8-11.8,13.8c-4,0-7.6-2.6-8.8-5.3v16.9
		c0,1.4-2,2.8-4.5,2.8c-2.5,0-4.2-1.3-4.2-2.8V42.3c0-1.6,1.8-2.7,4.1-2.7C244.4,39.6,246,40.6,246,42.3z M258.5,52.8
		c0-3-2.8-6.1-6.1-6.1c-2.8,0-5.8,2.3-5.8,6.1v6.7c0,1.4,2.5,5,5.9,5c3.2,0,6-3.1,6-6.2V52.8z"/>
	<path d="M281,42.3v2c1.6-2.6,4.8-5.1,9.1-5.1c6.7,0,12.1,6.2,12.1,13.7v5.5c0,7.2-5.5,13.8-11.8,13.8c-4,0-7.6-2.6-8.8-5.3v16.9
		c0,1.4-2,2.8-4.5,2.8c-2.5,0-4.2-1.3-4.2-2.8V42.3c0-1.6,1.8-2.7,4.1-2.7C279.4,39.6,281,40.6,281,42.3z M293.5,52.8
		c0-3-2.8-6.1-6.1-6.1c-2.8,0-5.8,2.3-5.8,6.1v6.7c0,1.4,2.5,5,5.9,5c3.2,0,6-3.1,6-6.2V52.8z"/>
</g>
<g>
	<path class="st0" d="M20.2,42.3v2c1.6-2.6,4.8-5.1,9.1-5.1c6.7,0,12.1,6.2,12.1,13.7v5.5c0,7.2-5.5,13.8-11.8,13.8
		c-4,0-7.6-2.6-8.8-5.3v16.9c0,1.4-2,2.8-4.5,2.8c-2.5,0-4.2-1.3-4.2-2.8V42.3c0-1.6,1.8-2.7,4.1-2.7C18.5,39.6,20.2,40.6,20.2,42.3
		z M32.7,52.8c0-3-2.8-6.1-6.1-6.1c-2.8,0-5.8,2.3-5.8,6.1v6.7c0,1.4,2.5,5,5.9,5c3.2,0,6-3.1,6-6.2V52.8z"/>
	<path class="st0" d="M63.4,46.8c-3.9,0-7.8,3.8-7.8,10v12.1c0,1.3-2,2.8-4.5,2.8c-2.5,0-4.2-1.4-4.2-2.8V42.3
		c0-1.6,1.8-2.7,4.2-2.7c2.2,0,3.9,1.1,3.9,2.7V45c1.3-2.9,4.6-5.9,8.3-5.9h2.1c1.6,0,3.2,1.8,3.2,3.8c0,2.1-1.6,3.8-3.2,3.8H63.4z"
		/>
	<path class="st0" d="M99.2,51.8c0,5.7-3.2,6-6.3,6H79.2v1c0,3.9,3.2,6.5,7.9,6.5c4.5,0,6.3-2.6,8.3-2.6c2,0,3.3,2.5,3.3,3.8
		c0,2.3-4.7,5.6-11.9,5.6c-9.6,0-16.3-5.5-16.3-13.8v-5.7c0-7.3,6.5-13.5,14.8-13.5C92.7,39.2,99.2,44.3,99.2,51.8z M89.1,52.7
		c1.4,0,2-0.3,2-1.8c0-3.2-2.7-5.3-5.9-5.3c-3,0-5.9,2-5.9,5.3v1.9H89.1z"/>
	<path class="st0" d="M101.7,44.1c-0.2-0.3-0.3-0.9-0.3-1.2c0-2,3.6-3.7,5.8-3.7c1.1,0,2.2,0.5,2.6,1.5l7.5,19.6l7.5-19.4
		c0.4-1.1,1.3-1.6,2.5-1.6c1.8,0,5.8,1.7,5.8,3.8c0,0.4-0.1,0.7-0.3,1.1l-11.5,26.7c-0.5,1-2.3,1.6-4,1.6c-1.8,0-3.4-0.5-3.9-1.6
		L101.7,44.1z"/>
	<path class="st0" d="M164,51.8c0,5.7-3.2,6-6.3,6H144v1c0,3.9,3.2,6.5,7.9,6.5c4.5,0,6.3-2.6,8.3-2.6c2,0,3.3,2.5,3.3,3.8
		c0,2.3-4.7,5.6-11.9,5.6c-9.6,0-16.3-5.5-16.3-13.8v-5.7c0-7.3,6.5-13.5,14.8-13.5C157.5,39.2,164,44.3,164,51.8z M153.9,52.7
		c1.4,0,2-0.3,2-1.8c0-3.2-2.7-5.3-5.9-5.3c-3,0-5.9,2-5.9,5.3v1.9H153.9z"/>
	<path class="st0" d="M177.9,68.8c0,1.3-2,2.8-4.4,2.8c-2.6,0-4.3-1.4-4.3-2.8V42.3c0-1.6,1.8-2.7,4.3-2.7c2.1,0,3.8,1.1,3.8,2.7v2
		c1.3-2.6,4.5-5.1,9-5.1c6.2,0,11.6,6.2,11.6,13.7v16c0,1.8-2.2,2.8-4.4,2.8c-2,0-4.3-0.9-4.3-2.8v-16c0-3-2.6-6.1-5.9-6.1
		c-2.8,0-5.5,2.3-5.5,6.1V68.8z"/>
</g>
<path d="M38.5,104c-7.2,0-13.1-5.9-13.1-13.1c0-7.2,5.9-13.1,13.1-13.1c7.2,0,13.1,5.9,13.1,13.1C51.7,98.1,45.8,104,38.5,104z
	 M38.5,79.8c-6.1,0-11,4.9-11,11s4.9,11,11,11s11-4.9,11-11S44.6,79.8,38.5,79.8z"/>
<path d="M258.8,32.3c-7.2,0-13.1-5.9-13.1-13.1c0-7.2,5.9-13.1,13.1-13.1c7.2,0,13.1,5.9,13.1,13.1C272,26.4,266.1,32.3,258.8,32.3z
	 M258.8,8.2c-6.1,0-11,4.9-11,11s4.9,11,11,11c6.1,0,11-4.9,11-11S264.9,8.2,258.8,8.2z"/>
<path d="M257.2,26.8l-0.8-0.8l-6.3-6.5l4.1-4l2.9,3l7-6.8l4,4.1L257.6,26L257.2,26.8z M252.3,19.6l4.6,4.8l8.8-8.6l-1.8-1.8l-7,6.8
	l-2.9-3L252.3,19.6z"/>
<path d="M42.1,98.6l-3.7-3.8l-3.8,3.7l-3.5-3.6l3.8-3.7l-3.7-3.8l3.6-3.5l3.7,3.8l3.8-3.7l3.5,3.6l-3.8,3.7l3.7,3.8L42.1,98.6z
	 M38.5,92.6l3.7,3.8l1.4-1.3l-3.7-3.8l3.8-3.7l-1.3-1.4l-3.8,3.7l-3.7-3.8l-1.4,1.3l3.7,3.8l-3.8,3.7l1.3,1.4L38.5,92.6z"/>
<polygon points="311.9,92.7 51.4,92.7 51.4,90.6 309.8,90.6 309.8,20.2 270.8,20.2 270.8,18.1 311.9,18.1 "/>
</svg>
