<?xml version="1.0" encoding="utf-8"?>
<!-- Generator: Adobe Illustrator 24.0.2, SVG Export Plug-In . SVG Version: 6.00 Build 0)  -->
<svg version="1.1" id="Capa_1" xmlns="http://www.w3.org/2000/svg" xmlns:xlink="http://www.w3.org/1999/xlink" x="0px" y="0px"
	 viewBox="0 0 200 80" style="enable-background:new 0 0 200 80;" xml:space="preserve">
<style type="text/css">
	.st0{fill:#68B42E;}
	.st1{fill:#FFFFFF;}
</style>
<path class="st0" d="M35.5,17.6h5.6C39,9.4,31.5,3.4,22.6,3.4v5.4C28.5,8.8,33.6,12.4,35.5,17.6z"/>
<path class="st1" d="M41.6,19.7h-3.9h-1.5H22.6v6h13.5c-1.4,6.1-6.9,10.7-13.5,10.7c-7.6,0-13.8-6.2-13.8-13.8
	c0-6.8,4.9-12.4,11.3-13.6V3.6c-9.4,1.2-16.6,9.3-16.6,19c0,10.6,8.6,19.2,19.2,19.2c9.5,0,17.4-7,18.9-16.1c0.2-1,0.3-2.1,0.3-3.1
	C41.8,21.6,41.7,20.7,41.6,19.7z"/>
<g>
	<g>
		<g>
			<path class="st1" d="M67.4,21.3v1.1c0,4.9-3.5,8.4-8.4,8.4c-4.9,0-8.6-3.7-8.6-8.5s3.8-8.5,8.7-8.5c2.9,0,5.4,1.2,6.9,3.2l-2.5,2
				c-1-1.3-2.5-2.1-4.3-2.1c-3.1,0-5.4,2.3-5.4,5.4c0,3.1,2.3,5.4,5.4,5.4c2.4,0,4.3-1.4,4.8-3.5h-4.5v-2.9H67.4z"/>
			<path class="st1" d="M81.7,25.6h-9.4c0.4,1.5,1.7,2.5,3.5,2.5c1.5,0,2.7-0.7,3.3-1.5l2.1,1.8c-1.3,1.5-3.2,2.4-5.5,2.4
				c-3.9,0-6.8-2.8-6.8-6.4c0-3.6,2.8-6.3,6.5-6.3c3.7,0,6.4,2.7,6.4,6.4C81.8,24.8,81.8,25.3,81.7,25.6z M72.3,23.3h6.2
				c-0.4-1.5-1.6-2.5-3.1-2.5C73.8,20.8,72.7,21.8,72.3,23.3z"/>
			<path class="st1" d="M83.1,29l1.5-2.1c0.9,0.8,2.1,1.4,3.6,1.4c1.2,0,2.2-0.4,2.2-1.1c0-0.8-1.1-1.1-2.4-1.4
				c-1.9-0.4-4.4-1-4.4-3.8c0-2.6,2.3-3.8,5-3.8c2.1,0,3.6,0.7,4.7,1.6l-1.5,2.1c-0.9-0.7-1.9-1.1-3.2-1.1c-1.1,0-1.9,0.3-1.9,1.1
				c0,0.8,1,1.1,2.4,1.4c1.9,0.4,4.4,1,4.4,3.8c0,2.6-2.3,4-5.2,4C85.9,30.9,84.2,30,83.1,29z"/>
			<path class="st1" d="M99.5,21.2v5.1c0,1,0.6,1.6,1.7,1.6c0.6,0,1.1-0.2,1.6-0.4v2.9c-0.7,0.4-1.4,0.5-2.3,0.5
				c-2.8,0-4.1-1.6-4.1-4.1v-5.6h-1.9v-2.8h1.9v-3.1h3.1v3.1h3.3v2.8H99.5z"/>
			<path class="st1" d="M104.7,14.6c0-1.1,0.9-1.9,2-1.9s2,0.8,2,1.9c0,1.1-0.9,1.9-2,1.9S104.7,15.7,104.7,14.6z M105.1,18.4h3.1
				v12.2h-3.1V18.4z"/>
			<path class="st1" d="M110.4,24.5c0-3.6,2.8-6.4,6.6-6.4c3.7,0,6.6,2.7,6.6,6.4c0,3.6-2.8,6.4-6.6,6.4
				C113.2,30.9,110.4,28.1,110.4,24.5z M120.3,24.5c0-1.9-1.4-3.4-3.3-3.4c-1.9,0-3.3,1.5-3.3,3.4c0,1.9,1.4,3.4,3.3,3.4
				C118.9,27.8,120.3,26.4,120.3,24.5z"/>
			<path class="st1" d="M137.5,22.8v7.7h-3.1v-6.7c0-1.6-1.1-2.7-2.7-2.7c-1.7,0-2.8,1.1-2.8,2.8v6.7h-3.1V18.4h3.1v1.4
				c1-1.1,2.3-1.6,3.9-1.6C135.6,18.1,137.5,20,137.5,22.8z"/>
			<g>
				<path class="st1" d="M145,13.8l-6.4,17h4.5l1-2.9h6.3l1,2.9h4.6l-6.4-17H145z M149.1,24h-3.6l1.8-5.1L149.1,24z"/>
				<path class="st1" d="M164.5,17.8c-1.3,0-2.5,0.4-3.4,1.2v-0.9h-4v17.2h4v-5.4c0.9,0.8,2.1,1.2,3.4,1.2c3.5,0,6.1-2.9,6.1-6.6
					C170.6,20.7,168,17.8,164.5,17.8z M163.8,21.7c1.6,0,2.7,1.2,2.7,2.8s-1.2,2.8-2.7,2.8c-1.6,0-2.7-1.2-2.7-2.8
					S162.2,21.7,163.8,21.7z"/>
				<path class="st1" d="M179.7,17.8c-1.3,0-2.5,0.4-3.4,1.2v-0.9h-4v17.2h4v-5.4c0.9,0.8,2.1,1.2,3.4,1.2c3.5,0,6.1-2.9,6.1-6.6
					C185.8,20.7,183.2,17.8,179.7,17.8z M179,21.7c1.6,0,2.7,1.2,2.7,2.8s-1.2,2.8-2.7,2.8c-1.6,0-2.7-1.2-2.7-2.8
					S177.4,21.7,179,21.7z"/>
				<path class="st1" d="M192.8,22.7c-1.2-0.3-2-0.5-2-0.9c0-0.5,0.7-0.6,1.4-0.6c1,0,1.9,0.3,3,1l0.2,0.1l1.9-2.7l-0.2-0.1
					c-1.5-1.1-3.2-1.7-5-1.7c-3.2,0-5.3,1.6-5.3,4.2c0,3.1,2.7,3.7,4.7,4.1c1.2,0.3,2,0.5,2,1c0,0.5-0.9,0.7-1.7,0.7
					c-1.2,0-2.3-0.4-3.3-1.3l-0.2-0.2l-1.9,2.7l0.2,0.2c1.5,1.3,3.4,1.9,5.4,1.9c3.4,0,5.6-1.7,5.6-4.3
					C197.5,23.7,194.6,23,192.8,22.7z"/>
			</g>
		</g>
	</g>
	<polygon class="st1" points="118.7,16.8 116.2,16.8 117.1,12.7 121.1,12.7 	"/>
</g>
</svg>
