<?xml version="1.0" encoding="utf-8"?>
<!-- Generator: Adobe Illustrator 24.0.2, SVG Export Plug-In . SVG Version: 6.00 Build 0)  -->
<svg version="1.1" id="Capa_1" xmlns="http://www.w3.org/2000/svg" xmlns:xlink="http://www.w3.org/1999/xlink" x="0px" y="0px"
	 viewBox="0 0 49 49" style="enable-background:new 0 0 49 49;" xml:space="preserve">
<style type="text/css">
	.st0{fill-rule:evenodd;clip-rule:evenodd;fill:url(#SVGID_1_);}
	.st1{fill-rule:evenodd;clip-rule:evenodd;fill:#FFFFFF;}
</style>
<title>whatsapp pc celu</title>
<linearGradient id="SVGID_1_" gradientUnits="userSpaceOnUse" x1="26.0699" y1="46.0001" x2="26.0699" y2="3.8908" gradientTransform="matrix(1 0 0 -1 -1 49)">
	<stop  offset="0" style="stop-color:#00C13E"/>
	<stop  offset="1" style="stop-color:#008530"/>
</linearGradient>
<path class="st0" d="M25.1,3C13.4,3,3.9,12.4,3.8,24c0,4.4,1.4,8.8,4,12.4l-2.6,7.8l8.2-2.6c9.8,6.4,23,3.7,29.4-6.1
	c2.2-3.4,3.4-7.4,3.5-11.4C46.2,12.4,36.7,3,25.1,3z"/>
<path class="st1" d="M49,23.9c-0.1,13.3-11,24-24.3,23.9c-4,0-7.9-1.1-11.4-3L0,49l4.3-12.8c-2.3-3.7-3.5-8-3.5-12.3
	C1.2,10.6,12.2,0,25.4,0.3C38.3,0.6,48.7,11,49,23.9z M25,3.8C13.9,3.7,4.8,12.7,4.7,23.9c0,0,0,0,0,0c0,4.2,1.3,8.4,3.8,11.8
	l-2.5,7.5l7.8-2.5c9.3,6.1,21.9,3.5,28-5.8c2.1-3.3,3.3-7.1,3.3-10.9C45.1,12.8,36.1,3.8,25,3.8z M37.1,29.4
	c-0.2-0.3-0.5-0.4-1.1-0.7s-3.5-1.7-4-1.9s-0.9-0.3-1.3,0.3s-1.5,1.9-1.9,2.3s-0.7,0.4-1.3,0.1c-1.7-0.7-3.3-1.7-4.7-2.9
	c-1.3-1.2-2.4-2.5-3.3-4c-0.3-0.6,0-0.9,0.3-1.2s0.6-0.7,0.9-1c0.2-0.3,0.4-0.6,0.6-1c0.2-0.3,0.1-0.7,0-1C21,18,19.8,15.2,19.3,14
	s-1-1.1-1.3-1.1c-0.3,0-0.7,0-1,0.1c-0.6,0.1-1.2,0.3-1.7,0.7c-1.3,1.3-2.1,3-2.1,4.9c0,2.9,2.1,5.7,2.4,6s4.1,6.5,10.1,8.8
	s6,1.6,7.1,1.5s3.5-1.4,4-2.8C37.1,31.3,37.3,30.3,37.1,29.4z"/>
</svg>
