<?xml version="1.0" encoding="utf-8"?>
<!-- Generator: Adobe Illustrator 24.0.2, SVG Export Plug-In . SVG Version: 6.00 Build 0)  -->
<svg version="1.1" id="Capa_1" xmlns="http://www.w3.org/2000/svg" xmlns:xlink="http://www.w3.org/1999/xlink" x="0px" y="0px"
	 viewBox="0 0 272.7 95.3" style="enable-background:new 0 0 272.7 95.3;" xml:space="preserve">
<style type="text/css">
	.st0{fill:#333333;}
</style>
<title>logo goodapps</title>
<path class="st0" d="M129.7,45.9v11.4c0,0.4-0.3,0.8-0.7,0.9c-0.1,0-0.1,0-0.2,0h-3.4c-0.4,0-0.8-0.3-0.9-0.7c0-0.1,0-0.1,0-0.2
	v-1.9c-1.8,2.2-4.5,3.4-7.3,3.3c-6.7,0-11.8-5.4-11.8-12.5c-0.2-6.7,5.1-12.3,11.8-12.5c0.2,0,0.4,0,0.6,0c5.5,0,10.1,3.4,11.5,7.8
	c0.2,0.6-0.1,1-0.7,1h-4.1c-0.4,0-0.8-0.2-1-0.6c-1.3-1.8-3.5-2.8-5.7-2.8c-4.3,0-7,2.9-7,7.1c0,4.6,3,7.5,7,7.5
	c2.6,0,5.2-1.1,6.1-3.8h-5.2c-0.4,0-0.8-0.3-0.9-0.7c0-0.1,0-0.1,0-0.2v-3.1c0-0.4,0.3-0.8,0.7-0.9c0.1,0,0.1,0,0.2,0h10
	c0.4-0.1,0.8,0.3,0.9,0.7C129.7,45.8,129.7,45.9,129.7,45.9z"/>
<path class="st0" d="M132.3,49.6c0-5,4-9.1,9-9.2c5,0,9.1,4,9.2,9c0,5-4,9.1-9,9.2c0,0-0.1,0-0.1,0
	C136.4,58.7,132.3,54.7,132.3,49.6C132.3,49.7,132.3,49.7,132.3,49.6z M145.3,49.6c0-2.2-1.8-3.9-4-3.9s-3.9,1.8-3.9,4
	c0,2.2,1.8,3.9,4,3.9c2.1,0.1,3.9-1.6,4-3.7C145.3,49.8,145.3,49.7,145.3,49.6L145.3,49.6z"/>
<path class="st0" d="M152.5,49.6c0-5,4-9.1,9-9.2c5,0,9.1,4,9.2,9c0,5-4,9.1-9,9.2c0,0-0.1,0-0.1,0
	C156.6,58.7,152.5,54.7,152.5,49.6C152.5,49.7,152.5,49.7,152.5,49.6z M165.5,49.6c0-2.2-1.8-3.9-4-3.9c-2.2,0-3.9,1.8-3.9,4
	c0,2.2,1.8,3.9,3.9,3.9c2.1,0.1,3.9-1.6,4-3.7C165.5,49.8,165.5,49.7,165.5,49.6L165.5,49.6z"/>
<path class="st0" d="M191.2,35v22.3c0,0.4-0.3,0.8-0.7,0.9c-0.1,0-0.1,0-0.2,0h-3.4c-0.4,0-0.8-0.3-0.9-0.7c0-0.1,0-0.1,0-0.2v-0.7
	c-1.3,1.4-3.2,2.2-5.1,2.1c-4.5,0-8.2-3.9-8.2-9s3.7-9.1,8.2-9.1c1.9-0.1,3.8,0.7,5.1,2.1V35c0-0.4,0.3-0.8,0.7-0.9
	c0.1,0,0.1,0,0.2,0h3.4c0.4,0,0.8,0.3,0.9,0.7C191.2,34.9,191.2,35,191.2,35z M186,49.6c-0.1-2.3-1.9-4-4.2-4c-2.3,0.1-4,1.9-4,4.2
	c0.1,2.2,1.9,4,4.1,4c2.2,0.1,4-1.6,4.1-3.7C186,49.9,186,49.8,186,49.6z"/>
<path class="st0" d="M213.7,58.2h-1.9c-0.4,0-0.7-0.2-0.8-0.6l-1.7-4.8h-10.7l-1.7,4.8c-0.1,0.4-0.5,0.6-0.8,0.6h-1.9
	c-0.5,0-0.8-0.3-0.6-0.8l8.4-22.6c0.1-0.4,0.5-0.6,0.8-0.6h2.4c0.4,0,0.7,0.2,0.8,0.6l8.3,22.6C214.5,57.9,214.3,58.2,213.7,58.2z
	 M208.2,49.8L204,37.9l-4.3,11.9H208.2z"/>
<path class="st0" d="M235.3,49.6c0.1,4.9-3.7,8.9-8.6,9c0,0-0.1,0-0.1,0c-2.6,0.1-5-1.2-6.5-3.3V68c0,0.4-0.2,0.7-0.6,0.7
	c-0.1,0-0.1,0-0.2,0h-1.5c-0.4,0-0.7-0.2-0.7-0.6c0-0.1,0-0.1,0-0.2V41.8c0-0.4,0.2-0.7,0.6-0.7c0,0,0.1,0,0.1,0h1.5
	c0.4,0,0.7,0.2,0.7,0.6c0,0,0,0.1,0,0.1V44c1.4-2.2,3.9-3.4,6.5-3.3C231.5,40.7,235.4,44.7,235.3,49.6
	C235.3,49.6,235.3,49.6,235.3,49.6z M232.3,49.6c0-3.4-2.8-6.1-6.1-6c-3.4,0-6.1,2.8-6,6.1c0,3.3,2.7,6,6.1,6c3.3,0.1,6-2.6,6.1-5.9
	C232.3,49.8,232.3,49.7,232.3,49.6L232.3,49.6z"/>
<path class="st0" d="M257,49.6c0.1,4.9-3.8,8.9-8.6,9c0,0,0,0-0.1,0c-2.6,0.1-5-1.2-6.5-3.3V68c0,0.4-0.2,0.7-0.6,0.7
	c-0.1,0-0.1,0-0.2,0h-1.5c-0.4,0-0.7-0.2-0.7-0.6c0-0.1,0-0.1,0-0.2V41.8c0-0.4,0.2-0.7,0.6-0.7c0,0,0.1,0,0.1,0h1.5
	c0.4,0,0.7,0.2,0.7,0.6c0,0.1,0,0.1,0,0.2V44c1.4-2.2,3.9-3.4,6.5-3.3C253.2,40.7,257.1,44.7,257,49.6C257,49.6,257,49.6,257,49.6z
	 M254,49.6c0-3.4-2.8-6.1-6.1-6c-3.4,0-6.1,2.8-6,6.1c0,3.3,2.8,6,6.1,6c3.3,0,6-2.6,6.1-5.9C254,49.8,254,49.7,254,49.6z"/>
<path class="st0" d="M272.7,53.5c0,3.1-2.7,5.1-6.5,5.1c-3.5,0-6.1-1.7-6.5-4.8c-0.1-0.3,0.2-0.7,0.5-0.8c0.1,0,0.1,0,0.2,0h1.5
	c0.4,0,0.6,0.3,0.8,0.7c0.3,1.6,1.8,2.1,3.5,2.1c2,0,3.6-0.7,3.6-2.3c0-3.9-9.8-1.4-9.8-7.8c0-3.1,2.8-5.1,6.2-5.1
	c3.2,0,5.8,1.7,6.2,4.8c0.1,0.3-0.2,0.7-0.5,0.8c-0.1,0-0.1,0-0.2,0H270c-0.4,0-0.6-0.2-0.8-0.7c-0.3-1.6-1.7-2.1-3.2-2.1
	c-1.7,0-3.3,0.7-3.3,2.3C262.9,49.6,272.7,47,272.7,53.5z"/>
<polygon class="st0" points="107.1,12 108,11.4 107.1,9.9 106.4,10.4 106.8,6.4 99.1,11.6 97.7,15.8 55.4,42 55.3,39.7 51,45.8 
	58.4,44.6 56.3,43.5 98.7,17.2 103,18 111.3,13.7 "/>
<path class="st0" d="M92.3,29.1c-0.9-2-3.2-3-5.2-2.1c-0.1,0.1-0.3,0.1-0.4,0.2l-7.1,4.1c5.3,10.2,5.3,22.4,0,32.7l7.2,4.1
	c1.9,1.1,4.4,0.4,5.5-1.5c0.1-0.1,0.1-0.3,0.2-0.4C97.3,54.4,97.3,41,92.3,29.1L92.3,29.1z"/>
<path class="st0" d="M46.4,12.2V4c0-2.2-1.8-4-4-4c-0.2,0-0.4,0-0.5,0C29.2,1.7,17.6,8.3,9.8,18.6c-1.3,1.8-1,4.3,0.8,5.6
	c0.1,0.1,0.3,0.2,0.4,0.3l7.1,4.1C24.4,18.8,34.9,12.8,46.4,12.2z"/>
<path class="st0" d="M16.5,31.3l-7.1-4.1c-1.9-1.1-4.4-0.4-5.5,1.5c-0.1,0.1-0.1,0.3-0.2,0.4c-5,11.9-5,25.2,0,37.1
	c0.9,2,3.2,3,5.2,2.1c0.1-0.1,0.3-0.1,0.4-0.2l7.1-4.1C11.2,53.8,11.2,41.6,16.5,31.3L16.5,31.3z"/>
<path class="st0" d="M18.1,66.8L11,70.9c-1.9,1.1-2.6,3.6-1.4,5.5c0.1,0.1,0.2,0.3,0.3,0.4C17.6,87,29.2,93.7,42,95.3
	c2.2,0.3,4.2-1.3,4.5-3.5c0-0.2,0-0.3,0-0.5v-8.3C34.9,82.6,24.4,76.5,18.1,66.8z"/>
<path class="st0" d="M49.6,83.1v8.3c0,2.2,1.8,4,4,4c0.2,0,0.3,0,0.5,0c12.8-1.6,24.3-8.3,32.1-18.6c1.3-1.8,1-4.3-0.8-5.6
	c-0.1-0.1-0.3-0.2-0.4-0.3l-7.1-4.1C71.7,76.5,61.1,82.6,49.6,83.1z"/>
<path class="st0" d="M86.2,18.6C78.5,8.3,66.9,1.7,54.1,0c-2.2-0.3-4.2,1.3-4.5,3.5c0,0.2,0,0.4,0,0.5v8.3
	c10.8,0.5,20.8,5.9,27.1,14.7L87,20.5C86.9,19.8,86.7,19.1,86.2,18.6z"/>
<path class="st0" d="M67.9,47.7c0,11-8.9,19.9-19.9,19.9s-19.9-8.9-19.9-19.9c0-11,8.9-19.9,19.9-19.9c6,0,11.6,2.7,15.4,7.3
	l7.3-4.5C61.3,18,43.4,15.4,30.8,24.9S15.6,52.2,25,64.8S52.3,80,65,70.6c11.1-8.3,14.6-23.4,8.4-35.7l-7.3,4.5
	C67.3,42,67.9,44.8,67.9,47.7z"/>
<path class="st0" d="M53.9,46.9c0,0.2,0,0.5,0,0.7c0,3.3-2.7,6-6,6s-6-2.7-6-6s2.7-6,6-6c1.2,0,2.3,0.4,3.2,1l2.9-3.9l0.7-1
	c-5.4-3.7-12.9-2.3-16.6,3.1c-3.7,5.4-2.3,12.9,3.1,16.6c5.4,3.7,12.9,2.3,16.6-3.1c1.4-2,2.1-4.3,2.1-6.7c0-0.6,0-1.2-0.1-1.7
	l-1.2,0.2L53.9,46.9z"/>
<path class="st0" d="M49.5,45.1c-0.5-0.3-1-0.4-1.5-0.4c-1.7,0-3,1.3-3,3s1.3,3,3,3s3-1.3,3-3c0-0.1,0-0.1,0-0.2l-3.6,0.6L49.5,45.1
	z"/>
</svg>
