<svg id="Capa_1" data-name="Capa 1" xmlns="http://www.w3.org/2000/svg" viewBox="0 0 41.73 45.77"><defs><style>.cls-1{fill:#fff;}</style></defs><title>multiempresa</title><path class="cls-1" d="M2.72,48.46a2.71,2.71,0,0,1-.5-.64.71.71,0,0,1,.7-.88c.42,0,.84,0,1.32,0V18.27c0-1,.22-1.19,1.18-1.19h6.05v-.52c0-1.87,0-3.73,0-5.59,0-.86.23-1.08,1.09-1.08h2V6.83c0-.81.25-1,1.08-1.06h3V4a4.87,4.87,0,0,1,0-.54.8.8,0,0,1,.77-.73.76.76,0,0,1,.76.78c0,.58,0,1.16,0,1.74v.54l.51,0c.89,0,1.79,0,2.68,0,.66,0,.92.27.93.93V9.85H25.9V8.46c0-.62,0-1.25,0-1.87a.74.74,0,0,1,.77-.81h14c1,0,1.22.19,1.22,1.23V46.93h1c.44,0,.84.06,1,.55s-.15.75-.49,1ZM33.07,26.34a3,3,0,0,1,.06-.38.78.78,0,0,1,.8-.64.77.77,0,0,1,.7.75,4.61,4.61,0,0,1,0,.53V46.9h5.64V7.35H27.47v19H30c.14-.7.34-1,.76-1a.63.63,0,0,1,.46.13,7.06,7.06,0,0,1,.52.88ZM18.64,46.9V18.65H5.82V46.89H9.41c0-1.07,0-2.11,0-3.15,0-.66.27-.92.92-.93,1.27,0,2.54,0,3.81,0,.64,0,.93.29.93.94,0,.89,0,1.78,0,2.68,0,.15,0,.31,0,.47Zm14.43,0v-19H20.26v19ZM20.22,23.78c0,.75,0,1.45,0,2.14,0,.33.09.44.43.44,1.58,0,3.16,0,4.74,0,.42,0,.53-.11.53-.52,0-4.64,0-9.27,0-13.9v-.48H13.05v5.62h6.16c.68,0,.9.19,1,.86a1.57,1.57,0,0,0,.07.18c.71,0,1.41,0,2.11,0s.92.32.91.77-.36.75-.92.77H20.22c0,.78,0,1.49,0,2.2,0,.31.11.38.39.38.67,0,1.35,0,2,0a.75.75,0,0,1,.17,1.45,1.88,1.88,0,0,1-.53.06ZM16.13,7.33V9.85h6.63V7.33ZM11,46.92l.5,0c0-.39,0-.75,0-1.1,0-.61.3-.94.79-.92s.74.35.75.92c0,.37,0,.73,0,1.1h.48V44.38H11Z" transform="translate(-2.19 -2.69)"/><path class="cls-1" d="M37.76,26.61a4.21,4.21,0,0,1,0,.62.77.77,0,0,1-.79.65.75.75,0,0,1-.71-.73,9.55,9.55,0,0,1,0-1.07.76.76,0,0,1,.73-.76.77.77,0,0,1,.78.71,3.72,3.72,0,0,1,0,.58Z" transform="translate(-2.19 -2.69)"/><path class="cls-1" d="M34.66,16.33c0,.21,0,.42,0,.62a.7.7,0,0,1-.7.63.63.63,0,0,1-.74-.51,6.27,6.27,0,0,1,0-1.5A.63.63,0,0,1,33.9,15a.71.71,0,0,1,.72.62C34.65,15.88,34.65,16.11,34.66,16.33Z" transform="translate(-2.19 -2.69)"/><path class="cls-1" d="M37.76,36.91c0,.22,0,.45,0,.66a.74.74,0,0,1-.79.59.72.72,0,0,1-.7-.69,10.46,10.46,0,0,1,0-1.12.74.74,0,0,1,.74-.74.77.77,0,0,1,.77.72,3.75,3.75,0,0,1,0,.58Z" transform="translate(-2.19 -2.69)"/><path class="cls-1" d="M37.76,16.33c0,.22,0,.45,0,.67a.75.75,0,0,1-.79.59.73.73,0,0,1-.7-.69,10.46,10.46,0,0,1,0-1.12A.75.75,0,0,1,37,15a.77.77,0,0,1,.77.72,3.75,3.75,0,0,1,0,.58Z" transform="translate(-2.19 -2.69)"/><path class="cls-1" d="M30,16.31c0-.2,0-.39,0-.58a.72.72,0,0,1,.7-.69.69.69,0,0,1,.77.59,5.38,5.38,0,0,1,0,1.33.7.7,0,0,1-.75.63.74.74,0,0,1-.73-.7A5.66,5.66,0,0,1,30,16.31Z" transform="translate(-2.19 -2.69)"/><path class="cls-1" d="M30,11.14a5.61,5.61,0,0,1,0-.58.69.69,0,0,1,.68-.65.67.67,0,0,1,.79.56,5.71,5.71,0,0,1,0,1.37.66.66,0,0,1-.77.59.69.69,0,0,1-.71-.67c0-.2,0-.41,0-.62Z" transform="translate(-2.19 -2.69)"/><path class="cls-1" d="M36.22,11.17a5.61,5.61,0,0,1,0-.58.7.7,0,0,1,.7-.68.69.69,0,0,1,.79.62,5.71,5.71,0,0,1,0,1.24.75.75,0,0,1-1.5-.07,4.73,4.73,0,0,1,0-.53Z" transform="translate(-2.19 -2.69)"/><path class="cls-1" d="M36.22,21.4a4.86,4.86,0,0,1,0-.54.72.72,0,0,1,.71-.67.68.68,0,0,1,.77.6,5.38,5.38,0,0,1,0,1.33.7.7,0,0,1-.81.6.71.71,0,0,1-.68-.7c0-.21,0-.42,0-.62Z" transform="translate(-2.19 -2.69)"/><path class="cls-1" d="M37.76,31.74a4.44,4.44,0,0,1,0,.63.74.74,0,0,1-.78.64.72.72,0,0,1-.72-.71,9.55,9.55,0,0,1,0-1.07.72.72,0,0,1,.72-.75.75.75,0,0,1,.8.73,4.69,4.69,0,0,1,0,.53Z" transform="translate(-2.19 -2.69)"/><path class="cls-1" d="M37.76,42.06a4.3,4.3,0,0,1,0,.62.72.72,0,0,1-.81.61.7.7,0,0,1-.69-.68,10.46,10.46,0,0,1,0-1.12.73.73,0,0,1,.7-.73.75.75,0,0,1,.81.67,4.42,4.42,0,0,1,0,.63Z" transform="translate(-2.19 -2.69)"/><path class="cls-1" d="M30,21.47c0-.21,0-.42,0-.62a.69.69,0,0,1,.68-.65.66.66,0,0,1,.79.56,5.24,5.24,0,0,1,0,1.37.66.66,0,0,1-.77.59.7.7,0,0,1-.7-.67,5.61,5.61,0,0,1,0-.58Z" transform="translate(-2.19 -2.69)"/><path class="cls-1" d="M34.66,11.18c0,.19,0,.4,0,.61a.68.68,0,0,1-.68.64.66.66,0,0,1-.78-.57,5.24,5.24,0,0,1,0-1.37.66.66,0,0,1,.77-.58.69.69,0,0,1,.7.67C34.65,10.78,34.65,11,34.66,11.18Z" transform="translate(-2.19 -2.69)"/><path class="cls-1" d="M34.66,21.47c0,.21,0,.42,0,.63a.7.7,0,0,1-.66.62.64.64,0,0,1-.78-.51,5.38,5.38,0,0,1,0-1.5A.63.63,0,0,1,34,20.2a.68.68,0,0,1,.67.61C34.65,21,34.65,21.25,34.66,21.47Z" transform="translate(-2.19 -2.69)"/><path class="cls-1" d="M9.9,28.64a5.61,5.61,0,0,1,0,.58.76.76,0,0,1-.72.72.77.77,0,0,1-.78-.67A5.71,5.71,0,0,1,8.4,28a.74.74,0,0,1,.78-.65.76.76,0,0,1,.72.73C9.91,28.28,9.9,28.46,9.9,28.64Z" transform="translate(-2.19 -2.69)"/><path class="cls-1" d="M16.08,28.68a5.61,5.61,0,0,1,0,.58.7.7,0,0,1-.71.67.66.66,0,0,1-.75-.56,5.62,5.62,0,0,1,0-1.42.67.67,0,0,1,.75-.57.73.73,0,0,1,.71.67A4.42,4.42,0,0,1,16.08,28.68Z" transform="translate(-2.19 -2.69)"/><path class="cls-1" d="M9.89,39a5.61,5.61,0,0,1,0,.58.71.71,0,0,1-.71.68.66.66,0,0,1-.75-.56,5.55,5.55,0,0,1,0-1.41.7.7,0,0,1,.79-.58.74.74,0,0,1,.68.71,5.56,5.56,0,0,1,0,.58Z" transform="translate(-2.19 -2.69)"/><path class="cls-1" d="M11.46,28.61a4.12,4.12,0,0,1,0-.6.69.69,0,0,1,.7-.62.64.64,0,0,1,.74.52,6.48,6.48,0,0,1,0,1.46.65.65,0,0,1-.75.56.7.7,0,0,1-.71-.67C11.47,29.05,11.47,28.84,11.46,28.61Z" transform="translate(-2.19 -2.69)"/><path class="cls-1" d="M11.46,38.88a4.08,4.08,0,0,1,0-.59.7.7,0,0,1,.71-.62.66.66,0,0,1,.74.58,5.71,5.71,0,0,1,0,1.37.71.71,0,0,1-.77.6.73.73,0,0,1-.7-.68C11.47,39.33,11.47,39.12,11.46,38.88Z" transform="translate(-2.19 -2.69)"/><path class="cls-1" d="M16.1,39c0,.21,0,.42,0,.62a.69.69,0,0,1-.69.64.64.64,0,0,1-.76-.54,5.62,5.62,0,0,1,0-1.42.7.7,0,0,1,.78-.58.74.74,0,0,1,.7.7c0,.19,0,.38,0,.58Z" transform="translate(-2.19 -2.69)"/><path class="cls-1" d="M9.89,23.5c0,.21,0,.42,0,.62a.69.69,0,0,1-.68.65.66.66,0,0,1-.79-.56,5.12,5.12,0,0,1,0-1.41.66.66,0,0,1,.8-.55.7.7,0,0,1,.66.67,5.61,5.61,0,0,1,0,.58Z" transform="translate(-2.19 -2.69)"/><path class="cls-1" d="M9.9,33.82c0,.17,0,.35,0,.53a.74.74,0,0,1-.72.72.72.72,0,0,1-.78-.64,5.8,5.8,0,0,1,0-1.25.75.75,0,0,1,1.5.06,5.56,5.56,0,0,1,0,.58Z" transform="translate(-2.19 -2.69)"/><path class="cls-1" d="M16.08,33.81a3.75,3.75,0,0,1,0,.58.68.68,0,0,1-.7.67.66.66,0,0,1-.77-.58,5.38,5.38,0,0,1,0-1.33.7.7,0,0,1,.8-.61.71.71,0,0,1,.69.69,5.61,5.61,0,0,1,0,.58Z" transform="translate(-2.19 -2.69)"/><path class="cls-1" d="M16.08,23.52a3.72,3.72,0,0,1,0,.58.69.69,0,0,1-.7.68.67.67,0,0,1-.77-.59,5.24,5.24,0,0,1,0-1.37.68.68,0,0,1,.79-.57.69.69,0,0,1,.68.65,4.28,4.28,0,0,1,0,.62Z" transform="translate(-2.19 -2.69)"/><path class="cls-1" d="M11.46,33.76a5.44,5.44,0,0,1,0-.57.7.7,0,0,1,.68-.65.66.66,0,0,1,.78.57,5.71,5.71,0,0,1,0,1.37.66.66,0,0,1-.77.58.68.68,0,0,1-.7-.67c0-.21,0-.42,0-.63Z" transform="translate(-2.19 -2.69)"/><path class="cls-1" d="M11.46,23.5c0-.19,0-.4,0-.6a.7.7,0,0,1,.68-.65.66.66,0,0,1,.78.57,5.71,5.71,0,0,1,0,1.37.66.66,0,0,1-.78.58.67.67,0,0,1-.69-.67A5.74,5.74,0,0,1,11.46,23.5Z" transform="translate(-2.19 -2.69)"/><path class="cls-1" d="M30.52,37.42v6.79a3.08,3.08,0,0,1,0,.53.74.74,0,0,1-1.43.13A1.58,1.58,0,0,1,29,44.3V30.5a1.58,1.58,0,0,1,.08-.57.67.67,0,0,1,.76-.48.69.69,0,0,1,.67.61,3.08,3.08,0,0,1,0,.53Z" transform="translate(-2.19 -2.69)"/><path class="cls-1" d="M24.34,37.37V44.2a3.08,3.08,0,0,1,0,.53.75.75,0,0,1-1.43.15,1.58,1.58,0,0,1-.08-.57q0-6.91,0-13.84a1.58,1.58,0,0,1,.07-.53.68.68,0,0,1,.76-.49.69.69,0,0,1,.68.64,3.2,3.2,0,0,1,0,.53Z" transform="translate(-2.19 -2.69)"/><path class="cls-1" d="M25.9,37.37V30.58a4,4,0,0,1,0-.49.69.69,0,0,1,.69-.64.68.68,0,0,1,.76.49,1.88,1.88,0,0,1,.07.53V44.35a1.55,1.55,0,0,1-.08.53.69.69,0,0,1-.77.47.71.71,0,0,1-.67-.62,4.61,4.61,0,0,1,0-.53Z" transform="translate(-2.19 -2.69)"/><path class="cls-1" d="M19.45,15.55H16.67a2.12,2.12,0,0,1-.44,0,.71.71,0,0,1-.62-.8A.69.69,0,0,1,16.3,14c.29,0,.59,0,.89,0h5a3.08,3.08,0,0,1,.53,0,.74.74,0,0,1,.11,1.43,1.58,1.58,0,0,1-.53.07Z" transform="translate(-2.19 -2.69)"/></svg>