<svg id="Capa_1" data-name="Capa 1" xmlns="http://www.w3.org/2000/svg" viewBox="0 0 46.86 45.38"><defs><style>.cls-1{fill:#fff;}</style></defs><title>multiplataforma</title><path class="cls-1" d="M5.49,22.41v-16a4.43,4.43,0,0,1,.82-2.84A4.23,4.23,0,0,1,9.89,1.94H44.14a4.34,4.34,0,0,1,2.78.85,4.13,4.13,0,0,1,1.62,3.44q0,13.74,0,27.47a4,4,0,0,1-3.07,4.15,5.47,5.47,0,0,1-1.4.16H32.43v3.53c1.14,0,2.26,0,3.37,0a2.88,2.88,0,0,1,.31,5.75c-.25,0-.49,0-.74,0H4.69A2.77,2.77,0,0,1,1.8,45.2a4.59,4.59,0,0,1-.1-1.11c0-6.15,0-12.3,0-18.44a3,3,0,0,1,3.26-3.24C5.09,22.42,5.25,22.41,5.49,22.41ZM19.61,36.65h24.5a2.75,2.75,0,0,0,3-3q0-13.62,0-27.23A4.2,4.2,0,0,0,47,5.31a2.71,2.71,0,0,0-2.92-2H9.91a2.74,2.74,0,0,0-3,3.05c0,5.15,0,10.31,0,15.46v.55H9.14V6.66c0-.87.18-1,1.06-1H35c.18,0,.4-.05.53,0s.49.38.5.6a.94.94,0,0,1-.42.65,1.37,1.37,0,0,1-.71.08H10.55V22.41h.57c1.8,0,3.61,0,5.41,0a2.86,2.86,0,0,1,3.06,3.05v3.85H43.47V7H34.62c-.21,0-.48,0-.61-.08a1.13,1.13,0,0,1-.4-.68c0-.2.29-.43.49-.57a1.14,1.14,0,0,1,.53,0h9.15c.94,0,1.09.16,1.09,1.11V29.55c0,1-.15,1.16-1.15,1.16H19.61ZM3.07,34.83v9.36c0,1.24.52,1.76,1.74,1.76H16.46a1.53,1.53,0,0,0,1.76-1.76V25.56c0-1.24-.54-1.78-1.78-1.78H4.83c-1.25,0-1.76.51-1.76,1.78ZM19.31,46H35.38a5.76,5.76,0,0,0,.59,0,1.46,1.46,0,0,0,1.28-1,1.51,1.51,0,0,0-1.56-2c-5.25,0-10.5,0-15.75,0l-.35,0c0,.52,0,1,0,1.49S19.41,45.41,19.31,46ZM31,38.06H23v3.46h8Zm-9.4,3.46V38.07h-2v3.45Z" transform="translate(-1.67 -1.94)"/><path class="cls-1" d="M27,35.7a2,2,0,1,1,0-4,2,2,0,0,1,2,2A2.05,2.05,0,0,1,27,35.7Zm.67-2a.65.65,0,0,0-.65-.64.61.61,0,0,0-.64.6.65.65,0,0,0,.62.67A.68.68,0,0,0,27.66,33.69Z" transform="translate(-1.67 -1.94)"/><path class="cls-1" d="M6.07,41.63h9.1V27.13H6.1c0,.19,0,.37,0,.56,0,2.54,0,5.07,0,7.61,0,.76-.19,1.08-.67,1.09s-.7-.33-.7-1.11V26.84c0-.94.16-1.11,1.1-1.11h9.76c.82,0,1,.19,1,1V42.05c0,.78-.2,1-1,1H5.68c-.77,0-1-.21-1-1,0-1.13,0-2.25,0-3.37a1.94,1.94,0,0,1,0-.34.63.63,0,0,1,.68-.62.61.61,0,0,1,.65.64c0,.63,0,1.27,0,1.9C6.08,40.7,6.07,41.14,6.07,41.63Z" transform="translate(-1.67 -1.94)"/><path class="cls-1" d="M10.62,43.78a.73.73,0,0,1,.75.73.77.77,0,0,1-.72.72.72.72,0,0,1-.73-.74A.69.69,0,0,1,10.62,43.78Z" transform="translate(-1.67 -1.94)"/></svg>