<svg id="Capa_1" data-name="Capa 1" xmlns="http://www.w3.org/2000/svg" viewBox="0 0 47.85 47.84"><defs><style>.cls-1{fill:#333333;}</style></defs><title>negocios</title><path class="cls-1" d="M48.92,49.27H1.1V47.69H4.22V30.12c-.72,0-1.43,0-2.14,0a.85.85,0,0,1-1-.57c-.15-.44.1-.73.43-1l10.84-8.51a.86.86,0,0,1,1.29,0l10.84,8.51c.32.25.58.54.43,1a.84.84,0,0,1-.95.57c-.7,0-1.4,0-2.14,0V47.65h6.3V11.8H25.89a.83.83,0,0,1-.84-.55.79.79,0,0,1,.33-.94l2.76-2.17,8-6.32.5-.39h.56l.47.37Q43,6,48.36,10.17a5.3,5.3,0,0,1,.56.6v.47a1.1,1.1,0,0,1-1.13.56c-.67,0-1.35,0-2,0V47.68h3.15Zm-15.16-5.6H32.21V42.11h9.5v1.58H40.17v4h4V11.54c0-.17,0-.34,0-.51a.78.78,0,0,1,.83-.82c.23,0,.47,0,.8,0a1.74,1.74,0,0,0-.23-.22Q41.4,6.72,37.26,3.46c-.27-.21-.42-.14-.64,0L28.47,9.91a2.91,2.91,0,0,1-.3.17l.1.13c.21,0,.42,0,.64,0a.79.79,0,0,1,.86.88c0,.15,0,.31,0,.46v36.1h4Zm-17.51,0v4h4v-18c0-.79.27-1.05,1.08-1.06h.59l-8.85-7L4.22,28.5l.33,0c1.14,0,1.3.18,1.3,1.31v17.8h4v-4H8.29V42.12h9.5v1.56Zm-4.78,0v3.94H14.6V43.7Zm23.93,0v3.95h3.15V43.7Z" transform="translate(-1.08 -1.43)"/><path class="cls-1" d="M24.44,1.43A1.13,1.13,0,0,1,25,2.56C25,3.75,25,5,25,6.17H23.41v-2l-.44.4q-4.14,4.15-8.29,8.29c-.69.7-1,.69-1.71,0L9.87,9.75l-7.38,7.4L1.36,16l.29-.31L9,8.31c.67-.67,1-.67,1.68,0l3.05,3.06L22.07,3H20.23V1.43Z" transform="translate(-1.08 -1.43)"/><path class="cls-1" d="M21,9.42h1.53V15H21Z" transform="translate(-1.08 -1.43)"/><path class="cls-1" d="M17.05,18.13v-4.7h1.54v4.7Z" transform="translate(-1.08 -1.43)"/><path class="cls-1" d="M21,16.6h1.53v1.54H21Z" transform="translate(-1.08 -1.43)"/><path class="cls-1" d="M18.58,21.34H17.07V19.79h1.51Z" transform="translate(-1.08 -1.43)"/><path class="cls-1" d="M32.94,29.37v1.54H31.41V29.37Z" transform="translate(-1.08 -1.43)"/><path class="cls-1" d="M42.51,30.92H41V29.37h1.52Z" transform="translate(-1.08 -1.43)"/><path class="cls-1" d="M32.93,11.77H31.4V10.25h1.53Z" transform="translate(-1.08 -1.43)"/><path class="cls-1" d="M34.59,11.77V10.23h1.53v1.54Z" transform="translate(-1.08 -1.43)"/><path class="cls-1" d="M37.78,11.76V10.23h1.55v1.53Z" transform="translate(-1.08 -1.43)"/><path class="cls-1" d="M42.52,11.77H41V10.24h1.54Z" transform="translate(-1.08 -1.43)"/><path class="cls-1" d="M31.41,13.41h1.53v1.53H31.41Z" transform="translate(-1.08 -1.43)"/><path class="cls-1" d="M36.13,13.42v1.52H34.6V13.42Z" transform="translate(-1.08 -1.43)"/><path class="cls-1" d="M37.79,15V13.42h1.54V15Z" transform="translate(-1.08 -1.43)"/><path class="cls-1" d="M41,14.94V13.42h1.55v1.52Z" transform="translate(-1.08 -1.43)"/><path class="cls-1" d="M31.4,18.14V16.6h1.53v1.54Z" transform="translate(-1.08 -1.43)"/><path class="cls-1" d="M34.59,16.6h1.54v1.53H34.59Z" transform="translate(-1.08 -1.43)"/><path class="cls-1" d="M39.32,18.15H37.8V16.6h1.52Z" transform="translate(-1.08 -1.43)"/><path class="cls-1" d="M42.52,16.6v1.54H41V16.6Z" transform="translate(-1.08 -1.43)"/><path class="cls-1" d="M33,19.8v1.51H31.4V19.8Z" transform="translate(-1.08 -1.43)"/><path class="cls-1" d="M42.51,21.34H41V19.79h1.51Z" transform="translate(-1.08 -1.43)"/><path class="cls-1" d="M36.13,8.59H34.6V7h1.53Z" transform="translate(-1.08 -1.43)"/><path class="cls-1" d="M39.33,7.05V8.59H37.79V7.05Z" transform="translate(-1.08 -1.43)"/><path class="cls-1" d="M36.12,21.33H34.59V19.79h1.53Z" transform="translate(-1.08 -1.43)"/><path class="cls-1" d="M34.57,26.18h1.55v1.56c-.45,0-.9,0-1.34,0-.08,0-.2-.15-.21-.23C34.55,27.07,34.57,26.64,34.57,26.18Z" transform="translate(-1.08 -1.43)"/><path class="cls-1" d="M37.76,26.15c.49,0,.92,0,1.35,0,.09,0,.17.16.24.25s0,.09,0,.13c0,1.28,0,1.33-1.3,1.19a.41.41,0,0,1-.28-.29C37.74,27,37.76,26.64,37.76,26.15Z" transform="translate(-1.08 -1.43)"/><path class="cls-1" d="M42.53,26.18v1.53H41V26.18Z" transform="translate(-1.08 -1.43)"/><path class="cls-1" d="M34.6,29.36h1.53v1.55H34.6Z" transform="translate(-1.08 -1.43)"/><path class="cls-1" d="M39.33,29.37v1.54H37.8V29.37Z" transform="translate(-1.08 -1.43)"/><path class="cls-1" d="M42.52,23v1.54H41V23Z" transform="translate(-1.08 -1.43)"/><path class="cls-1" d="M36.13,24.53l-.38,0c-1.46-.05-1.14.31-1.19-1.27,0-.24.08-.34.32-.33,1.59.05,1.24-.29,1.28,1.23C36.16,24.28,36.14,24.39,36.13,24.53Z" transform="translate(-1.08 -1.43)"/><path class="cls-1" d="M31.39,27.7V26.19h1.55V27.7Z" transform="translate(-1.08 -1.43)"/><path class="cls-1" d="M37.76,24.55c0-.49,0-.92,0-1.34,0-.09.17-.24.28-.25,1.26-.13,1.42,0,1.29,1.29,0,.1-.15.28-.25.28C38.68,24.56,38.25,24.55,37.76,24.55Z" transform="translate(-1.08 -1.43)"/><path class="cls-1" d="M33,23v1.52H31.4V23Z" transform="translate(-1.08 -1.43)"/><path class="cls-1" d="M39.33,19.79v1.54H37.8V19.79Z" transform="translate(-1.08 -1.43)"/><path class="cls-1" d="M17.05,33.27V31.76H18.6v1.51Z" transform="translate(-1.08 -1.43)"/><path class="cls-1" d="M9,31.76v1.51H7.48V31.76Z" transform="translate(-1.08 -1.43)"/><path class="cls-1" d="M10.67,25.37h1.54V26.9H10.67Z" transform="translate(-1.08 -1.43)"/><path class="cls-1" d="M13.87,25.37h1.54v1.55H13.87Z" transform="translate(-1.08 -1.43)"/><path class="cls-1" d="M7.47,30.1V28.56H9V30.1Z" transform="translate(-1.08 -1.43)"/><path class="cls-1" d="M12.19,30.11H10.68V28.56h1.51Z" transform="translate(-1.08 -1.43)"/><path class="cls-1" d="M15.4,30.1H13.87V28.57H15.4Z" transform="translate(-1.08 -1.43)"/><path class="cls-1" d="M17.07,28.55h1.51v1.54H17.07Z" transform="translate(-1.08 -1.43)"/><path class="cls-1" d="M12.21,31.76v1.52H10.67V31.76Z" transform="translate(-1.08 -1.43)"/><path class="cls-1" d="M15.41,31.75v1.53H13.88V31.75Z" transform="translate(-1.08 -1.43)"/><path class="cls-1" d="M9,36.48H7.48V35H9Z" transform="translate(-1.08 -1.43)"/><path class="cls-1" d="M12.21,34.91v1.57H10.64c0-.47,0-.92,0-1.38,0-.07.17-.18.26-.18C11.32,34.9,11.74,34.91,12.21,34.91Z" transform="translate(-1.08 -1.43)"/><path class="cls-1" d="M13.84,36.51c0-.49,0-.92,0-1.34a.41.41,0,0,1,.29-.25c1.26-.13,1.41,0,1.28,1.29,0,.1-.15.28-.24.28C14.75,36.52,14.32,36.51,13.84,36.51Z" transform="translate(-1.08 -1.43)"/><path class="cls-1" d="M9,38.14v1.53H7.47V38.14Z" transform="translate(-1.08 -1.43)"/><path class="cls-1" d="M10.64,38.13H12.2V39.7c-.45,0-.88,0-1.31,0a.31.31,0,0,1-.24-.2C10.63,39.05,10.64,38.6,10.64,38.13Z" transform="translate(-1.08 -1.43)"/><path class="cls-1" d="M15.43,38.14c0,.46,0,.89,0,1.32,0,.08-.13.23-.2.23-.44,0-.89,0-1.36,0V38.14Z" transform="translate(-1.08 -1.43)"/><path class="cls-1" d="M17.06,39.67V38.14H18.6v1.53Z" transform="translate(-1.08 -1.43)"/><path class="cls-1" d="M18.59,36.48H17.06V34.94h1.53Z" transform="translate(-1.08 -1.43)"/></svg>