<?xml version="1.0" encoding="utf-8"?>
<!-- Generator: Adobe Illustrator 24.0.2, SVG Export Plug-In . SVG Version: 6.00 Build 0)  -->
<svg version="1.1" id="Capa_1" xmlns="http://www.w3.org/2000/svg" xmlns:xlink="http://www.w3.org/1999/xlink" x="0px" y="0px"
	 viewBox="0 0 40 40" style="enable-background:new 0 0 40 40;" xml:space="preserve">
<style type="text/css">
	.st0{fill:#82B23E;}
	.st1{fill:#FFFFFF;}
</style>
<circle class="st0" cx="20" cy="20" r="19.4"/>
<g>
	<path class="st1" d="M27.2,29c-2.5,0-4.5-2-4.5-4.5s2-4.5,4.5-4.5c2.5,0,4.5,2,4.5,4.5S29.7,29,27.2,29z M27.2,20.7
		c-2.1,0-3.8,1.7-3.8,3.8s1.7,3.8,3.8,3.8s3.8-1.7,3.8-3.8S29.3,20.7,27.2,20.7z"/>
	<g>
		<g>
			<g>
				<g>
					<path class="st1" d="M28.6,23.6c0,0.1,0,0.2-0.1,0.3l-2,2c-0.1,0.1-0.4,0.1-0.5,0c-0.1-0.1-0.1-0.4,0-0.5l2-2
						c0.1-0.1,0.4-0.1,0.5,0C28.5,23.4,28.6,23.5,28.6,23.6z"/>
				</g>
			</g>
			<g>
				<g>
					<path class="st1" d="M28.6,25.6c0,0.1,0,0.2-0.1,0.3c-0.1,0.1-0.4,0.1-0.5,0l-2-2c-0.1-0.1-0.1-0.4,0-0.5
						c0.1-0.1,0.4-0.1,0.5,0l2,2C28.5,25.4,28.6,25.5,28.6,25.6z"/>
				</g>
			</g>
		</g>
	</g>
	<g>
		<path class="st1" d="M21.8,23.1c0-0.3,0-0.5,0-0.8c0.6,0,1.3,0,1.9,0c0,0,0,0,0,0.1c0.2-0.3,0.3-0.5,0.6-0.7c-2.1,0-4.2,0-6.2,0
			c-0.4,0-0.7-0.2-0.7-0.5c0,0,0-0.1,0-0.1c2.6,0,5.2,0,7.8,0c0.6-0.4,1.4-0.7,2.2-0.7c0.6,0,1.1,0.1,1.6,0.3c0-0.1,0-0.3,0-0.4
			c0-2,0-3.9,0-5.9c0-0.7-0.6-1.3-1.3-1.3c-3.2,0-6.5,0-9.7,0c-0.7,0-1.3,0.6-1.3,1.3c0,2.2,0,4.4,0,6.7c0,0.6,0.4,1.1,1,1.2
			c0.2,0,0.3,0,0.5,0c1,0,2,0,3,0c0,0.3,0,0.5,0,0.8c-0.4,0-0.7,0-1.1,0c-0.2,0-0.3,0.1-0.3,0.3c0,0.2,0.1,0.3,0.3,0.3
			c0.1,0,0.1,0,0.2,0c0.7,0,1.5,0,2.2,0c0.3,0,0.5,0,0.8,0c0-0.2,0.1-0.4,0.2-0.7C22.9,23.1,22.3,23.1,21.8,23.1z M17.3,20.2
			c0-1.9,0-3.7,0-5.6c0-0.5,0.2-0.8,0.8-0.8c3.1,0,6.3,0,9.4,0c0.5,0,0.8,0.2,0.8,0.8c0,1.9,0,3.8,0,5.7c0,0.1,0,0.1,0,0.2
			c-3.7,0-7.3,0-11,0C17.3,20.3,17.3,20.2,17.3,20.2z"/>
		<path class="st1" d="M13.6,14.1c0-0.4-0.3-0.7-0.7-0.7c-1.3,0-2.5,0-3.8,0c-0.4,0-0.7,0.3-0.7,0.7c0,1.6-0.1,3.2-0.1,4.8
			c0,0,0,0,0,0c0,1.6-0.1,3.1-0.1,4.7c0,0.5,0.2,0.8,0.8,0.8c1.3,0,2.7,0,4,0c0.5,0,0.8-0.2,0.7-0.8C13.7,20.5,13.7,17.3,13.6,14.1z
			 M9.1,14.1c1.3,0,2.6,0,3.9,0c0,0.3,0,0.6,0,0.9c-1.3,0-2.6,0-3.9,0C9.1,14.7,9.1,14.4,9.1,14.1z M13,15.7c0,0.3,0,0.6,0,0.9
			c-1.3,0-2.6,0-3.8,0c0-0.3,0-0.6,0-0.9C10.4,15.7,11.7,15.7,13,15.7z M8.9,23.8C9,21.6,9,19.5,9,17.4c1.3,0,2.6,0,4,0
			c0,2.2,0.1,4.3,0.1,6.4C11.7,23.8,10.3,23.8,8.9,23.8z"/>
		<path class="st1" d="M17.3,26.4c0-0.1,0-0.1,0.1-0.1c0.3-0.4,0.5-0.9,0.8-1.3c0.1-0.1,0.1-0.2,0.3-0.2c1.6,0,3.2,0,4.7,0
			c0-0.1,0-0.1,0-0.2c0-0.1,0-0.3,0-0.4c-1.6,0-3.2,0-4.8,0c-0.3,0-0.5,0.1-0.7,0.4c-0.3,0.5-0.6,1-0.9,1.5
			c-0.2,0.2-0.2,0.5-0.1,0.8c0.1,0.3,0.4,0.3,0.7,0.3c1.8,0,3.6,0,5.4,0c0.4,0,0.8,0,1.2,0c-0.2-0.2-0.3-0.4-0.4-0.7
			C21.5,26.4,19.4,26.4,17.3,26.4z"/>
		<path class="st1" d="M16,24.7c-0.1-0.2-0.2-0.3-0.4-0.3c-0.2,0-0.5,0-0.7,0c-0.2,0-0.5,0-0.7,0c-0.1,0-0.3,0.1-0.3,0.2
			c-0.1,0.3-0.2,0.7-0.3,1c-0.1,0.5,0.3,1,0.8,1.2c0.5,0.2,1,0.1,1.4-0.2c0.4-0.4,0.5-0.8,0.4-1.3C16.1,25.2,16,24.9,16,24.7z
			 M15.2,26.3c-0.2,0.1-0.4,0.1-0.6-0.1c-0.2-0.1-0.3-0.3-0.3-0.6c0-0.2,0.1-0.4,0.2-0.6c0.2,0,0.3,0,0.4,0c0.5,0,0.5,0,0.6,0.5
			C15.6,25.9,15.5,26.2,15.2,26.3z"/>
		<path class="st1" d="M11,20.4c-0.7,0-1.3,0.6-1.3,1.3c0,0.7,0.6,1.3,1.3,1.3c0.7,0,1.3-0.6,1.3-1.3C12.3,21,11.8,20.4,11,20.4z
			 M11,22.3c-0.4,0-0.6-0.3-0.6-0.6c0-0.4,0.3-0.6,0.6-0.7c0.4,0,0.6,0.3,0.7,0.6C11.7,22,11.4,22.3,11,22.3z"/>
		<path class="st1" d="M11.7,18.6c0,0,0.1,0,0.1,0c0,0,0,0,0,0c0.1,0,0.1,0,0.2,0c0.2,0,0.3-0.2,0.3-0.3c0-0.2-0.1-0.3-0.3-0.3
			c-0.1,0-0.2,0-0.3,0c-0.2,0-0.4,0.1-0.4,0.3C11.4,18.5,11.5,18.6,11.7,18.6z"/>
		<path class="st1" d="M10.2,18.6c0.3,0,0.5-0.1,0.5-0.3c0-0.2-0.1-0.3-0.5-0.3c-0.3,0-0.5,0.1-0.5,0.3C9.8,18.5,9.9,18.6,10.2,18.6
			z"/>
		<path class="st1" d="M11.9,19.9c0.3,0,0.5-0.1,0.5-0.3c0-0.2-0.1-0.3-0.5-0.3c-0.3,0-0.5,0.1-0.5,0.3
			C11.4,19.8,11.5,19.9,11.9,19.9z"/>
		<path class="st1" d="M10.2,19.9c0.3,0,0.5-0.1,0.5-0.3c0-0.2-0.2-0.3-0.5-0.3c-0.3,0-0.5,0.1-0.5,0.3C9.8,19.8,9.9,19.9,10.2,19.9
			z"/>
	</g>
</g>
</svg>
