<?xml version="1.0" encoding="utf-8"?>
<!-- Generator: Adobe Illustrator 24.0.2, SVG Export Plug-In . SVG Version: 6.00 Build 0)  -->
<svg version="1.1" id="Capa_1" xmlns="http://www.w3.org/2000/svg" xmlns:xlink="http://www.w3.org/1999/xlink" x="0px" y="0px"
	 viewBox="0 0 40 40" style="enable-background:new 0 0 40 40;" xml:space="preserve">
<style type="text/css">
	.st0{fill:#82B23E;}
	.st1{fill:#FFFFFF;}
</style>
<circle class="st0" cx="20" cy="20" r="19.4"/>
<g>
	<path class="st1" d="M25.7,26.7c-2.5,0-4.5-2-4.5-4.5s2-4.5,4.5-4.5c2.5,0,4.5,2,4.5,4.5S28.1,26.7,25.7,26.7z M25.7,18.4
		c-2.1,0-3.8,1.7-3.8,3.8s1.7,3.8,3.8,3.8s3.8-1.7,3.8-3.8S27.8,18.4,25.7,18.4z"/>
	<g>
		<g>
			<g>
				<g>
					<path class="st1" d="M25.6,23l-0.3,0.4c-0.1,0.1-0.3,0.2-0.4,0l-0.4-0.3l-0.2-0.2c-0.2-0.1-0.2-0.4-0.1-0.6
						c0.1-0.2,0.4-0.2,0.6-0.1l0.2,0.2L25.6,23z"/>
				</g>
			</g>
			<g>
				<g>
					<path class="st1" d="M27,21.3L25.6,23l-0.3,0.4c-0.1,0.1-0.3,0.1-0.4,0l-0.4-0.3l0.5-0.6l1.4-1.7c0.1-0.2,0.4-0.2,0.6-0.1
						C27.2,20.9,27.2,21.1,27,21.3z"/>
				</g>
			</g>
		</g>
	</g>
	<g>
		<path class="st1" d="M23.2,15.1c-0.3,0-0.5,0-0.8,0.1c-0.9-1.5-2.4-2.4-4.1-2.4c-2.2,0-4,1.5-4.6,3.6c-0.1,0-0.1,0-0.2,0
			c-2,0-3.7,1.7-3.7,3.7c0,0.9,0.4,2.6,1,3.4c0.1,0.1,0.2,0.1,0.3,0.1h5.5c0.2,0,0.4-0.2,0.4-0.4c0-0.2-0.2-0.4-0.4-0.4h-5.3
			c-0.4-0.6-0.7-1.8-0.7-2.6c0-1.6,1.3-2.9,2.8-2.9c0.1,0,0.3,0,0.5,0c0.2,0,0.4-0.1,0.5-0.3c0.3-1.9,2-3.3,3.8-3.3
			c1.5,0,2.8,0.8,3.5,2.2c0.1,0.2,0.3,0.3,0.5,0.2c0.3-0.1,0.6-0.1,0.9-0.1c1.5,0,2.8,0.9,3.5,2.2c0.4,0.1,0.8,0.2,1.1,0.4
			C27.2,16.5,25.3,15.1,23.2,15.1z"/>
		<path class="st1" d="M20.7,20.9l-1.5-2.1c-0.1-0.1-0.2-0.2-0.3-0.2c-0.1,0-0.3,0.1-0.3,0.2L17,20.9c-0.1,0.1-0.1,0.2-0.1,0.3
			c0,0.1,0.1,0.2,0.2,0.3c0.1,0.1,0.2,0.1,0.3,0.1c0.1,0,0.2-0.1,0.3-0.2l0.7-1v6.5c0,0.2,0.2,0.4,0.4,0.4c0.2,0,0.4-0.2,0.4-0.4
			v-6.5l0.7,1c0.1,0.2,0.4,0.2,0.6,0.1c0.1-0.1,0.2-0.2,0.2-0.3C20.8,21.1,20.8,21,20.7,20.9z"/>
	</g>
</g>
</svg>
