<?xml version="1.0" encoding="utf-8"?>
<!-- Generator: Adobe Illustrator 24.0.2, SVG Export Plug-In . SVG Version: 6.00 Build 0)  -->
<svg version="1.1" id="Capa_1" xmlns="http://www.w3.org/2000/svg" xmlns:xlink="http://www.w3.org/1999/xlink" x="0px" y="0px"
	 viewBox="0 0 40 40" style="enable-background:new 0 0 40 40;" xml:space="preserve">
<style type="text/css">
	.st0{fill:#82B23E;}
	.st1{fill:#FFFFFF;}
</style>
<circle class="st0" cx="20" cy="20" r="19.4"/>
<g>
	<path class="st1" d="M26.1,29.2c-2.5,0-4.5-2-4.5-4.5s2-4.5,4.5-4.5s4.5,2,4.5,4.5S28.5,29.2,26.1,29.2z M26.1,20.9
		c-2.1,0-3.8,1.7-3.8,3.8s1.7,3.8,3.8,3.8s3.8-1.7,3.8-3.8S28.1,20.9,26.1,20.9z"/>
	<g>
		<g>
			<g>
				<g>
					<path class="st1" d="M27.4,23.6c0,0.1,0,0.2-0.1,0.3l-2,2c-0.1,0.1-0.4,0.1-0.5,0c-0.1-0.1-0.1-0.4,0-0.5l2-2
						c0.1-0.1,0.4-0.1,0.5,0C27.4,23.5,27.4,23.6,27.4,23.6z"/>
				</g>
			</g>
			<g>
				<g>
					<path class="st1" d="M27.4,25.7c0,0.1,0,0.2-0.1,0.3c-0.1,0.1-0.4,0.1-0.5,0l-2-2c-0.1-0.1-0.1-0.4,0-0.5
						c0.1-0.1,0.4-0.1,0.5,0l2,2C27.4,25.5,27.4,25.6,27.4,25.7z"/>
				</g>
			</g>
		</g>
	</g>
	<g>
		<path class="st1" d="M16.7,25v-5l0,0c0,0,0-1.5,0-1.5c0-0.1,0-0.2-0.1-0.3c-0.1-0.1-0.1-0.1-0.2-0.1c0,0,0-0.1,0-0.1
			c-0.2,0-0.3,0.3-0.3,0.5c0,1.7,0,4.9,0,6.6c0,0.4,0.2,0.6,0.6,0.6c1.1,0,2.1,0,3.2,0l1.1,0l-5.4,0.9l-2.2-12.8l2.8-0.5l0,1
			c0,1.4,0,2.7,0,4.1c0,0.1,0,0.2,0,0.2c0,0.2,0.2,0.2,0.3,0.2c0.2,0,0.3-0.1,0.3-0.3c0-0.1,0-0.1,0-0.2l0-7h8.1l0,0.3l0,0.8l0,0.1
			c0,0.1,0,0.2,0,0.3c0,0.4,0.3,0.7,0.7,0.7c0.4,0,0.8,0,1.2,0c0.2,0,0.3,0,0.5,0c0,0,0.1,0,0.1,0h0v6.9c0.2,0.1,0.5,0.2,0.7,0.3
			c0-2.4,0-4.9,0-7.4c0-0.2-0.1-0.4-0.2-0.5c-0.6-0.6-1.3-1.3-2-2c-0.2-0.2-0.4-0.3-0.6-0.3c0,0,0,0,0,0c-2.2,0-4.4,0-6.6,0l-1.8,0
			l0,0c0,0-0.1,0-0.1,0c-0.3,0-0.5,0.2-0.5,0.6c0,0.2,0,0.3,0,0.5c0,0.1,0,0.1,0,0.2v0.7l-0.9,0.2c-0.7,0.1-1.3,0.2-2,0.3
			c-0.2,0-0.4,0.1-0.5,0.2c-0.1,0.1-0.1,0.3-0.1,0.5c0,0.2,0.1,0.3,0.1,0.5l0,0.2l0,0c0,0-0.1,0-0.1,0c-0.2,0.1-0.5,0.2-0.7,0.2
			c-0.6,0.2-1.3,0.4-1.9,0.7c-0.2,0.1-0.4,0.2-0.5,0.4l0,0v0.3l0,0c0,0,0,0,0,0c0,0,0,0,0,0l1.9,5.3l0,0c0,0.1,0.6,1.7,0.6,1.7
			c0.1,0.1,0.2,0.2,0.4,0.1c0.2-0.1,0.2-0.2,0.2-0.4c0,0-0.6-1.6-0.6-1.7c0,0,0,0,0,0l-0.7-1.8c-0.3-0.9-0.6-1.8-1-2.7
			c-0.1-0.2-0.1-0.3-0.2-0.5l-0.1-0.2l2.7-0.9L13,16c0.1,0.5,0.2,1.1,0.3,1.6l0.4,2.5c0.2,1.2,0.4,2.3,0.6,3.5l0,0.1
			c0.2,1.1,0.4,2.2,0.6,3.2c0.1,0.3,0.3,0.5,0.6,0.5c0.7-0.1,1.4-0.2,2-0.4c0.5-0.1,0.9-0.2,1.4-0.2c0.3-0.1,0.7-0.1,1.1-0.2
			l-5.4,1.9l0,0c0,0,0-0.1,0-0.1l-1.7-4.7c0-0.1-0.1-0.1-0.1-0.2c-0.1-0.2-0.2-0.5-0.2-0.7c-0.1-0.2-0.2-0.3-0.4-0.2
			c-0.2,0.1-0.2,0.2-0.2,0.4c0,0,0,0.1,0,0.1l0,0c0.7,1.9,1.3,3.8,2,5.6c0.1,0.2,0.2,0.3,0.3,0.4c0.1,0,0.1,0,0.2,0
			c0.1,0,0.2,0,0.3-0.1c0.7-0.3,1.5-0.5,2.2-0.8c1.7-0.6,3.5-1.3,5.3-1.9C22.1,26,22,25.5,21.9,25H16.7z M25.5,12c0-0.1,0-0.2,0-0.3
			l1.4,1.4c-0.2,0-0.3,0-0.5,0c-0.1,0-0.3,0-0.4,0c-0.1,0-0.3,0-0.4,0c-0.1,0-0.1,0-0.1,0c0,0,0-0.1,0-0.1
			C25.5,12.7,25.5,12.4,25.5,12z"/>
		<path class="st1" d="M25.9,18.6C25.9,18.6,25.9,18.6,25.9,18.6l-1.2,0c-2.1,0-4.3,0-6.4,0c0,0,0,0,0,0c-0.1,0-0.1,0-0.2,0
			c-0.2,0-0.3,0.2-0.3,0.3c0,0.2,0.1,0.3,0.3,0.3c0,0,0.1,0,0.1,0c0,0,0,0,0,0c0,0,0,0,0,0c1,0,1.9,0,2.9,0h4.6c0,0,0,0,0,0
			c0,0,0.1,0,0.1,0c0.2,0,0.3-0.1,0.3-0.3C26.3,18.7,26.1,18.6,25.9,18.6z"/>
		<path class="st1" d="M18.2,17.3C18.2,17.3,18.2,17.3,18.2,17.3c0.1,0,0.1,0,0.1,0l0.8,0c2.2,0,4.5,0,6.7,0c0,0,0,0,0,0
			c0.1,0,0.2,0,0.2,0c0.1-0.1,0.2-0.2,0.2-0.3c0-0.2-0.1-0.3-0.3-0.3c-0.1,0-0.1,0-0.2,0l0,0c-1,0-2.1,0-3.1,0h-3.9
			c-0.1,0-0.1,0-0.2,0c-0.1,0-0.3,0-0.4,0c-0.2,0-0.3,0.1-0.3,0.3C17.9,17.2,18,17.3,18.2,17.3z"/>
		<path class="st1" d="M24.8,20.5c-2.1,0-4.3,0-6.4,0c-0.1,0-0.2,0-0.2,0c-0.2,0.1-0.2,0.2-0.2,0.3c0,0.1,0.1,0.2,0.2,0.3
			c0,0,0.1,0,0.1,0c0,0,0,0,0.1,0c0,0,0,0,0,0c1,0,2.1,0,3.1,0l1.7,0c0.2,0,0.4,0,0.7,0c0.5-0.4,1.2-0.6,1.9-0.7L24.8,20.5z"/>
		<path class="st1" d="M18.1,15.4c0.1,0,0.1,0,0.2,0h0c1.3,0,2.6,0,4,0c1.1,0,2.3,0,3.4,0h0c0.1,0,0.1,0,0.2,0
			c0.2,0,0.3-0.1,0.3-0.3c0-0.2-0.1-0.3-0.3-0.3c-0.1,0-0.1,0-0.2,0l0,0c-1.1,0-2.2,0-3.2,0h-1.1c-1,0-2,0-3,0h0c-0.1,0-0.1,0-0.2,0
			c-0.2,0-0.3,0.2-0.2,0.3C17.9,15.2,18,15.4,18.1,15.4z"/>
		<path class="st1" d="M21.6,22.4c-1.1,0-2.2,0-3.2,0c0,0,0,0,0,0c0,0,0,0-0.1,0c-0.1,0-0.1,0-0.2,0c-0.1,0.1-0.2,0.1-0.2,0.3
			c0,0.1,0,0.1,0,0.2c0,0.1,0.1,0.1,0.2,0.2c0.1,0,0.2,0,0.2,0c1.3,0,2.6,0,3.9,0c0.1-0.2,0.2-0.5,0.3-0.7H21.6z"/>
	</g>
</g>
</svg>
