<?xml version="1.0" encoding="utf-8"?>
<!-- Generator: Adobe Illustrator 24.0.2, SVG Export Plug-In . SVG Version: 6.00 Build 0)  -->
<svg version="1.1" id="Capa_1" xmlns="http://www.w3.org/2000/svg" xmlns:xlink="http://www.w3.org/1999/xlink" x="0px" y="0px"
	 viewBox="0 0 40 40" style="enable-background:new 0 0 40 40;" xml:space="preserve">
<style type="text/css">
	.st0{fill:#82B23E;}
	.st1{fill:#FFFFFF;}
</style>
<circle class="st0" cx="20" cy="19.9" r="19.4"/>
<g>
	<path class="st1" d="M25.4,29.3c-2.5,0-4.5-2-4.5-4.5c0-2.5,2-4.5,4.5-4.5c2.5,0,4.5,2,4.5,4.5C29.9,27.3,27.9,29.3,25.4,29.3z
		 M25.4,21c-2.1,0-3.8,1.7-3.8,3.8s1.7,3.8,3.8,3.8s3.8-1.7,3.8-3.8S27.5,21,25.4,21z"/>
	<g>
		<path class="st1" d="M20.4,27.4c-2.4,0.4-4.6-0.2-6.5-1.7c0,0,0-0.1,0-0.1c0-0.2,0-0.4,0-0.7c0-0.6,0-1.3,0-1.9
			c0.1-1.7,1.4-3,3.1-3c0.3,0,0.5,0,0.8,0c0.2,0,0.4,0,0.6,0c0.2,0,0.4,0,0.6,0c0.2,0,0.4,0,0.6,0c0.5,0,0.9,0,1.4,0
			c1,0,1.9,0.4,2.5,1.1c0.3-0.1,0.5-0.3,0.8-0.3c-0.3-0.5-0.8-0.9-1.4-1.2c-0.5-0.3-1.2-0.4-1.9-0.4c0,0,0,0,0,0c-0.6,0-1.1,0-1.7,0
			c-0.8,0-1.5,0-2.3,0c-1.8,0-3.2,1-3.8,2.7c-0.1,0.4-0.2,0.8-0.2,1.4c0,0.4,0,0.8,0,1.1c0,0.1,0,0.3,0,0.4
			c-2.9-3.1-2.8-8.1,0.3-11.2c1.5-1.5,3.6-2.4,5.7-2.4c0.1,0,0.1,0,0.2,0c2.3,0.1,4.4,1,5.9,2.7c1.9,2.1,2.4,4.7,1.9,7
			c0.3,0.1,0.6,0.3,0.8,0.4c0.1-0.3,0.1-0.5,0.2-0.8c0.2-1.5,0-3-0.7-4.6c-0.7-1.7-1.7-3-3.1-4c-1.3-0.9-2.9-1.5-4.8-1.6
			c-1.6-0.1-3.2,0.2-4.6,1c-2.5,1.4-4.1,3.5-4.6,6.4c0,0.2-0.1,0.5-0.1,0.7c0,0.1,0,0.2,0,0.3l0,1.1l0,0c0,0.1,0,0.2,0,0.3
			c0,0.2,0.1,0.5,0.1,0.7c0.6,3,2.3,5.2,5,6.6c1,0.5,2,0.7,3.2,0.8c0,0,0,0,0.1,0c0,0,0,0,0,0l1.1,0l0,0c0.1,0,0.2,0,0.3,0
			c0.2,0,0.5-0.1,0.8-0.1c0.7-0.1,1.3-0.3,1.9-0.5c-0.2-0.2-0.4-0.4-0.5-0.7C21.5,27.2,21,27.3,20.4,27.4z"/>
		<path class="st1" d="M19,12.8C19,12.8,19,12.8,19,12.8c-1.7,0-3.1,1.4-3.1,3.1c0,1.7,1.4,3.1,3.1,3.1c0,0,0,0,0,0
			c0.8,0,1.6-0.3,2.2-0.9c0.6-0.6,0.9-1.4,0.9-2.2C22.1,14.1,20.7,12.8,19,12.8z M20.6,17.4c-0.4,0.4-1,0.7-1.6,0.7
			c-0.6,0-1.2-0.2-1.6-0.7c-0.4-0.4-0.7-1-0.6-1.6c0-1.2,1-2.2,2.2-2.2c0,0,0,0,0,0c0.6,0,1.2,0.2,1.6,0.7c0.4,0.4,0.7,1,0.7,1.6
			C21.3,16.4,21,17,20.6,17.4z"/>
	</g>
	<g>
		<g>
			<g>
				<g>
					<path class="st1" d="M27,25.1c-0.1,0.1-0.2,0.1-0.3,0.1h-2.9c-0.2,0-0.4-0.2-0.4-0.4c0-0.2,0.2-0.4,0.4-0.4h2.9
						c0.2,0,0.4,0.2,0.4,0.4C27.1,25,27.1,25.1,27,25.1z"/>
				</g>
			</g>
			<g>
				<g>
					<path class="st1" d="M25.6,26.5c-0.1,0.1-0.2,0.1-0.3,0.1c-0.2,0-0.4-0.2-0.4-0.4l0-2.9c0-0.2,0.2-0.4,0.4-0.4
						c0.2,0,0.4,0.2,0.4,0.4v2.9C25.7,26.4,25.7,26.5,25.6,26.5z"/>
				</g>
			</g>
		</g>
	</g>
</g>
</svg>
