<svg id="Capa_1" data-name="Capa 1" xmlns="http://www.w3.org/2000/svg" viewBox="0 0 38.82 38.82"><defs><style>.cls-1{fill:#82b23e;}.cls-2{fill:#fff;}</style></defs><title>nos diferencia 1</title><circle class="cls-1" cx="19.41" cy="19.41" r="19.41"/><path class="cls-2" d="M22.34,27.93v-.36h-11V21a.36.36,0,0,0-.72,0v6.9a.36.36,0,0,0,.36.36H22.7A.36.36,0,0,1,22.34,27.93Z" transform="translate(-0.72 -0.59)"/><path class="cls-2" d="M11,13.25h.36V11.31H27.64v1.94h.47a.19.19,0,0,1,.09.05h0l0,0h0l0,0h0v0h0v0h0v0h0l0,.07V11a.36.36,0,0,0-.36-.36H11a.36.36,0,0,0-.36.36v2.59l0-.07A.36.36,0,0,1,11,13.25Z" transform="translate(-0.72 -0.59)"/><path class="cls-2" d="M14.21,21.74a.36.36,0,0,0-.36.36v3.71a.36.36,0,0,0,.36.36h5.3a.36.36,0,0,0,.36-.36V22.1a.36.36,0,0,0-.36-.36Zm4.94,3.71H14.57v-3h4.58Z" transform="translate(-0.72 -0.59)"/><path class="cls-2" d="M22.34,27.11v.46h.26A5,5,0,0,1,22.34,27.11Z" transform="translate(-0.72 -0.59)"/><path class="cls-2" d="M22.34,27.57v.36a.36.36,0,0,0,.36.36h.49a4.52,4.52,0,0,1-.59-.72Z" transform="translate(-0.72 -0.59)"/><path class="cls-2" d="M29.42,16.19v0Z" transform="translate(-0.72 -0.59)"/><path class="cls-2" d="M29.4,16.13h0Z" transform="translate(-0.72 -0.59)"/><path class="cls-2" d="M28.36,13.68A.38.38,0,0,1,28,14h-.24l.77,1.93h.53a.38.38,0,0,1,.34.22l-1-2.58v.14Z" transform="translate(-0.72 -0.59)"/><path class="cls-2" d="M29.41,16.16h0Z" transform="translate(-0.72 -0.59)"/><path class="cls-2" d="M29.42,16.26h0Z" transform="translate(-0.72 -0.59)"/><path class="cls-2" d="M29.42,16.23v0Z" transform="translate(-0.72 -0.59)"/><path class="cls-2" d="M28.32,13.44h0Z" transform="translate(-0.72 -0.59)"/><path class="cls-2" d="M28.28,13.38h0Z" transform="translate(-0.72 -0.59)"/><path class="cls-2" d="M28.26,13.35l0,0Z" transform="translate(-0.72 -0.59)"/><path class="cls-2" d="M28,13.25h0Z" transform="translate(-0.72 -0.59)"/><path class="cls-2" d="M28,13.25h0Z" transform="translate(-0.72 -0.59)"/><path class="cls-2" d="M28.3,13.41h0Z" transform="translate(-0.72 -0.59)"/><path class="cls-2" d="M28.34,13.47a.59.59,0,0,1,0,.14v-.07l0-.07Z" transform="translate(-0.72 -0.59)"/><path class="cls-2" d="M28.08,13.25h0Z" transform="translate(-0.72 -0.59)"/><path class="cls-2" d="M28.11,13.26Z" transform="translate(-0.72 -0.59)"/><path class="cls-2" d="M28.23,13.33l0,0Z" transform="translate(-0.72 -0.59)"/><path class="cls-2" d="M28.2,13.31h0Z" transform="translate(-0.72 -0.59)"/><path class="cls-2" d="M9.6,16.27h0Z" transform="translate(-0.72 -0.59)"/><path class="cls-2" d="M9.6,16.21v0Z" transform="translate(-0.72 -0.59)"/><path class="cls-2" d="M10,15.9h.53L11.27,14H27.76l-.09-.22h0v-.08h0v0h0v-.35H11.38v.36a.36.36,0,0,1-.72,0v-.07l-1,2.58A.35.35,0,0,1,10,15.9Z" transform="translate(-0.72 -0.59)"/><path class="cls-2" d="M9.63,16.13h0Z" transform="translate(-0.72 -0.59)"/><path class="cls-2" d="M9.6,16.25v0Z" transform="translate(-0.72 -0.59)"/><path class="cls-2" d="M9.61,16.17h0Z" transform="translate(-0.72 -0.59)"/><path class="cls-2" d="M27.65,13.65h0Z" transform="translate(-0.72 -0.59)"/><path class="cls-2" d="M28.06,13.25h0Z" transform="translate(-0.72 -0.59)"/><path class="cls-2" d="M27.65,13.69v0Z" transform="translate(-0.72 -0.59)"/><path class="cls-2" d="M27.64,13.61Z" transform="translate(-0.72 -0.59)"/><path class="cls-2" d="M27.67,13.73v0Z" transform="translate(-0.72 -0.59)"/><path class="cls-2" d="M28,13.25h0Z" transform="translate(-0.72 -0.59)"/><path class="cls-2" d="M27.67,13.75Z" transform="translate(-0.72 -0.59)"/><path class="cls-2" d="M28.26,13.35Z" transform="translate(-0.72 -0.59)"/><path class="cls-2" d="M28.33,13.45v0Z" transform="translate(-0.72 -0.59)"/><path class="cls-2" d="M27.87,13.27a.32.32,0,0,1,.14,0h-.37v.35A.38.38,0,0,1,27.87,13.27Z" transform="translate(-0.72 -0.59)"/><path class="cls-2" d="M28.31,13.42v0Z" transform="translate(-0.72 -0.59)"/><path class="cls-2" d="M11,14a.36.36,0,0,0,.36-.36v-.36H11a.36.36,0,0,0-.33.22l0,.07v.07A.36.36,0,0,0,11,14Z" transform="translate(-0.72 -0.59)"/><path class="cls-2" d="M28.09,13.26h0Z" transform="translate(-0.72 -0.59)"/><path class="cls-2" d="M28.22,13.32h0Z" transform="translate(-0.72 -0.59)"/><path class="cls-2" d="M28.11,13.26a.19.19,0,0,1,.09.05A.19.19,0,0,0,28.11,13.26Z" transform="translate(-0.72 -0.59)"/><path class="cls-2" d="M28.28,13.37h0Z" transform="translate(-0.72 -0.59)"/><path class="cls-2" d="M28.29,13.39v0Z" transform="translate(-0.72 -0.59)"/><path class="cls-2" d="M27.64,13.64v0Z" transform="translate(-0.72 -0.59)"/><path class="cls-2" d="M27.67,13.75l.09.22H28A.36.36,0,0,1,27.67,13.75Z" transform="translate(-0.72 -0.59)"/><path class="cls-2" d="M27.64,13.6Z" transform="translate(-0.72 -0.59)"/><path class="cls-2" d="M27.67,13.74h0v0Z" transform="translate(-0.72 -0.59)"/><path class="cls-2" d="M28.36,13.61v0Z" transform="translate(-0.72 -0.59)"/><path class="cls-2" d="M27.65,13.67v0Z" transform="translate(-0.72 -0.59)"/><path class="cls-2" d="M27.66,13.71v0Z" transform="translate(-0.72 -0.59)"/><path class="cls-2" d="M28,14a.38.38,0,0,0,.36-.29A.38.38,0,0,1,28,14Z" transform="translate(-0.72 -0.59)"/><path class="cls-2" d="M28,14a.38.38,0,0,0,.36-.29v-.07a.59.59,0,0,0,0-.14v0h0v0h0v0h0l0,0h0l0,0h0a.19.19,0,0,0-.09-.05H28a.32.32,0,0,0-.14,0,.38.38,0,0,0-.23.33h0v0h0v.1h0A.36.36,0,0,0,28,14Z" transform="translate(-0.72 -0.59)"/><path class="cls-2" d="M9.63,16.12Z" transform="translate(-0.72 -0.59)"/><path class="cls-2" d="M29.4,16.13v0Z" transform="translate(-0.72 -0.59)"/><path class="cls-2" d="M29.4,16.12Z" transform="translate(-0.72 -0.59)"/><path class="cls-2" d="M13.15,19a1.93,1.93,0,0,0,1.59.82A2,2,0,0,0,16.33,19a2,2,0,0,0,3.18,0,2,2,0,0,0,3.19,0,2,2,0,0,0,3.18,0,2,2,0,0,0,3.54-1.13V16.27a.33.33,0,0,1-.22.32.35.35,0,0,1-.14,0,.37.37,0,0,1-.33-.23l-.2-.49H28a.36.36,0,1,1,0,.72h.7v1.23a1.23,1.23,0,1,1-2.46,0,.36.36,0,1,0-.72,0,1.23,1.23,0,1,1-2.46,0,.36.36,0,1,0-.72,0,1.24,1.24,0,0,1-2.47,0,.36.36,0,1,0-.72,0,1.23,1.23,0,1,1-2.46,0,.36.36,0,0,0-.72,0,1.23,1.23,0,0,1-2.46,0,.36.36,0,0,0-.36-.36.36.36,0,0,0-.36.36,1.24,1.24,0,0,1-2.47,0V16.62h.17a.36.36,0,0,1-.26-.12.36.36,0,0,1-.27.12.31.31,0,0,1-.13,0,.34.34,0,0,1-.23-.32v1.58A2,2,0,0,0,13.15,19Z" transform="translate(-0.72 -0.59)"/><path class="cls-2" d="M9.62,16.16v0Z" transform="translate(-0.72 -0.59)"/><path class="cls-2" d="M9.6,16.26Z" transform="translate(-0.72 -0.59)"/><path class="cls-2" d="M9.61,16.19v0Z" transform="translate(-0.72 -0.59)"/><path class="cls-2" d="M9.6,16.23v0Z" transform="translate(-0.72 -0.59)"/><path class="cls-2" d="M29.41,16.17v0Z" transform="translate(-0.72 -0.59)"/><path class="cls-2" d="M29.42,16.26h0Z" transform="translate(-0.72 -0.59)"/><path class="cls-2" d="M29.42,16.21v0Z" transform="translate(-0.72 -0.59)"/><path class="cls-2" d="M10.3,16.39l-.07.11a.36.36,0,0,0,.26.12H28a.36.36,0,1,0,0-.72H10.49Z" transform="translate(-0.72 -0.59)"/><path class="cls-2" d="M29.06,15.9h-.53l.2.49a.37.37,0,0,0,.33.23.35.35,0,0,0,.14,0,.33.33,0,0,0,.22-.32h0v-.08h0v0h0A.38.38,0,0,0,29.06,15.9Z" transform="translate(-0.72 -0.59)"/><path class="cls-2" d="M9.83,16.59a.31.31,0,0,0,.13,0,.36.36,0,0,0,.27-.12.35.35,0,0,1-.1-.24.36.36,0,0,1,.36-.36H10a.35.35,0,0,0-.33.22h0v0h0v.08h0A.34.34,0,0,0,9.83,16.59Z" transform="translate(-0.72 -0.59)"/><path class="cls-2" d="M10.49,15.9h0a.36.36,0,0,0-.36.36.35.35,0,0,0,.1.24l.07-.11Z" transform="translate(-0.72 -0.59)"/><path class="cls-2" d="M26.16,29.41a4.51,4.51,0,1,1,4.51-4.51A4.51,4.51,0,0,1,26.16,29.41Zm0-8.3A3.79,3.79,0,1,0,30,24.9,3.79,3.79,0,0,0,26.16,21.11Z" transform="translate(-0.72 -0.59)"/><path class="cls-2" d="M27.78,25.19a.38.38,0,0,1-.27.12H24.66a.38.38,0,1,1,0-.76h2.85a.38.38,0,0,1,.38.38A.35.35,0,0,1,27.78,25.19Z" transform="translate(-0.72 -0.59)"/><path class="cls-2" d="M26.35,26.62a.37.37,0,0,1-.27.11.38.38,0,0,1-.37-.37V23.5a.38.38,0,1,1,.75,0v2.86A.36.36,0,0,1,26.35,26.62Z" transform="translate(-0.72 -0.59)"/></svg>