<?xml version="1.0" encoding="utf-8"?>
<!-- Generator: Adobe Illustrator 24.0.2, SVG Export Plug-In . SVG Version: 6.00 Build 0)  -->
<svg version="1.1" id="Capa_1" xmlns="http://www.w3.org/2000/svg" xmlns:xlink="http://www.w3.org/1999/xlink" x="0px" y="0px"
	 viewBox="0 0 40 40" style="enable-background:new 0 0 40 40;" xml:space="preserve">
<style type="text/css">
	.st0{fill:#82B23E;}
	.st1{fill:#FFFFFF;}
</style>
<circle class="st0" cx="20.1" cy="20.2" r="19.4"/>
<g>
	<path class="st1" d="M26,30c-2.5,0-4.5-2-4.5-4.5s2-4.5,4.5-4.5s4.5,2,4.5,4.5S28.5,30,26,30z M26,21.7c-2.1,0-3.8,1.7-3.8,3.8
		s1.7,3.8,3.8,3.8s3.8-1.7,3.8-3.8S28.1,21.7,26,21.7z"/>
	<g>
		<g>
			<g>
				<g>
					<path class="st1" d="M27.4,24.5c0,0.1,0,0.2-0.1,0.3l-2,2c-0.1,0.1-0.4,0.1-0.5,0c-0.1-0.1-0.1-0.4,0-0.5l2-2
						c0.1-0.1,0.4-0.1,0.5,0C27.3,24.3,27.4,24.4,27.4,24.5z"/>
				</g>
			</g>
			<g>
				<g>
					<path class="st1" d="M27.4,26.6c0,0.1,0,0.2-0.1,0.3c-0.1,0.1-0.4,0.1-0.5,0l-2-2c-0.1-0.1-0.1-0.4,0-0.5
						c0.1-0.1,0.4-0.1,0.5,0l2,2C27.3,26.4,27.4,26.5,27.4,26.6z"/>
				</g>
			</g>
		</g>
	</g>
	<g>
		<path class="st1" d="M21.9,25.5C21.9,25.5,21.9,25.5,21.9,25.5l-11.3,0l-0.1,0.6H22C21.9,25.9,21.9,25.7,21.9,25.5z"/>
		<path class="st1" d="M19.6,18.2c0.2,0,0.4-0.2,0.4-0.4v-2.2c0-0.2-0.2-0.4-0.4-0.4h-6c-0.2,0-0.4,0.2-0.4,0.4v2.2
			c0,0.2,0.2,0.4,0.4,0.4H19.6z M13.9,15.9h5.5v1.7h-5.5V15.9z"/>
		<path class="st1" d="M14.4,18.7c-0.5,0-0.9,0.5-0.9,1c0,0.5,0.5,0.9,1,0.9c0,0,0,0,0.1,0c0.5,0,0.9-0.5,0.9-1v0
			C15.4,19.1,14.9,18.7,14.4,18.7z M14.4,20.1c-0.2,0-0.4-0.1-0.4-0.4c0-0.2,0.1-0.4,0.4-0.4c0,0,0,0,0,0c0.2,0,0.4,0.2,0.4,0.4
			C14.8,19.9,14.7,20.1,14.4,20.1z"/>
		<path class="st1" d="M16.8,18.7c-0.5,0-0.9,0.5-0.9,1c0,0.5,0.5,0.9,1,0.9c0,0,0,0,0.1,0c0.5,0,0.9-0.5,0.9-1
			C17.8,19.1,17.3,18.7,16.8,18.7z M16.8,20.1c-0.2,0-0.4-0.1-0.4-0.4c0-0.2,0.1-0.4,0.4-0.4c0,0,0,0,0,0c0.2,0,0.4,0.2,0.4,0.4
			C17.2,19.9,17.1,20.1,16.8,20.1z"/>
		<path class="st1" d="M19.2,18.7c-0.3,0-0.5,0.1-0.7,0.3c-0.2,0.2-0.3,0.4-0.2,0.7c0,0.5,0.5,0.9,1,0.9c0,0,0,0,0.1,0
			c0.5,0,0.9-0.5,0.9-1C20.2,19.1,19.7,18.7,19.2,18.7z M19.2,20.1c-0.2,0-0.4-0.1-0.4-0.4c0-0.1,0-0.2,0.1-0.3
			c0.1-0.1,0.2-0.1,0.3-0.1c0,0,0,0,0,0c0.2,0,0.4,0.2,0.4,0.4C19.6,19.9,19.5,20.1,19.2,20.1z"/>
		<path class="st1" d="M15.4,21.7c0-0.5-0.5-0.9-1-0.9c-0.5,0-0.9,0.5-0.9,1c0,0.5,0.5,0.9,1,0.9c0,0,0,0,0.1,0
			C15,22.7,15.4,22.2,15.4,21.7L15.4,21.7z M14.4,22.1c-0.2,0-0.4-0.1-0.4-0.4c0-0.2,0.1-0.4,0.4-0.4c0,0,0,0,0,0
			c0.2,0,0.4,0.2,0.4,0.4C14.8,21.9,14.7,22.1,14.4,22.1z"/>
		<path class="st1" d="M17.5,21c-0.2-0.2-0.4-0.3-0.7-0.2c-0.5,0-0.9,0.5-0.9,1c0,0.5,0.5,0.9,1,0.9c0,0,0,0,0.1,0
			c0.5,0,0.9-0.5,0.9-1C17.8,21.4,17.7,21.2,17.5,21z M16.8,22.1c-0.2,0-0.4-0.1-0.4-0.4c0-0.2,0.1-0.4,0.4-0.4c0,0,0,0,0,0
			c0.1,0,0.2,0,0.2,0.1c0.1,0.1,0.1,0.2,0.1,0.3C17.2,21.9,17.1,22.1,16.8,22.1z"/>
		<path class="st1" d="M19.2,20.8c-0.3,0-0.5,0.1-0.7,0.3c-0.2,0.2-0.3,0.4-0.2,0.7c0,0.5,0.5,0.9,1,0.9c0,0,0,0,0.1,0
			c0.5,0,0.9-0.5,0.9-1C20.2,21.2,19.7,20.8,19.2,20.8z M19.2,22.1c-0.2,0-0.4-0.1-0.4-0.4c0-0.1,0-0.2,0.1-0.3
			c0.1-0.1,0.2-0.1,0.3-0.1c0,0,0,0,0,0c0.2,0,0.4,0.2,0.4,0.4C19.6,21.9,19.5,22.1,19.2,22.1z"/>
		<path class="st1" d="M15.4,24c0-0.5-0.5-0.9-1-0.9c-0.5,0-0.9,0.5-0.9,1c0,0.5,0.5,0.9,1,0.9c0,0,0,0,0.1,0
			C15,25,15.4,24.5,15.4,24L15.4,24z M14.4,24.4c-0.2,0-0.4-0.1-0.4-0.4c0-0.2,0.1-0.4,0.4-0.4c0,0,0,0,0,0c0.2,0,0.4,0.2,0.4,0.4
			C14.8,24.2,14.7,24.4,14.4,24.4z"/>
		<path class="st1" d="M17.5,23.3c-0.2-0.2-0.4-0.3-0.7-0.2c-0.5,0-0.9,0.5-0.9,1c0,0.5,0.5,0.9,1,0.9c0,0,0,0,0.1,0
			c0.5,0,0.9-0.5,0.9-1C17.8,23.7,17.7,23.5,17.5,23.3z M16.8,24.4c-0.2,0-0.4-0.1-0.4-0.4c0-0.2,0.1-0.4,0.4-0.4c0,0,0,0,0,0
			c0.1,0,0.2,0,0.2,0.1c0.1,0.1,0.1,0.2,0.1,0.3C17.2,24.2,17.1,24.4,16.8,24.4z"/>
		<path class="st1" d="M19.2,23.1c-0.3,0-0.5,0.1-0.7,0.3c-0.2,0.2-0.3,0.4-0.2,0.7c0,0.5,0.5,0.9,1,0.9c0,0,0,0,0.1,0
			c0.5,0,0.9-0.5,0.9-1C20.2,23.4,19.7,23,19.2,23.1z M19.2,24.4c-0.2,0-0.4-0.1-0.4-0.4c0-0.1,0-0.2,0.1-0.3
			c0.1-0.1,0.2-0.1,0.3-0.1c0,0,0,0,0,0c0.2,0,0.4,0.2,0.4,0.4C19.6,24.2,19.5,24.4,19.2,24.4z"/>
		<path class="st1" d="M13.7,13h5.8c0.1,0,0.1-0.1,0.1-0.1v-2c0-0.1-0.1-0.1-0.1-0.1h-5.8c-0.1,0-0.1,0.1-0.1,0.1v2
			C13.6,12.9,13.7,13,13.7,13z M14.2,11.4h4.9v1h-4.9V11.4z"/>
		<rect x="14.6" y="13" class="st1" width="0.6" height="0.6"/>
		<rect x="18.2" y="13" class="st1" width="0.6" height="0.6"/>
		<path class="st1" d="M21.5,22.1c0-1.2,0.9-2.1,2.1-2.1c0.9,0,1.7,0.6,2,1.4c0.2,0,0.3,0,0.5,0c0,0,0.1,0,0.1,0
			c-0.3-1.1-1.4-2-2.6-2c-1.5,0-2.7,1.2-2.7,2.7c0,0.9,0.5,1.7,1.2,2.2c0.1-0.2,0.1-0.4,0.2-0.6C21.8,23.4,21.5,22.8,21.5,22.1z"/>
		<path class="st1" d="M26.8,15.1L26.8,15.1l0.7,6.6c0.2,0.1,0.4,0.2,0.6,0.3l-0.8-6.9c0-0.8-0.6-1.4-1.4-1.5v0.6
			C26.5,14.2,26.8,14.6,26.8,15.1z"/>
		<path class="st1" d="M22.9,28.3H11.3c-0.5,0-0.9-0.4-0.9-0.9l0.2-1.3h-0.3v-0.6h0.3l1.5-10.4l0,0v0c0-0.5,0.4-0.9,0.9-0.9h8.2
			v-0.6h-2.5v0.2h-0.6v-0.2h-3v0.3h-0.6v-0.3h-1.6c-0.8,0-1.5,0.7-1.5,1.5L9.7,27.3l0,0v0c0,0.8,0.7,1.5,1.5,1.5h12.3
			C23.4,28.7,23.1,28.5,22.9,28.3z"/>
		<polygon class="st1" points="10.3,25.5 10.3,26.1 10.5,26.1 10.6,25.5 		"/>
		<rect x="14.6" y="13.6" class="st1" width="0.6" height="0.3"/>
		<rect x="18.2" y="13.6" class="st1" width="0.6" height="0.2"/>
		<path class="st1" d="M21.9,11.5c0-0.3,0.2-0.5,0.4-0.5H25c0.2,0,0.4,0.2,0.4,0.5v2h0.5c0,0,0.1,0,0.1,0v-2c0-0.6-0.4-1.1-1-1.1
			h-2.7c-0.5,0-1,0.5-1,1.1v2h0.6V11.5z"/>
		<path class="st1" d="M21.3,17.6C21.3,17.6,21.3,17.6,21.3,17.6l0.6,0v-4h-0.6v0.6V17.6z"/>
		<path class="st1" d="M25.4,13.6v4H26v-3.4v-0.6c0,0-0.1,0-0.1,0H25.4z"/>
		<path class="st1" d="M21.3,18.2L21.3,18.2C21.3,18.2,21.3,18.2,21.3,18.2L21.3,18.2z"/>
		<path class="st1" d="M26.1,18.2c0.2,0,0.3-0.1,0.3-0.3s-0.1-0.3-0.3-0.3h0L26.1,18.2L26.1,18.2z"/>
		<path class="st1" d="M21,17.9c0,0.2,0.1,0.3,0.3,0.3v-0.6C21.1,17.6,21,17.7,21,17.9z"/>
		<path class="st1" d="M21.3,18.2H26v-0.6h-0.6h-3.5h-0.6c0,0,0,0,0,0L21.3,18.2C21.3,18.2,21.3,18.2,21.3,18.2z"/>
	</g>
</g>
</svg>
