<svg id="Capa_1" data-name="Capa 1" xmlns="http://www.w3.org/2000/svg" viewBox="0 0 38.82 38.82"><defs><style>.cls-1{fill:#82b23e;}.cls-2{fill:#fff;}</style></defs><title>nos diferencia 8</title><circle class="cls-1" cx="19.41" cy="19.41" r="19.41"/><path class="cls-2" d="M25.53,26.09l-.32.39a.32.32,0,0,1-.45,0l-.39-.32L24.12,26a.41.41,0,0,1-.05-.58.4.4,0,0,1,.58-.05l.25.2Z" transform="translate(-0.59 -0.62)"/><path class="cls-2" d="M27,24.35l-1.45,1.74-.34.42a.29.29,0,0,1-.4,0l-.42-.35.53-.64,1.45-1.74a.41.41,0,1,1,.63.53Z" transform="translate(-0.59 -0.62)"/><path class="cls-2" d="M25.32,29.65a4.51,4.51,0,1,1,4.51-4.51A4.51,4.51,0,0,1,25.32,29.65Zm0-8.29a3.79,3.79,0,1,0,3.79,3.78A3.78,3.78,0,0,0,25.32,21.36Z" transform="translate(-0.59 -0.62)"/><path class="cls-2" d="M12.09,28.39a1.08,1.08,0,0,1-1.2-1.19v-.06a.76.76,0,0,1,0-.15c0-.14,0-.19.19-.2H21.72a4.34,4.34,0,0,1-.24-.72H11.05a.84.84,0,0,0-.85.72,2.72,2.72,0,0,0,0,.63A1.66,1.66,0,0,0,11,28.79a2.5,2.5,0,0,0,.5.23l.22.09H24.32A4.09,4.09,0,0,1,23,28.39Z" transform="translate(-0.59 -0.62)"/><path class="cls-2" d="M26.27,16V12a1.48,1.48,0,0,0-1.59-1.59H13.1A1.49,1.49,0,0,0,11.51,12V25q0,.49.36.51h0a.3.3,0,0,0,.23-.09.53.53,0,0,0,.13-.42V12a.77.77,0,0,1,.87-.87H24.67a.77.77,0,0,1,.87.88v3h0V21a4.4,4.4,0,0,1,.73.06Z" transform="translate(-0.59 -0.62)"/><path class="cls-2" d="M15.05,17.17a1.25,1.25,0,0,1-.53-.2.48.48,0,0,0-.35-.08.36.36,0,0,0-.2.17.38.38,0,0,0,.17.53,2,2,0,0,0,.91.31v.24a.36.36,0,0,0,.34.39h0a.37.37,0,0,0,.36-.39V18c0-.12,0-.17.15-.22a1.51,1.51,0,0,0,1-1.41,1.27,1.27,0,0,0-.85-1.29c-.32-.1-.36-.26-.34-.54a5.58,5.58,0,0,0,0-.71v-.2h0l.24.12c.23.14.43.12.55-.06a.35.35,0,0,0,.06-.28.4.4,0,0,0-.2-.25c-.15-.09-.32-.16-.49-.24l-.18-.08h0a2.26,2.26,0,0,0,0-.25.34.34,0,0,0-.37-.31.34.34,0,0,0-.34.34.75.75,0,0,0,0,.15c0,.1,0,.14-.14.19a1.24,1.24,0,0,0-.86,1.09,1.09,1.09,0,0,0,.56,1.14l.19.11a.77.77,0,0,1,.18.1s.06,0,.06.05c0,.47,0,.94,0,1.42Zm.73-1.42a.6.6,0,0,1,.44.55.78.78,0,0,1-.44.78ZM15,14.63a.42.42,0,0,1-.28-.38.57.57,0,0,1,.28-.52Z" transform="translate(-0.59 -0.62)"/><path class="cls-2" d="M23.29,21.65H14.35c-.37,0-.43.22-.43.35a.37.37,0,0,0,.09.25.44.44,0,0,0,.34.12h8.09A4.21,4.21,0,0,1,23.29,21.65Z" transform="translate(-0.59 -0.62)"/><path class="cls-2" d="M14.15,19.42a.33.33,0,0,0-.23.38.33.33,0,0,0,.3.3h9.5a.33.33,0,0,0,.31-.32.34.34,0,0,0-.25-.37,1,1,0,0,0-.24,0H14.41A.8.8,0,0,0,14.15,19.42Z" transform="translate(-0.59 -0.62)"/><path class="cls-2" d="M18.34,16.57a.35.35,0,0,0,.32.35h5a.36.36,0,0,0,.35-.36.36.36,0,0,0-.34-.36h-5A.34.34,0,0,0,18.34,16.57Z" transform="translate(-0.59 -0.62)"/><path class="cls-2" d="M18.73,14.64h5a.36.36,0,0,0,0-.72h-5.1a.36.36,0,0,0,0,.7Z" transform="translate(-0.59 -0.62)"/><path class="cls-2" d="M14.25,24.62h4.69a.35.35,0,0,0,.31-.34.36.36,0,0,0-.31-.37H14.25a.36.36,0,0,0,0,.71Z" transform="translate(-0.59 -0.62)"/></svg>