<svg id="Capa_1" data-name="Capa 1" xmlns="http://www.w3.org/2000/svg" viewBox="0 0 47.61 47.61"><defs><style>.cls-1{fill:#333333;}</style></defs><title>nube</title><path class="cls-1" d="M35.17,1.35H46.8a2.72,2.72,0,0,1,1.86,1.86v8.56a2.54,2.54,0,0,1-2.92,1.87c-.55,0-1.1,0-1.65,0V15.2h1.47v1.51H41.74v9.21H38.17l.48,1.56h4.63v7.61a1.86,1.86,0,0,0,.26,0l5.12,0V49H36.41V35.11h5.31V29H38.64a11,11,0,0,1-.32,1.1,5.38,5.38,0,0,1-5.23,3.52H16.49a5.35,5.35,0,0,1-5.16-3.67A15.18,15.18,0,0,1,11,28.26H9.54v6.87H13.8a2.35,2.35,0,0,1,2.6,2.59v6.64H18c0,.73,0,1.39,0,2.06A2.34,2.34,0,0,1,15.4,49H3.45a2.19,2.19,0,0,1-2.31-1.81,20.15,20.15,0,0,1,0-2.81H2.59v-.59c0-2,0-4,0-6a2.35,2.35,0,0,1,2.56-2.58H8V26.7h3c.13,0,.33,0,.37-.1.24-.46.44-.93.68-1.46H6.41v-3.8H3.65a2.36,2.36,0,0,1-2.6-2.59V3.91a3.39,3.39,0,0,1,.08-.78A2.44,2.44,0,0,1,2.91,1.35h8.55a2.59,2.59,0,0,1,1.88,2.92c-.06,2.08,0,4.15,0,6.23v8.32a2.33,2.33,0,0,1-2.49,2.51c-.73,0-1.45,0-2.18,0H8v2.29h3.65a6.1,6.1,0,0,0,3.12-.46,1.48,1.48,0,0,0,.77-.69,6.08,6.08,0,0,1,7.53-3.08c.38.14.54.05.78-.25A5.91,5.91,0,0,1,30,16.87a6,6,0,0,1,4.84,5.8.54.54,0,0,0,.36.55c.58.29,1.11.66,1.67,1,.1.06.2.18.31.18h3V16.7H36.4V15.18h1.47V13.64h-2a2.3,2.3,0,0,1-2.54-2.53q0-3.6,0-7.2a3.38,3.38,0,0,1,.07-.78A2.42,2.42,0,0,1,35.17,1.35Zm-11,20.34-.55-.33a4.59,4.59,0,0,0-7,2.6.58.58,0,0,1-.58.46,3.81,3.81,0,0,0-2.85,5.8,3.73,3.73,0,0,0,3.44,1.84H33.41a3.82,3.82,0,0,0,.68-7.55l-.93-.19c.12-2.22.06-2.7-.39-3.56a4.52,4.52,0,0,0-2.69-2.27,4.44,4.44,0,0,0-3,.09A5,5,0,0,0,24.17,21.69ZM14.85,44.32c0-.17,0-.3,0-.44V37.75c0-.82-.26-1.07-1.09-1.07H5.19c-.83,0-1.07.24-1.07,1.08v6.56ZM47.08,9c0-.14,0-.26,0-.38q0-2.37,0-4.74c0-.75-.25-1-1-1H35.88c-.8,0-1.05.26-1.05,1.06,0,1.55,0,3.1,0,4.65,0,.13,0,.26,0,.4ZM2.63,6v7.61h9.15c0-.15,0-.29,0-.42,0-2.25,0-4.49,0-6.74,0-.39-.12-.49-.5-.49C8.56,6,5.81,6,3.05,6Zm0,9.21c0,1.29,0,2.53,0,3.77,0,.55.31.79.93.79q3.65,0,7.29,0c.71,0,1-.26,1-1s0-1.43,0-2.14V15.21Zm35.33,26h9.15V36.7H37.93Zm0,1.59c0,.16,0,.29,0,.43,0,1.22,0,2.44,0,3.67,0,.39.11.49.49.49,2.76,0,5.52,0,8.27,0,.15,0,.3,0,.43,0V42.84ZM16.4,45.93H2.62c-.12,1.25.09,1.49,1.31,1.49H15.12a4.34,4.34,0,0,0,.51,0,.74.74,0,0,0,.76-.77C16.41,46.41,16.4,46.18,16.4,45.93ZM47.1,10.61H34.85c-.1,1.25.13,1.5,1.33,1.5h9.71a4.35,4.35,0,0,0,.51,0,.74.74,0,0,0,.7-.73C47.12,11.11,47.1,10.87,47.1,10.61ZM2.62,4.4h9.14c.2-1.34-.3-1.53-1.23-1.51-2.2,0-4.4,0-6.59,0-.23,0-.47,0-.7,0a.65.65,0,0,0-.61.6A6.4,6.4,0,0,0,2.62,4.4ZM39.47,15.15h3V13.67h-3Z" transform="translate(-1.05 -1.35)"/><path class="cls-1" d="M8.71,16.73v1.5h-3v-1.5Z" transform="translate(-1.05 -1.35)"/><path class="cls-1" d="M45.57,38.23v1.49h-3V38.23Z" transform="translate(-1.05 -1.35)"/><path class="cls-1" d="M40.94,39.73H39.49V38.24h1.45Z" transform="translate(-1.05 -1.35)"/><path class="cls-1" d="M42.49,44.38v1.49h-3V44.38Z" transform="translate(-1.05 -1.35)"/><path class="cls-1" d="M44,45.86c0-.42,0-.84,0-1.25,0-.09.17-.24.27-.25.4,0,.8,0,1.22,0v1.51Z" transform="translate(-1.05 -1.35)"/></svg>