<svg id="Capa_1" data-name="Capa 1" xmlns="http://www.w3.org/2000/svg" viewBox="0 0 48.16 40.92"><defs><style>.cls-1{fill:#fff;}</style></defs><title>panel de control</title><path class="cls-1" d="M49.43,13.3a1.71,1.71,0,0,1-1.72.86c-4.27,0-8.55,0-12.83,0h-.57v.94c.84,0,1.68.05,2.52,0a1.38,1.38,0,0,1,1.6,1.62c0,.59,0,1.19,0,1.79a1.22,1.22,0,0,1-1.29,1.29H34.32v2.58h.55c1.71,0,3.42,0,5.13,0a1.13,1.13,0,0,1,1.14.64c.67,1.2,1.38,2.38,2.07,3.56l.14.25a.7.7,0,1,1-1.21.7A23.58,23.58,0,0,1,40.71,25a1.93,1.93,0,0,0-2.24-1.29c-1.37.11-2.75,0-4.18,0v1.48c0,.59,0,1.19,0,1.78a1.58,1.58,0,0,1-1.55,1.57h-.47q-14.49,0-29,0a1.88,1.88,0,0,1-2-1.23v-24A1.72,1.72,0,0,1,3,2.12H32.58a1.57,1.57,0,0,1,1.7,1.7c0,1.69,0,3.38,0,5.07v.55h.59c4.28,0,8.56,0,12.83,0a1.7,1.7,0,0,1,1.72.85Zm-43,5.07h4.22c.6,0,.92.26.91.71s-.32.69-.88.7H6.3A1.22,1.22,0,0,1,5,18.49c0-.61,0-1.22,0-1.83,0-1.15.43-1.58,1.59-1.58H32.84v-.94H6.48c-1,0-1.49-.45-1.49-1.48,0-.58,0-1.16,0-1.73,0-1,.46-1.48,1.49-1.48h20c.73,0,1.06.21,1.07.69s-.32.72-1.09.72h-20v1.85H48V10.86H30c-.68,0-1-.24-1-.72s.33-.69,1-.69H32.5c.12,0,.24,0,.35,0V7.69H2.7a2.06,2.06,0,0,0,0,.21q0,9.44,0,18.87c0,.43.23.43.54.43H32.36c.43,0,.53-.14.52-.54,0-1.88,0-3.76,0-5.63V19.78H14.12a2.86,2.86,0,0,1-.51,0,.66.66,0,0,1-.61-.67.67.67,0,0,1,.61-.71,3,3,0,0,1,.52,0H37V16.52H6.42ZM32.87,6.23V4.14c0-.6,0-.61-.62-.61h-29c-.11,0-.24,0-.32,0s-.27.18-.28.28c0,.79,0,1.58,0,2.4Z" transform="translate(-1.27 -2.12)"/><path class="cls-1" d="M41.06,31.15c0,.39,0,.79,0,1.17a1.09,1.09,0,0,1-.66,1.17,2.73,2.73,0,0,0-.71,4.22,2.67,2.67,0,0,0,1.85.92.93.93,0,0,1,.85.62c.36.85.76,1.68,1.13,2.52.3.68.06,1.1-.66,1.2A7.18,7.18,0,0,1,40,28.91a.75.75,0,0,1,1,.79v1.45Zm.85,10.48c-.21-.46-.38-.9-.6-1.3a.79.79,0,0,0-.47-.37,4.19,4.19,0,0,1-1.46-7.51c.11-.08.25-.2.25-.3,0-.52,0-1,0-1.58a5.72,5.72,0,0,0-3.56,6.37A5.79,5.79,0,0,0,41.91,41.63Z" transform="translate(-1.27 -2.12)"/><path class="cls-1" d="M49,36.14a7.09,7.09,0,0,1-2.83,5.43.74.74,0,0,1-1.28-.29c-.4-.86-.78-1.74-1.18-2.6a.8.8,0,0,1,.12-.92,2.77,2.77,0,0,0-.85-4.39.77.77,0,0,1-.47-.79c0-1,0-1.91,0-2.87,0-.67.39-.95,1.06-.79A7.29,7.29,0,0,1,49,36.14Zm-5.08-5.62c0,.57,0,1.07,0,1.56a.64.64,0,0,0,.24.36,4.14,4.14,0,0,1,1.13,5.72.62.62,0,0,0,0,.46c.17.44.38.87.61,1.38a5.78,5.78,0,0,0-1.94-9.48Z" transform="translate(-1.27 -2.12)"/><path class="cls-1" d="M13,25.41H6.41A1.26,1.26,0,0,1,5,24q0-1,0-1.92a1.24,1.24,0,0,1,1.37-1.36H19.72a1.26,1.26,0,0,1,1.4,1.38c0,.67,0,1.35,0,2a1.22,1.22,0,0,1-1.3,1.29Zm6.64-3.25H6.42V24H19.68Z" transform="translate(-1.27 -2.12)"/><path class="cls-1" d="M5.21,5a.77.77,0,0,1-.76.73.77.77,0,0,1-.73-.76.77.77,0,0,1,.76-.73A.77.77,0,0,1,5.21,5Z" transform="translate(-1.27 -2.12)"/><path class="cls-1" d="M7.59,4.2A.77.77,0,0,1,8.32,5a.78.78,0,0,1-.77.73.75.75,0,0,1,0-1.49Z" transform="translate(-1.27 -2.12)"/><path class="cls-1" d="M10.67,5.69a.77.77,0,0,1-.74-.75.75.75,0,1,1,.74.75Z" transform="translate(-1.27 -2.12)"/></svg>