<?xml version="1.0" encoding="utf-8"?>
<!-- Generator: Adobe Illustrator 24.0.2, SVG Export Plug-In . SVG Version: 6.00 Build 0)  -->
<svg version="1.1" id="Capa_1" xmlns="http://www.w3.org/2000/svg" xmlns:xlink="http://www.w3.org/1999/xlink" x="0px" y="0px"
	 viewBox="0 0 40 40" style="enable-background:new 0 0 40 40;" xml:space="preserve">
<style type="text/css">
	.st0{fill:#82B23E;}
	.st1{fill:#FFFFFF;}
</style>
<circle class="st0" cx="20" cy="19.9" r="19.4"/>
<g>
	<path class="st1" d="M14.4,28.4h-2.7c-0.2,0-0.3-0.1-0.3-0.3v-5.2c0-0.2,0.1-0.3,0.3-0.3h2.7c0.2,0,0.3,0.1,0.3,0.3v5.2
		C14.8,28.3,14.6,28.4,14.4,28.4L14.4,28.4z M12.1,27.8h2v-4.6h-2V27.8z M12.1,27.8"/>
	<path class="st1" d="M19,28.4h-2.7c-0.2,0-0.3-0.1-0.3-0.3v-7.2c0-0.2,0.1-0.3,0.3-0.3H19c0.2,0,0.3,0.1,0.3,0.3v7.2
		C19.4,28.3,19.2,28.4,19,28.4L19,28.4z M16.7,27.8h2v-6.6h-2V27.8z M16.7,27.8"/>
	<path class="st1" d="M23.6,28.4H21c-0.2,0-0.3-0.1-0.3-0.3V17.6c0-0.2,0.1-0.3,0.3-0.3h2.7c0.2,0,0.3,0.1,0.3,0.3V21
		c0,0.2-0.1,0.3-0.3,0.3c-0.2,0-0.3-0.1-0.3-0.3v-3h-2v9.8h2v-6.9c0-0.2,0.1-0.3,0.3-0.3c0.2,0,0.3,0.1,0.3,0.3v7.2
		C24,28.3,23.8,28.4,23.6,28.4L23.6,28.4z M23.6,28.4"/>
	<g>
		<path class="st1" d="M28.2,28.4h-2.7c-0.2,0-0.3-0.1-0.3-0.3V15.6c0-0.2,0.1-0.3,0.3-0.3h2.7c0.2,0,0.3,0.1,0.3,0.3v12.5
			C28.6,28.3,28.4,28.4,28.2,28.4L28.2,28.4z M25.9,27.8h2V15.9h-2V27.8z M25.9,27.8"/>
		<path class="st1" d="M13.1,17.7c-0.1,0-0.3-0.1-0.3-0.2c0-0.2,0.1-0.4,0.2-0.4c0.1,0,6.9-1.9,13.7-5.7c0.2-0.1,0.4,0,0.5,0.1
			c0.1,0.2,0,0.4-0.1,0.5c-3.6,2-7.2,3.5-9.5,4.3C14.9,17.2,13.2,17.6,13.1,17.7C13.1,17.7,13.1,17.7,13.1,17.7L13.1,17.7z
			 M13.1,17.7"/>
	</g>
	<path class="st1" d="M26.5,12.8c0,0-0.1,0-0.1,0c-0.2-0.1-0.2-0.3-0.2-0.4l0.2-0.4h-0.5c-0.2,0-0.3-0.1-0.3-0.3
		c0-0.2,0.2-0.3,0.3-0.3h1c0.1,0,0.2,0.1,0.3,0.2c0.1,0.1,0.1,0.2,0,0.3l-0.4,0.9C26.7,12.8,26.6,12.8,26.5,12.8L26.5,12.8z
		 M26.5,12.8"/>
</g>
</svg>
