<?xml version="1.0" encoding="utf-8"?>
<!-- Generator: Adobe Illustrator 24.0.2, SVG Export Plug-In . SVG Version: 6.00 Build 0)  -->
<svg version="1.1" id="Capa_1" xmlns="http://www.w3.org/2000/svg" xmlns:xlink="http://www.w3.org/1999/xlink" x="0px" y="0px"
	 viewBox="0 0 40 40" style="enable-background:new 0 0 40 40;" xml:space="preserve">
<style type="text/css">
	.st0{fill:#82B23E;}
	.st1{fill:#FFFFFF;}
</style>
<circle class="st0" cx="19.5" cy="19.9" r="19.4"/>
<g>
	<g>
		<path class="st1" d="M8.7,10.5c0-0.1,0.1-0.1,0.1-0.2C9,9.9,9.3,9.7,9.7,9.7c0.5,0,0.8,0.2,1,0.6c0.1,0.1,0.1,0.2,0.2,0.2
			c0.4,0.2,0.6,0.5,0.6,0.9c0,0.1,0,0.2,0,0.3c0,4.7,0,9.5,0,14.2c0,0.6,0.1,0.7,0.7,0.6c0-0.2,0-0.5,0-0.7c0-0.1,0-0.2,0-0.3
			c0-0.2,0.1-0.4,0.4-0.4c0.2,0,0.4,0,0.7,0c0,0,0,0,0,0c0-3.6,0-7.1,0-10.7c-0.1,0-0.2,0-0.3,0c-0.2,0-0.4-0.2-0.4-0.4
			c0-0.9,0-1.9,0-2.8c0-0.2,0.1-0.4,0.4-0.4c0.1,0,0.1,0,0.2,0c5.4,0,10.8,0,16.1,0c0.5,0,0.6,0.1,0.6,0.6c0,0.8,0,1.6,0,2.5
			c0,0.5-0.1,0.6-0.6,0.6c0,0-0.1,0-0.1,0c0,3.6,0,7.2,0,10.8c0.2,0,0.4,0,0.6,0c0.3,0,0.4,0.1,0.4,0.4c0,0.7,0,1.3,0,2
			c0,0.7-0.5,1.1-1.1,1.1c-0.3,0-0.7,0-1,0c0,0.1,0,0.1-0.1,0.2c-0.2,0.8-0.9,1.3-1.7,1.3c-0.8,0-1.5-0.5-1.7-1.3
			c0-0.1-0.1-0.2-0.2-0.2c-2.1,0-4.2,0-6.3,0c0,0-0.1,0-0.1,0c-0.5,1.1-1,1.5-1.9,1.4c-0.8,0-1.3-0.5-1.6-1.4c-0.3,0-0.6,0-1,0
			c-0.8,0-1.2-0.4-1.2-1.2c0-0.1,0-0.1,0-0.2c-0.1,0-0.2,0-0.3,0c-0.6,0-1.1-0.5-1.1-1.1c0-0.1,0-0.2,0-0.3c0-4.8,0-9.5,0-14.3
			c0-0.1,0-0.3,0-0.4c0,0,0,0-0.1,0c0,0-0.1,0.1-0.1,0.1c-0.3,0.4-0.6,0.5-1.1,0.5c-0.4-0.1-0.7-0.3-0.9-0.8c0,0,0-0.1,0-0.1
			C8.7,10.8,8.7,10.6,8.7,10.5z M28.5,25.1c0-3.6,0-7.2,0-10.8c-4.8,0-9.6,0-14.3,0c0,3.6,0,7.2,0,10.8
			C18.9,25.1,23.7,25.1,28.5,25.1z M13.4,11.5c0,0.7,0,1.4,0,2.1c5.3,0,10.5,0,15.8,0c0-0.7,0-1.4,0-2.1
			C23.9,11.5,18.6,11.5,13.4,11.5z M13,25.8c0,0.6,0,1.2,0,1.8c0,0.2,0.1,0.3,0.4,0.4c0.3,0,0.6,0,0.8,0c0.2,0,0.2,0,0.3-0.2
			c0.2-0.7,0.7-1.1,1.4-1.2c0.7-0.1,1.2,0.1,1.7,0.7c0.2,0.2,0.3,0.5,0.4,0.8c0,0,0.1,0,0.2,0c2,0,4.1,0,6.1,0c0.2,0,0.2,0,0.3-0.2
			c0.2-0.7,0.9-1.2,1.7-1.2c0.8,0,1.5,0.5,1.7,1.3c0,0.1,0,0.1,0.1,0.2c0.3,0,0.7,0,1,0c0.3,0,0.4-0.1,0.4-0.5c0-0.2,0-0.4,0-0.5
			c0-0.4,0-0.8,0-1.2C24,25.8,18.5,25.8,13,25.8z M15.2,28.3c0,0.6,0.5,1.1,1.1,1.1c0.6,0,1.1-0.5,1.1-1.1c0-0.6-0.5-1.1-1.1-1.1
			C15.7,27.2,15.2,27.7,15.2,28.3z M26.3,27.3c-0.6,0-1.1,0.5-1.1,1.1c0,0.6,0.5,1.1,1.1,1.1c0.6,0,1.1-0.5,1.1-1.1
			C27.4,27.7,26.9,27.3,26.3,27.3z M9.8,11.1c0.2,0,0.4-0.2,0.4-0.4c0-0.2-0.1-0.3-0.3-0.4c-0.2,0-0.4,0.1-0.4,0.3
			C9.4,10.9,9.6,11.1,9.8,11.1z"/>
		<path class="st1" d="M21.3,15c0.7,0,1.4,0,2.1,0c0.6,0,1.1,0.5,1.1,1.1c0,0.6-0.5,1.1-1.1,1.1c-1.4,0-2.8,0-4.2,0
			c-0.6,0-1.1-0.5-1.1-1.1c0-0.6,0.5-1.1,1.1-1.1C19.9,15,20.6,15,21.3,15z M21.3,15.8c-0.7,0-1.4,0-2.1,0c-0.3,0-0.4,0.1-0.4,0.4
			c0,0.2,0.2,0.4,0.4,0.4c1.4,0,2.8,0,4.1,0c0.3,0,0.4-0.1,0.4-0.4c0-0.2-0.2-0.3-0.4-0.3C22.7,15.8,22,15.8,21.3,15.8z"/>
		<path class="st1" d="M24.5,24.7c0-0.2,0-0.5,0-0.7c0.2,0,0.4,0,0.7,0c0,0.2,0,0.4,0,0.7C25,24.7,24.8,24.7,24.5,24.7z"/>
		<path class="st1" d="M14.5,24.7c0-0.2,0-0.5,0-0.7c0.2,0,0.5,0,0.7,0c0,0.2,0,0.4,0,0.7C14.9,24.7,14.7,24.7,14.5,24.7z"/>
		<path class="st1" d="M16.6,24c0,0.2,0,0.5,0,0.7c-0.2,0-0.5,0-0.7,0c0-0.2,0-0.4,0-0.7C16.1,24,16.4,24,16.6,24z"/>
		<path class="st1" d="M17.3,24.7c0-0.2,0-0.5,0-0.7c0.2,0,0.5,0,0.7,0c0,0.2,0,0.4,0,0.7C17.8,24.7,17.6,24.7,17.3,24.7z"/>
		<path class="st1" d="M19.5,24c0,0.2,0,0.5,0,0.7c-0.2,0-0.5,0-0.7,0c0-0.2,0-0.5,0-0.7C19,24,19.2,24,19.5,24z"/>
		<path class="st1" d="M20.9,24.7c-0.2,0-0.5,0-0.7,0c0-0.2,0-0.5,0-0.7c0.2,0,0.5,0,0.7,0C20.9,24.3,20.9,24.5,20.9,24.7z"/>
		<path class="st1" d="M21.7,24.7c0-0.2,0-0.5,0-0.7c0.2,0,0.5,0,0.7,0c0,0.2,0,0.4,0,0.7C22.1,24.7,21.9,24.7,21.7,24.7z"/>
		<path class="st1" d="M23.1,24.7c0-0.2,0-0.5,0-0.7c0.2,0,0.5,0,0.7,0c0,0.2,0,0.5,0,0.7C23.6,24.7,23.3,24.7,23.1,24.7z"/>
		<path class="st1" d="M26.7,24c0,0.2,0,0.5,0,0.7c-0.2,0-0.5,0-0.7,0c0-0.2,0-0.5,0-0.7C26.2,24,26.4,24,26.7,24z"/>
		<path class="st1" d="M27.4,24.7c0-0.2,0-0.5,0-0.7c0.2,0,0.5,0,0.7,0c0,0.2,0,0.5,0,0.7C27.9,24.7,27.7,24.7,27.4,24.7z"/>
	</g>
</g>
</svg>
