<?xml version="1.0" encoding="utf-8"?>
<!-- Generator: Adobe Illustrator 24.0.2, SVG Export Plug-In . SVG Version: 6.00 Build 0)  -->
<svg version="1.1" id="Capa_1" xmlns="http://www.w3.org/2000/svg" xmlns:xlink="http://www.w3.org/1999/xlink" x="0px" y="0px"
	 viewBox="0 0 40 40" style="enable-background:new 0 0 40 40;" xml:space="preserve">
<style type="text/css">
	.st0{fill:#82B23E;}
	.st1{fill:#FFFFFF;}
</style>
<circle class="st0" cx="20" cy="20" r="19.4"/>
<g>
	<g>
		<path class="st1" d="M29.4,10.9c0-0.1-0.1-0.2-0.3-0.3c-3.1-0.8-6.4-0.4-9.3,1.1c-0.6,0.3-1.2,0.7-1.8,1.1c-1.6-0.6-3.3-0.2-4.5,1
			l-2.4,2.4c-0.1,0.1-0.1,0.4,0,0.5l2.7,2.7c0,0,0,0,0,0l0.3,0.3l-0.3,2.3c0,0.1,0,0.2,0.1,0.3l0.3,0.3l-2.3,2.3
			c-0.1,0.1-0.1,0.4,0,0.5c0.1,0.1,0.4,0.1,0.5,0l2.3-2.3l1.9,1.9l-3.2,3.2c-0.1,0.1-0.2,0.4,0,0.5c0.1,0.1,0.2,0.1,0.3,0.1
			c0.1,0,0.2,0,0.3-0.1l3.2-3.2l0.3,0.3c0.1,0.1,0.2,0.1,0.3,0.1c0,0,0,0,0.1,0l2.3-0.3l0.3,0.3c0,0,0,0,0,0l2.7,2.7
			c0.1,0.1,0.2,0.1,0.3,0.1c0.1,0,0.2,0,0.3-0.1l2.4-2.4c1.2-1.2,1.6-3,1-4.5c0.4-0.6,0.8-1.1,1.1-1.8C29.8,17.3,30.2,14,29.4,10.9
			L29.4,10.9z M13.9,18.5l-2-2l2.1-2.1c0.9-0.9,2.1-1.2,3.3-1C15.8,14.8,14.6,16.6,13.9,18.5L13.9,18.5z M17.9,25.4l-3.3-3.3
			l0.2-1.6l4.6,4.6L17.9,25.4z M25.5,25.9L23.4,28l-2-2c2-0.7,3.7-1.9,5.1-3.4C26.8,23.8,26.4,25,25.5,25.9L25.5,25.9z M20.9,25.5
			L20.9,25.5l-6.4-6.3l0,0c2-5.8,8.2-9.2,14.2-7.8C30.1,17.3,26.7,23.4,20.9,25.5L20.9,25.5z M20.9,25.5"/>
		<path class="st1" d="M25.1,14.4l-5,1.3c-0.1,0-0.2,0.1-0.3,0.3c0,0.1,0,0.3,0.1,0.4l0.7,0.7L17.8,20c-0.1,0.1-0.1,0.4,0,0.5
			c0.1,0.1,0.4,0.1,0.5,0l3.1-3.1c0.1-0.1,0.1-0.4,0-0.5l-0.5-0.5l3.7-1l-1,3.7l-0.5-0.5c-0.1-0.1-0.2-0.1-0.3-0.1
			c-0.1,0-0.2,0-0.3,0.1l-3.1,3.1c-0.1,0.1-0.1,0.4,0,0.5c0.1,0.1,0.2,0.1,0.3,0.1c0.1,0,0.2,0,0.3-0.1l2.8-2.8l0.7,0.7
			c0.1,0.1,0.2,0.1,0.4,0.1c0.1,0,0.2-0.1,0.3-0.3l1.3-5c0-0.1,0-0.3-0.1-0.4C25.4,14.4,25.2,14.4,25.1,14.4L25.1,14.4z M25.1,14.4"
			/>
		<path class="st1" d="M13.9,26.1c-0.1-0.1-0.4-0.1-0.5,0l-3,3c-0.1,0.1-0.1,0.4,0,0.5c0.1,0.1,0.2,0.1,0.3,0.1c0.1,0,0.2,0,0.3-0.1
			l3-3C14,26.5,14,26.3,13.9,26.1L13.9,26.1z M13.9,26.1"/>
	</g>
</g>
</svg>
