<?xml version="1.0" encoding="utf-8"?>
<!-- Generator: Adobe Illustrator 24.0.2, SVG Export Plug-In . SVG Version: 6.00 Build 0)  -->
<svg version="1.1" id="Capa_1" xmlns="http://www.w3.org/2000/svg" xmlns:xlink="http://www.w3.org/1999/xlink" x="0px" y="0px"
	 viewBox="0 0 40 40" style="enable-background:new 0 0 40 40;" xml:space="preserve">
<style type="text/css">
	.st0{fill:#82B23E;}
	.st1{fill:#FFFFFF;}
</style>
<circle class="st0" cx="20" cy="20" r="19.4"/>
<g>
	<path class="st1" d="M13.9,25.6H11c-0.8,0-1.4,0.6-1.4,1.4c0,0.4,0.2,0.7,0.4,1c-0.2,0.2-0.4,0.6-0.4,1c0,0.8,0.6,1.4,1.4,1.4h2.9
		c0.8,0,1.4-0.6,1.4-1.4c0-0.4-0.2-0.7-0.4-1c0.2-0.2,0.4-0.6,0.4-1C15.3,26.2,14.7,25.6,13.9,25.6L13.9,25.6z M11,26.4h2.9
		c0.3,0,0.6,0.3,0.6,0.6s-0.3,0.6-0.6,0.6H11c-0.3,0-0.6-0.3-0.6-0.6S10.7,26.4,11,26.4L11,26.4z M13.9,29.4H11
		c-0.3,0-0.6-0.3-0.6-0.6s0.3-0.6,0.6-0.6h2.9c0.3,0,0.6,0.3,0.6,0.6S14.2,29.4,13.9,29.4L13.9,29.4z M13.9,29.4"/>
	<path class="st1" d="M20.4,23.7h-2.9c-0.8,0-1.4,0.6-1.4,1.4c0,0.4,0.2,0.7,0.4,1c-0.2,0.2-0.4,0.6-0.4,1c0,0.4,0.2,0.7,0.4,1
		c-0.2,0.2-0.4,0.6-0.4,1c0,0.8,0.6,1.4,1.4,1.4h2.9c0.8,0,1.4-0.6,1.4-1.4c0-0.4-0.2-0.7-0.4-1c0.2-0.2,0.4-0.6,0.4-1
		c0-0.4-0.2-0.7-0.4-1c0.2-0.2,0.4-0.6,0.4-1C21.8,24.3,21.2,23.7,20.4,23.7L20.4,23.7z M17.5,24.5h2.9c0.3,0,0.6,0.3,0.6,0.6
		s-0.3,0.6-0.6,0.6h-2.9c-0.3,0-0.6-0.3-0.6-0.6S17.2,24.5,17.5,24.5L17.5,24.5z M21,27c0,0.3-0.3,0.6-0.6,0.6h-2.9
		c-0.3,0-0.6-0.3-0.6-0.6s0.3-0.6,0.6-0.6h2.9C20.7,26.4,21,26.7,21,27L21,27z M20.4,29.4h-2.9c-0.3,0-0.6-0.3-0.6-0.6
		s0.3-0.6,0.6-0.6h2.9c0.3,0,0.6,0.3,0.6,0.6S20.7,29.4,20.4,29.4L20.4,29.4z M20.4,29.4"/>
	<path class="st1" d="M11.1,23.9c0,0,0.1,0,0.1,0l0.7-0.2c6.1-1.9,11.6-5.4,15.8-10.1l0.8,0.8c0.1,0.1,0.3,0.1,0.4,0.1
		c0.2-0.1,0.3-0.2,0.3-0.4v-4c0-0.2-0.2-0.4-0.4-0.4h-4c-0.2,0-0.3,0.1-0.4,0.2c-0.1,0.1,0,0.3,0.1,0.4l1,0.9
		c-3.9,2.8-8.2,4.9-12.8,6.2c-0.2,0.1-0.3,0.3-0.3,0.5c0.1,0.2,0.3,0.3,0.5,0.3c4.8-1.3,9.2-3.5,13.1-6.4l0.3-0.2
		c0.1-0.1,0.2-0.2,0.2-0.3c0-0.1,0-0.2-0.1-0.3l-0.6-0.6h2.6v2.6L28,12.7c-0.1-0.1-0.2-0.1-0.3-0.1c-0.1,0-0.2,0.1-0.3,0.1
		c-4.2,4.8-9.7,8.3-15.8,10.2L11,23.1c-0.2,0.1-0.3,0.3-0.3,0.5C10.8,23.8,11,23.9,11.1,23.9L11.1,23.9z M11.1,23.9"/>
	<path class="st1" d="M28.7,23l0.5-1.7c0-0.1,0-0.3-0.1-0.4c-0.1-0.1-0.2-0.2-0.3-0.2h-4.1c-0.1,0-0.2,0.1-0.3,0.2
		c-0.1,0.1-0.1,0.2-0.1,0.4l0.5,1.7c-1,0.5-1.7,1.6-1.7,2.8V29c0,0.7,0.6,1.2,1.3,1.2h4.8c0.7,0,1.3-0.6,1.3-1.2v-3.2
		C30.4,24.6,29.7,23.6,28.7,23L28.7,23z M28.3,21.6l-0.4,1.3h-2.3l-0.4-1.3H28.3z M29.6,29c0,0.2-0.2,0.4-0.5,0.4h-4.8
		c-0.2,0-0.5-0.2-0.5-0.4v-3.2c0-0.9,0.6-1.8,1.5-2.1h2.8c0.9,0.4,1.5,1.2,1.5,2.1V29z M29.6,29"/>
	<path class="st1" d="M26.7,25.6c0.2,0,0.4,0.1,0.4,0.3c0,0.2,0.2,0.4,0.4,0.4c0.2,0,0.4-0.2,0.4-0.4c0-0.5-0.3-0.9-0.8-1.1v-0.1
		c0-0.2-0.2-0.4-0.4-0.4c-0.2,0-0.4,0.2-0.4,0.4v0.1c-0.5,0.2-0.8,0.6-0.8,1.1c0,0.6,0.5,1.1,1.2,1.1c0.2,0,0.4,0.1,0.4,0.3
		c0,0.2-0.2,0.3-0.4,0.3c-0.2,0-0.4-0.1-0.4-0.3c0-0.2-0.2-0.4-0.4-0.4c-0.2,0-0.4,0.2-0.4,0.4c0,0.5,0.3,0.9,0.8,1.1v0.1
		c0,0.2,0.2,0.4,0.4,0.4c0.2,0,0.4-0.2,0.4-0.4v-0.1c0.5-0.2,0.8-0.6,0.8-1.1c0-0.6-0.5-1.1-1.2-1.1c-0.2,0-0.4-0.1-0.4-0.3
		C26.3,25.8,26.5,25.6,26.7,25.6L26.7,25.6z M26.7,25.6"/>
</g>
</svg>
