<?xml version="1.0" encoding="utf-8"?>
<!-- Generator: Adobe Illustrator 24.0.2, SVG Export Plug-In . SVG Version: 6.00 Build 0)  -->
<svg version="1.1" id="Capa_1" xmlns="http://www.w3.org/2000/svg" xmlns:xlink="http://www.w3.org/1999/xlink" x="0px" y="0px"
	 viewBox="0 0 40 40" style="enable-background:new 0 0 40 40;" xml:space="preserve">
<style type="text/css">
	.st0{fill:#82B23E;}
	.st1{fill:#FFFFFF;}
</style>
<circle class="st0" cx="20" cy="20" r="19.4"/>
<g>
	<path class="st1" d="M19.3,25.7c-0.4,0-0.8-0.1-1.1-0.4l-3.1-2.5c-0.5-0.4-0.8-0.9-0.8-1.5c-0.1-0.6,0.1-1.2,0.5-1.7
		c0.4-0.5,0.9-0.8,1.6-0.8c0.6-0.1,1.2,0.1,1.7,0.5l0.8,0.7l6.4-7.7c0.4-0.5,0.9-0.8,1.6-0.8c0.6-0.1,1.2,0.1,1.7,0.5
		c0.5,0.4,0.8,0.9,0.8,1.5c0.1,0.6-0.1,1.2-0.5,1.7l-6.6,8l-1.6,1.9c-0.3,0.3-0.7,0.6-1.1,0.6C19.4,25.7,19.3,25.7,19.3,25.7z
		 M16.6,19.5c0,0-0.1,0-0.1,0c-0.4,0-0.8,0.2-1,0.5c-0.3,0.3-0.4,0.7-0.3,1.1c0,0.4,0.2,0.8,0.5,1l3.1,2.5c0.2,0.2,0.4,0.2,0.7,0.2
		c0.2,0,0.5-0.1,0.6-0.3l1.6-1.9l6.6-8c0.3-0.3,0.4-0.7,0.3-1.1c0-0.4-0.2-0.8-0.5-1l0,0c-0.3-0.3-0.7-0.4-1.1-0.3
		c-0.4,0-0.8,0.2-1,0.5L19,21.1l-1.4-1.2C17.3,19.6,16.9,19.5,16.6,19.5z"/>
	<g>
		<path class="st1" d="M19.1,28.5c-4.6,0-8.4-3.8-8.4-8.4c0-4.6,3.8-8.4,8.4-8.4c1.4,0,2.8,0.4,4,1c0.2,0.1,0.3,0.3,0.2,0.5
			c-0.1,0.2-0.3,0.3-0.5,0.2c-1.1-0.6-2.4-0.9-3.6-0.9c-4.2,0-7.6,3.4-7.6,7.6c0,4.2,3.4,7.6,7.6,7.6s7.6-3.4,7.6-7.6
			c0-0.4,0-0.7-0.1-1.1c0-0.2,0.1-0.4,0.3-0.4c0.2,0,0.4,0.1,0.4,0.3c0.1,0.4,0.1,0.8,0.1,1.2C27.5,24.7,23.7,28.5,19.1,28.5z"/>
	</g>
</g>
</svg>
