<?xml version="1.0" encoding="utf-8"?>
<!-- Generator: Adobe Illustrator 24.0.2, SVG Export Plug-In . SVG Version: 6.00 Build 0)  -->
<svg version="1.1" id="Capa_1" xmlns="http://www.w3.org/2000/svg" xmlns:xlink="http://www.w3.org/1999/xlink" x="0px" y="0px"
	 viewBox="0 0 44.4 44.4" style="enable-background:new 0 0 44.4 44.4;" xml:space="preserve">
<style type="text/css">
	.st0{fill:#333333;}
</style>
<title>administrar</title>
<g>
	<g>
		<path class="st0" d="M30.4,19.6c2.3,0.5,4.3,1.5,5.9,3.2c3.6,3.5,4.7,7.8,3.2,12.6c-1.5,4.8-4.9,7.7-9.9,8.4
			c-5,0.7-8.9-1.2-11.9-5.2c-0.3-0.4-0.6-0.6-1.2-0.6c-3.4,0-6.8,0-10.2,0c-3.3,0-5.2-1.9-5.2-5.2c0-8.8,0-17.6,0-26.5
			c0-3.3,2-5.2,5.3-5.2c4.4,0,8.9,0,13.3,0c0.7,0,1.2,0.2,1.7,0.7c2.8,3,5.6,5.9,8.3,8.8c0.3,0.4,0.6,1,0.6,1.5
			C30.5,14.5,30.4,17,30.4,19.6z M15.9,28.7c-0.4,0-0.7,0-1,0c-2,0-4.1,0-6.1,0c-0.6,0-1.3-0.1-1.3-0.9c0-0.8,0.6-0.9,1.2-0.9
			c2.3,0,4.7,0,7,0c0.3,0,0.6,0,0.7-0.2c0.5-0.8,0.9-1.7,1.4-2.6c-0.4,0-0.7,0-1,0c-2.8,0-5.6,0-8.4,0c-0.6,0-1.1-0.2-1.1-0.9
			c0-0.7,0.5-0.9,1.1-0.9c0.2,0,0.4,0,0.7,0c3.2,0,6.5,0,9.7,0c0.4,0,0.9-0.2,1.3-0.4c1.3-0.6,2.4-1.5,3.8-1.9
			c1.4-0.5,3-0.6,4.5-0.9c0-2.1,0-4.4,0-6.7c-1.7,0-3.3,0-4.9,0c-2.1,0-3.6-1.2-4-3.1c-0.1-0.6-0.1-1.2-0.1-1.8c0-1.5,0-3,0-4.6
			c-0.4,0-0.7,0-0.9,0c-4,0-8,0.1-12.1,0C3.9,2.7,3,4.5,3,6.4c0,8.7,0,17.4,0,26.1c0,2.5,1.2,3.6,3.7,3.6c3,0,5.9,0,8.9,0
			c0.3,0,0.5,0,0.9,0C15.6,33.7,15.4,31.3,15.9,28.7z M27.9,42.1c5.8,0,10.5-4.6,10.5-10.4C38.5,26,33.8,21.2,28,21.1
			c-5.8,0-10.6,4.7-10.6,10.5C17.4,37.3,22.1,42,27.9,42.1z M21.4,4.2c0,1.7-0.1,3.2,0,4.7c0.1,0.8,0.7,1.5,1.4,1.5
			c1.4,0.1,2.9,0,4.4,0C25.3,8.4,23.4,6.4,21.4,4.2z"/>
		<path class="st0" d="M13,17.9c1.4,0,2.8,0,4.3,0c0.6,0,1.1,0.2,1.1,0.9c0,0.7-0.5,0.9-1.1,0.9c-2.9,0-5.7,0-8.6,0
			c-0.6,0-1.1-0.2-1.1-0.9c0-0.7,0.5-0.9,1.1-0.9C10.1,17.9,11.5,17.9,13,17.9z"/>
		<path class="st0" d="M27.1,29.4c0-1,0-2.1,0-3.1c0-0.6,0.2-1.1,0.9-1c0.6,0,0.9,0.4,0.9,1c0,2.1,0,4.2,0,6.4c0,0.6-0.2,1.1-0.9,1
			c-0.7,0-0.9-0.5-0.9-1.1C27.1,31.5,27.1,30.5,27.1,29.4z"/>
		<path class="st0" d="M28.8,36.1c0,1.2-0.2,1.6-0.9,1.6c-0.7,0-0.9-0.4-0.9-1.6c0-1.1,0.3-1.6,0.9-1.6C28.6,34.5,28.8,35,28.8,36.1
			z"/>
	</g>
</g>
</svg>
