<svg id="Capa_1" data-name="Capa 1" xmlns="http://www.w3.org/2000/svg" viewBox="0 0 47.48 44.14"><defs><style>.cls-1{fill:#33333;fill-rule:evenodd;}</style></defs><title>telefono</title><path class="cls-1" d="M43.22,30.91c-2-1.21-4.64-2.55-7-1.58-1.82.74-3,3.59-4.16,5.05a1.76,1.76,0,0,1-2.26.49A31.82,31.82,0,0,1,14,21.3a2,2,0,0,1,.25-2.66c1.14-1.34,2.57-2.86,2.87-4.67s-.53-3.92-1.28-5.53c-1-2-2-5-4.08-6.15-1.9-1.07-4.39-.47-6.08.9A12.31,12.31,0,0,0,1.36,13a14,14,0,0,0,.38,3.1,25.93,25.93,0,0,0,3,6.86,56.5,56.5,0,0,0,3.11,4.72,47.93,47.93,0,0,0,13.47,12.5,40.36,40.36,0,0,0,8.39,4c3.3,1.09,6.23,2.22,9.78,1.54,3.72-.7,7.39-3,8.87-6.59a5.84,5.84,0,0,0,.41-3.37C48.23,33.41,45.09,32,43.22,30.91Z" transform="translate(-1.35 -1.74)"/></svg>