<svg id="Capa_1" data-name="Capa 1" xmlns="http://www.w3.org/2000/svg" viewBox="0 0 48.48 48.48"><defs><style>.cls-1{fill:#fff;}</style></defs><title>tiempo real</title><path class="cls-1" d="M49.24,30.11a1.22,1.22,0,0,1-1.16.56c-1.65,0-3.29,0-4.93,0a.53.53,0,0,0-.62.41c-.25.71-.55,1.4-.86,2.09a.49.49,0,0,0,.13.65C43,35,44.17,36.17,45.35,37.35c.59.6.6,1,0,1.56q-3.22,3.24-6.46,6.46c-.57.57-1,.57-1.53,0C36.19,44.19,35,43,33.83,41.82a.51.51,0,0,0-.69-.14c-.68.31-1.38.6-2.09.86a.52.52,0,0,0-.4.58c0,1.64,0,3.29,0,4.93,0,.93-.25,1.19-1.17,1.19h-9c-.9,0-1.16-.26-1.16-1.15,0-1.66,0-3.31,0-5a.51.51,0,0,0-.4-.58c-.7-.26-1.38-.53-2.05-.85a.54.54,0,0,0-.73.13C15,43,13.83,44.17,12.66,45.34c-.61.61-1,.61-1.6,0L4.67,39c-.63-.63-.62-1,0-1.63C5.86,36.14,7,35,8.21,33.81a.5.5,0,0,0,.12-.65c-.31-.69-.61-1.39-.86-2.1a.53.53,0,0,0-.63-.4c-1.64,0-3.28,0-4.92,0C1,30.66.76,30.4.76,29.51v-9c0-.86.27-1.13,1.14-1.13,1.65,0,3.31,0,5,0A.51.51,0,0,0,7.46,19c.26-.72.56-1.44.88-2.14a.46.46,0,0,0-.12-.61L4.64,12.63c-.58-.57-.58-1,0-1.53l6.49-6.49a.9.9,0,0,1,1.5,0C13.81,5.81,15,7,16.19,8.2a.49.49,0,0,0,.65.13c.7-.32,1.42-.62,2.14-.88a.48.48,0,0,0,.36-.56c0-1.65,0-3.31,0-5A1.22,1.22,0,0,1,19.89.76H30.11a1.22,1.22,0,0,1,.56,1.16c0,1.64,0,3.28,0,4.92a.54.54,0,0,0,.4.63c.71.25,1.41.55,2.1.86a.5.5,0,0,0,.65-.12C35,7,36.17,5.84,37.35,4.66c.61-.61,1-.61,1.59,0l6.39,6.39c.62.61.62,1,0,1.59C44.16,13.83,43,15,41.79,16.19a.5.5,0,0,0-.12.65c.31.69.61,1.39.86,2.1a.54.54,0,0,0,.63.4c1.64,0,3.28,0,4.92,0a1.22,1.22,0,0,1,1.16.56ZM11.94,6.21,6.22,11.92l.28.29,3.35,3.35c.51.51.52.73.23,1.38q-.69,1.57-1.32,3.18c-.27.7-.4.83-1.17.83H2.41v8.1H3c1.57,0,3.15,0,4.73,0,.67,0,.82.15,1.06.78.41,1.05.84,2.1,1.3,3.13.34.76.34.94-.26,1.54L6.21,38.08l5.71,5.71,3.68-3.68c.47-.46.71-.47,1.31-.21,1.06.47,2.14.92,3.22,1.34.68.27.82.41.82,1.13,0,1.58,0,3.16,0,4.74,0,.16,0,.33,0,.48h8.07V42.5c0-.9.1-1,1-1.31a24.4,24.4,0,0,0,2.49-1c1.33-.62,1.31-.65,2.37.4l3.19,3.19,5.72-5.72c-1.2-1.19-2.43-2.41-3.65-3.64-.5-.49-.51-.72-.23-1.34.46-1.06.91-2.14,1.34-3.22.26-.68.4-.81,1.13-.81,1.57,0,3.13,0,4.69,0h.52V21H47c-1.58,0-3.15,0-4.73,0-.64,0-.8-.16-1-.75-.44-1.11-.9-2.22-1.37-3.31a.92.92,0,0,1,.21-1.27L43,12.77c.29-.29.6-.58.84-.81L38.05,6.23,34.38,9.9a.91.91,0,0,1-1.27.21c-1.08-.47-2.17-.93-3.26-1.36-.66-.26-.8-.4-.8-1.1,0-1.58,0-3.15,0-4.73V2.4H21V7.52c0,.86-.12,1-.9,1.27-1,.39-2,.81-3.05,1.26-.71.32-.91.33-1.46-.22Z" transform="translate(-0.76 -0.76)"/><path class="cls-1" d="M40.34,25A15.34,15.34,0,1,1,25,9.66,15.39,15.39,0,0,1,40.34,25ZM25.77,38.65a12.6,12.6,0,0,0,5.36-1.42c-.24-.4-.48-.81-.7-1.22a.82.82,0,0,1,.21-1.2.81.81,0,0,1,1.18.39c.25.4.48.81.73,1.24a13.76,13.76,0,0,0,3.9-3.89l-1.2-.7c-.51-.31-.68-.76-.44-1.18a.84.84,0,0,1,1.24-.22c.4.22.79.45,1.2.69a13.33,13.33,0,0,0,1.42-5.33c-.52,0-1,0-1.46,0a.79.79,0,0,1-.85-.6.77.77,0,0,1,.77-1c.5,0,1,0,1.54,0a13.25,13.25,0,0,0-1.42-5.34L36,19.55c-.53.29-1,.21-1.24-.21s-.1-.87.42-1.18l1.23-.71a13.83,13.83,0,0,0-3.91-3.9c-.24.42-.45.8-.68,1.18-.32.55-.76.72-1.2.48s-.51-.73-.2-1.28l.68-1.19a13.33,13.33,0,0,0-5.37-1.4c0,.61,0,1.16,0,1.71a.68.68,0,0,1-.77.61.71.71,0,0,1-.75-.59,3.49,3.49,0,0,1,0-.65c0-.36,0-.71,0-1.09a13.45,13.45,0,0,0-5.33,1.42c.24.42.48.82.71,1.24a.83.83,0,0,1-.21,1.2.82.82,0,0,1-1.19-.39c-.24-.4-.47-.81-.72-1.24a13.76,13.76,0,0,0-3.9,3.89l1.24.72a.82.82,0,1,1-.8,1.4c-.42-.22-.82-.46-1.24-.71a13.37,13.37,0,0,0-1.42,5.33h.75c.24,0,.48,0,.71,0a.81.81,0,0,1,.86.66.78.78,0,0,1-.83.95c-.49,0-1,0-1.49,0a13.41,13.41,0,0,0,1.42,5.33l1.22-.7a.84.84,0,0,1,1.24.22c.24.43.09.87-.43,1.18l-1.22.71a13.51,13.51,0,0,0,3.9,3.89c.24-.41.45-.79.68-1.17.32-.54.79-.71,1.21-.45a.85.85,0,0,1,.19,1.25c-.22.4-.45.78-.68,1.19a13.31,13.31,0,0,0,5.33,1.4V37.47a3,3,0,0,1,0-.52.72.72,0,0,1,.78-.61.68.68,0,0,1,.75.63C25.8,37.52,25.77,38.07,25.77,38.65Z" transform="translate(-0.76 -0.76)"/><path class="cls-1" d="M24.19,24.19V16.51c0-.82.26-1.19.82-1.18s.8.38.8,1.2v8.09c0,1-.23,1.19-1.21,1.19H18c-.69,0-1.05-.3-1-.83s.36-.79,1-.79h6.23Z" transform="translate(-0.76 -0.76)"/></svg>