<svg id="Capa_1" data-name="Capa 1" xmlns="http://www.w3.org/2000/svg" viewBox="0 0 47.23 47.23"><defs><style>.cls-1{fill:#fff;}</style></defs><title>video imagen</title><path class="cls-1" d="M1,48.54V1.88H47.63a1.06,1.06,0,0,1,.56,1.06q0,22.55,0,45.09c0,.82-.25,1.07-1.08,1.07H2A1.06,1.06,0,0,1,1,48.54Zm1.58-1h44v-44h-44Z" transform="translate(-0.97 -1.88)"/><path class="cls-1" d="M24.58,25.9c1.1-1.8,2.16-3.52,3.21-5.25l1.49-2.44c.48-.76,1.14-.76,1.61,0Q35.11,25.09,39.3,32a.9.9,0,0,1,.12,1,.89.89,0,0,1-.87.39H10.61A.89.89,0,0,1,9.73,33a.92.92,0,0,1,.12-1l8.39-13.72c.5-.82,1.15-.82,1.66,0q2.19,3.6,4.4,7.19C24.37,25.57,24.46,25.7,24.58,25.9Zm-5.51-6L11.84,31.75H37.32L30.09,19.93l-.27.43-3.05,5c-.49.79-1,1.6-1.47,2.39a.81.81,0,0,1-1.44,0,4.05,4.05,0,0,1-.21-.35C22.13,24.93,20.62,22.45,19.07,19.92Z" transform="translate(-0.97 -1.88)"/><path class="cls-1" d="M8.83,9.74v5.37c0,.64-.27.93-.88.94H5a.8.8,0,0,1-.89-.9V5.93A.82.82,0,0,1,5,5H14.2a.83.83,0,0,1,.94.94c0,1,0,1.91,0,2.86,0,.65-.29.92-1,.92H8.83ZM5.71,6.62v7.82H7.26v-.52c0-1.58,0-3.16,0-4.74,0-.73.28-1,1-1h5.27V6.62Z" transform="translate(-0.97 -1.88)"/><path class="cls-1" d="M40.32,9.74H35.55C34.08,9.74,34,9.68,34,8.21c0-.74,0-1.48,0-2.22s.29-1,1-1h9c.72,0,1,.29,1,1v9c0,.74-.27,1-1,1H41.33c-.74,0-1-.26-1-1,0-1.58,0-3.16,0-4.75Zm-4.7-1.57h5.19c.83,0,1.09.26,1.09,1.11v5.16h1.54V6.62H35.62Z" transform="translate(-0.97 -1.88)"/><path class="cls-1" d="M40.32,41.24v-.57c0-1.62,0-3.23,0-4.84a.78.78,0,0,1,.87-.9h2.95a.81.81,0,0,1,.89.93q0,4.59,0,9.18a.8.8,0,0,1-.91.91H34.91a.79.79,0,0,1-.89-.88c0-1,0-2,0-3,0-.62.3-.88.94-.88,1.59,0,3.19,0,4.79,0Zm3.12-4.7H41.9V41.8c0,.72-.29,1-1,1H35.62v1.55h7.82Z" transform="translate(-0.97 -1.88)"/><path class="cls-1" d="M9.63,41.24h.56c1.6,0,3.2,0,4.8,0,.65,0,.92.27.92.92q0,1.46,0,2.91A.78.78,0,0,1,15,46H5.81a.79.79,0,0,1-.9-.91V35.86c0-.65.28-.92.93-.93H8.65c.7,0,1,.29,1,1v5.32Zm4.69,1.57H9.06c-.73,0-1-.27-1-1V36.54H6.52v7.81h7.8Z" transform="translate(-0.97 -1.88)"/><path class="cls-1" d="M24.6,20A3.93,3.93,0,1,1,28.52,16,3.94,3.94,0,0,1,24.6,20Zm0-1.57A2.36,2.36,0,1,0,22.21,16,2.36,2.36,0,0,0,24.59,18.4Z" transform="translate(-0.97 -1.88)"/></svg>