<?xml version="1.0" encoding="utf-8"?>
<!-- Generator: Adobe Illustrator 24.0.2, SVG Export Plug-In . SVG Version: 6.00 Build 0)  -->
<svg version="1.1" id="Capa_1" xmlns="http://www.w3.org/2000/svg" xmlns:xlink="http://www.w3.org/1999/xlink" x="0px" y="0px"
	 viewBox="0 0 256 48" style="enable-background:new 0 0 256 48;" xml:space="preserve">
<style type="text/css">
	.st0{fill:#25D366;}
	.st1{fill:#FFFFFF;}
	.st2{fill-rule:evenodd;clip-rule:evenodd;fill:url(#SVGID_1_);}
	.st3{fill-rule:evenodd;clip-rule:evenodd;fill:#FFFFFF;}
</style>
<title>whatsapp pc escritorio</title>
<path class="st0" d="M21,0h214c11.6,0,21,9.4,21,21v6c0,11.6-9.4,21-21,21H21C9.4,48,0,38.6,0,27v-6C0,9.4,9.4,0,21,0z"/>
<path class="st1" d="M58.3,22.5c0,0.5-0.3,1-0.9,1c0,0-0.1,0-0.1,0c-0.6,0-1-0.4-1-1s0.4-1,1-1c0.5,0,0.9,0.4,0.9,0.9
	C58.3,22.4,58.3,22.4,58.3,22.5z M56.6,32.5l0.2-7.7h1.1l0.2,7.6L56.6,32.5z"/>
<path class="st1" d="M68,28.9c-0.9,0.4-1.9,0.5-2.8,0.5c-3,0-5.3-1.9-5.3-5.5c-0.2-3,2.1-5.5,5.1-5.7c0.2,0,0.4,0,0.6,0
	c0.9,0,1.8,0.1,2.6,0.5l-0.3,1.1c-0.7-0.3-1.4-0.5-2.2-0.5c-2.5,0-4.2,1.6-4.2,4.5c0,2.6,1.5,4.3,4.1,4.3c0.8,0,1.6-0.2,2.3-0.5
	L68,28.9z"/>
<path class="st1" d="M76.5,25.3c0.2,2.1-1.4,3.9-3.4,4.1c-0.1,0-0.3,0-0.4,0c-2,0-3.7-1.6-3.7-3.6c0-0.1,0-0.2,0-0.4
	c-0.2-2.1,1.4-3.9,3.4-4.1c0.1,0,0.3,0,0.4,0c2,0,3.7,1.6,3.7,3.6C76.5,25.1,76.5,25.2,76.5,25.3z M70.4,25.4c0,1.7,1,3,2.4,3
	s2.3-1.3,2.3-3c0-1.3-0.7-3-2.3-3S70.4,24,70.4,25.4z"/>
<path class="st1" d="M78.3,23.6c0-0.8,0-1.5-0.1-2.1h1.3l0.1,1.3l0,0c0.5-0.9,1.5-1.5,2.6-1.5c1.1,0,2.7,0.6,2.7,3.3v4.7h-1.4v-4.5
	c0-1.3-0.5-2.3-1.8-2.3c-0.9,0-1.6,0.6-1.9,1.4c-0.1,0.2-0.1,0.4-0.1,0.7v4.7h-1.4V23.6z"/>
<path class="st1" d="M87,27.8c0.6,0.3,1.2,0.5,1.9,0.6c1,0,1.5-0.5,1.5-1.2s-0.4-1-1.4-1.4c-1.4-0.5-2-1.3-2-2.2
	c0.1-1.3,1.2-2.4,2.5-2.3c0.1,0,0.1,0,0.2,0c0.7,0,1.3,0.2,1.9,0.5l-0.3,1c-0.5-0.3-1-0.4-1.6-0.5c-0.8,0-1.3,0.5-1.3,1.1
	c0,0.6,0.5,0.9,1.5,1.3c1.3,0.5,2,1.2,2,2.3c0,1.4-1.1,2.3-2.9,2.3c-0.8,0-1.5-0.2-2.2-0.5L87,27.8z"/>
<path class="st1" d="M100,27.2c0,0.8,0,1.5,0.1,2.1h-1.3L98.7,28l0,0c-0.5,0.9-1.5,1.5-2.6,1.4c-1.2,0-2.7-0.7-2.7-3.4v-4.5h1.4v4.3
	c0,1.5,0.4,2.5,1.7,2.5c0.8,0,1.6-0.5,1.9-1.3c0.1-0.2,0.1-0.5,0.1-0.7v-4.7h1.4L100,27.2z"/>
<path class="st1" d="M102.3,17.9h1.4v11.4h-1.4V17.9z"/>
<path class="st1" d="M107.8,19.3v2.2h2v1.1h-2v4.2c0,1,0.3,1.5,1,1.5c0.3,0,0.6,0,0.8-0.1l0.1,1c-0.4,0.1-0.8,0.2-1.2,0.2
	c-0.6,0-1.1-0.2-1.5-0.6c-0.4-0.6-0.6-1.3-0.6-2v-4.3h-1.1v-1.1h1.2v-1.9L107.8,19.3z"/>
<path class="st1" d="M115.7,29.3l-0.1-1l0,0c-0.6,0.7-1.4,1.2-2.4,1.1c-1.2,0.1-2.3-0.8-2.4-2c0-0.1,0-0.1,0-0.2
	c0-1.9,1.7-2.9,4.7-2.9v-0.2c0.1-0.9-0.5-1.7-1.4-1.8c-0.1,0-0.3,0-0.4,0c-0.7,0-1.4,0.2-2,0.6l-0.3-0.9c0.8-0.5,1.6-0.7,2.5-0.7
	c2.4,0,2.9,1.6,2.9,3.2v2.9c0,0.6,0,1.2,0.1,1.9L115.7,29.3z M115.5,25.3c-1.5,0-3.3,0.2-3.3,1.8c-0.1,0.7,0.5,1.3,1.2,1.3
	c0.1,0,0.1,0,0.2,0c0.8,0,1.6-0.5,1.9-1.3c0-0.1,0.1-0.3,0.1-0.5L115.5,25.3z"/>
<path class="st1" d="M119.1,23.6c0-0.8,0-1.5-0.1-2.1h1.2l0.1,1.3l0,0c0.5-0.9,1.5-1.5,2.6-1.5c1.1,0,2.7,0.6,2.7,3.3v4.7h-1.4v-4.5
	c0-1.3-0.5-2.3-1.8-2.3c-0.9,0-1.6,0.6-1.9,1.4c-0.1,0.2-0.1,0.4-0.1,0.7v4.7h-1.4L119.1,23.6z"/>
<path class="st1" d="M135,25.3c0.2,2.1-1.4,3.9-3.5,4.1c-0.1,0-0.3,0-0.4,0c-2,0-3.7-1.6-3.7-3.6c0-0.1,0-0.3,0-0.4
	c-0.2-2.1,1.4-3.9,3.5-4.1c0.1,0,0.2,0,0.4,0c2,0,3.7,1.6,3.7,3.6C135,25.1,135,25.2,135,25.3z M128.8,25.4c0,1.7,1,3,2.4,3
	s2.4-1.3,2.4-3c0-1.3-0.7-3-2.3-3S128.8,24,128.8,25.4z"/>
<path class="st1" d="M136.6,27.8c0.6,0.3,1.2,0.5,1.9,0.6c1,0,1.5-0.5,1.5-1.2s-0.4-1-1.4-1.4c-1.4-0.5-2-1.3-2-2.2
	c0.1-1.3,1.2-2.4,2.5-2.3c0.1,0,0.1,0,0.2,0c0.7,0,1.3,0.2,1.9,0.5l-0.4,1c-0.5-0.3-1-0.4-1.6-0.5c-0.8,0-1.3,0.5-1.3,1.1
	c0,0.6,0.4,1,1.4,1.3c1.3,0.5,2,1.2,2,2.3c0,1.4-1.1,2.3-2.9,2.3c-0.8,0-1.5-0.2-2.2-0.5L136.6,27.8z"/>
<path class="st1" d="M146.5,24.1c0-1,0-1.8-0.1-2.5h1.3l0.1,1.3l0,0c0.6-1,1.6-1.6,2.8-1.5c1.9,0,3.3,1.6,3.3,3.9
	c0,2.8-1.7,4.2-3.5,4.2c-1,0-1.9-0.4-2.4-1.2l0,0v4.2h-1.4L146.5,24.1z M147.9,26.1c0,0.2,0,0.4,0.1,0.6c0.2,1,1.1,1.7,2.1,1.7
	c1.5,0,2.4-1.2,2.4-3c0-1.6-0.8-2.9-2.3-2.9c-1,0-1.9,0.7-2.1,1.8c-0.1,0.2-0.1,0.4-0.1,0.6V26.1z"/>
<path class="st1" d="M162.6,25.3c0.2,2.1-1.4,3.9-3.4,4.1c-0.1,0-0.3,0-0.4,0c-2,0-3.7-1.6-3.7-3.6c0-0.1,0-0.2,0-0.4
	c-0.2-2.1,1.4-3.9,3.4-4.1c0.1,0,0.3,0,0.4,0c2,0,3.7,1.6,3.7,3.6C162.6,25.1,162.6,25.2,162.6,25.3z M156.5,25.4c0,1.7,1,3,2.4,3
	s2.4-1.3,2.4-3c0-1.3-0.6-3-2.3-3S156.5,24,156.5,25.4z"/>
<path class="st1" d="M164.4,24c0-0.9,0-1.7-0.1-2.4h1.2v1.5h0.1c0.3-1,1.1-1.7,2.1-1.7c0.1,0,0.3,0,0.4,0v1.4c-0.2,0-0.3-0.1-0.5,0
	c-1,0.1-1.8,0.8-1.9,1.8c0,0.2-0.1,0.4-0.1,0.7v4.1h-1.4L164.4,24z"/>
<path class="st1" d="M174.3,29.3l-2.7-10.8h1.5l1.3,5.5c0.3,1.3,0.6,2.7,0.8,3.7l0,0c0.2-1.1,0.5-2.4,0.9-3.8l1.4-5.4h1.5l1.3,5.5
	c0.3,1.3,0.6,2.6,0.8,3.7l0,0c0.2-1.2,0.5-2.4,0.9-3.7l1.5-5.4h1.4l-3.1,10.8h-1.5l-1.4-5.6c-0.3-1.2-0.5-2.3-0.7-3.5l0,0
	c-0.2,1.2-0.5,2.4-0.8,3.5l-1.5,5.6H174.3z"/>
<path class="st1" d="M185.9,17.9h1.4v4.9l0,0c0.2-0.4,0.6-0.8,1-1c0.4-0.3,0.9-0.4,1.4-0.4c1,0,2.7,0.6,2.7,3.3v4.6H191v-4.5
	c0-1.3-0.5-2.3-1.8-2.3c-0.9,0-1.6,0.6-1.9,1.4c-0.1,0.2-0.1,0.4-0.1,0.7v4.7h-1.4L185.9,17.9z"/>
<path class="st1" d="M199,29.3l-0.1-1h-0.1c-0.6,0.7-1.4,1.2-2.4,1.1c-1.2,0.1-2.3-0.8-2.4-2c0-0.1,0-0.1,0-0.2
	c0-1.9,1.7-2.9,4.7-2.9v-0.2c0.1-0.9-0.5-1.7-1.4-1.8c-0.1,0-0.3,0-0.4,0c-0.7,0-1.4,0.2-2,0.6l-0.3-0.9c0.8-0.5,1.7-0.7,2.6-0.7
	c2.4,0,2.9,1.6,2.9,3.2v2.9c0,0.6,0,1.2,0.1,1.9L199,29.3z M198.8,25.3c-1.5,0-3.3,0.2-3.3,1.8c-0.1,0.7,0.5,1.3,1.2,1.3
	c0.1,0,0.1,0,0.2,0c0.8,0,1.6-0.5,1.9-1.3c0-0.1,0.1-0.3,0.1-0.5V25.3z"/>
<path class="st1" d="M204.1,19.3v2.2h2v1.1h-2v4.2c0,1,0.3,1.5,1.1,1.5c0.3,0,0.6,0,0.8-0.1l0.1,1c-0.4,0.1-0.8,0.2-1.2,0.2
	c-0.6,0-1.1-0.2-1.5-0.6c-0.4-0.6-0.6-1.3-0.5-2v-4.3h-1.2v-1.1h1.2v-1.9L204.1,19.3z"/>
<path class="st1" d="M207.5,27.8c0.6,0.3,1.2,0.5,1.9,0.6c1,0,1.5-0.5,1.5-1.2s-0.4-1-1.4-1.4c-1.4-0.5-2-1.3-2-2.2
	c0.1-1.3,1.2-2.4,2.5-2.3c0.1,0,0.1,0,0.2,0c0.7,0,1.3,0.2,1.9,0.5l-0.4,1c-0.5-0.3-1-0.4-1.6-0.5c-0.8,0-1.3,0.5-1.3,1.1
	c0,0.6,0.5,0.9,1.5,1.3c1.4,0.5,2,1.2,2,2.3c0,1.4-1.1,2.3-2.9,2.3c-0.8,0-1.5-0.2-2.2-0.5L207.5,27.8z"/>
<path class="st1" d="M218.3,29.3l-0.1-1h-0.1c-0.6,0.7-1.4,1.2-2.4,1.1c-1.2,0.1-2.3-0.8-2.4-2c0-0.1,0-0.1,0-0.2
	c0-1.9,1.7-2.9,4.7-2.9v-0.2c0.1-0.9-0.5-1.7-1.4-1.8c-0.1,0-0.3,0-0.4,0c-0.7,0-1.4,0.2-2,0.6L214,22c0.8-0.5,1.7-0.7,2.6-0.7
	c2.4,0,2.9,1.6,2.9,3.2v2.9c0,0.6,0,1.2,0.1,1.9L218.3,29.3z M218.1,25.3c-1.5,0-3.3,0.2-3.3,1.8c-0.1,0.7,0.5,1.3,1.2,1.3
	c0.1,0,0.1,0,0.2,0c0.8,0,1.6-0.5,1.9-1.3c0-0.1,0.1-0.3,0.1-0.5V25.3z"/>
<path class="st1" d="M221.8,24.1c0-1,0-1.8-0.1-2.5h1.3l0.1,1.3l0,0c0.6-1,1.6-1.6,2.8-1.5c1.9,0,3.3,1.6,3.3,3.9
	c0,2.8-1.7,4.2-3.5,4.2c-1,0-1.9-0.4-2.4-1.2l0,0v4.2h-1.4V24.1z M223.1,26.1c0,0.2,0,0.4,0.1,0.6c0.2,1,1.1,1.7,2.1,1.7
	c1.5,0,2.4-1.2,2.4-3c0-1.6-0.8-2.9-2.3-2.9c-1,0-1.9,0.8-2.1,1.8c-0.1,0.2-0.1,0.4-0.1,0.6L223.1,26.1z"/>
<path class="st1" d="M230.9,24.1c0-1,0-1.8-0.1-2.5h1.3l0.1,1.3l0,0c0.6-1,1.6-1.6,2.8-1.5c1.9,0,3.3,1.6,3.3,3.9
	c0,2.8-1.7,4.2-3.5,4.2c-1,0-1.9-0.4-2.4-1.2l0,0v4.2h-1.4V24.1z M232.3,26.1c0,0.2,0,0.4,0.1,0.6c0.2,1,1.1,1.7,2.1,1.7
	c1.5,0,2.4-1.2,2.4-3c0-1.6-0.8-2.9-2.3-2.9c-1,0-1.9,0.8-2.1,1.8c-0.1,0.2-0.1,0.4-0.1,0.6V26.1z"/>
<path class="st1" d="M239.7,28.5c0-0.5,0.3-1,0.9-1c0,0,0.1,0,0.1,0c0.5,0,0.9,0.4,1,0.9c0,0,0,0.1,0,0.1c0.1,0.5-0.3,1-0.8,1
	c-0.5,0.1-1-0.3-1-0.8C239.7,28.6,239.7,28.5,239.7,28.5z M240.1,26.2l-0.2-7.7h1.5l-0.2,7.7H240.1z"/>
<linearGradient id="SVGID_1_" gradientUnits="userSpaceOnUse" x1="31.9609" y1="36.7102" x2="31.9609" y2="7.4802" gradientTransform="matrix(1 0 0 -1 -1.74 45.79)">
	<stop  offset="0" style="stop-color:#00C13E"/>
	<stop  offset="1" style="stop-color:#008530"/>
</linearGradient>
<path class="st2" d="M30.3,9.1c-8.1,0-14.7,6.5-14.8,14.6c0,0,0,0,0,0c0,3.1,1,6.1,2.8,8.6l-1.8,5.4l5.7-1.8
	c6.7,4.5,15.8,2.7,20.3-4s2.7-15.8-4-20.3C36,9.9,33.2,9.1,30.3,9.1z"/>
<path class="st3" d="M46.8,23.6c-0.1,9.2-7.6,16.6-16.9,16.6c-2.8,0-5.5-0.7-7.9-2.1L12.8,41l3-8.9c-1.6-2.6-2.4-5.5-2.4-8.5
	c0-9.2,7.5-16.7,16.7-16.7S46.8,14.4,46.8,23.6L46.8,23.6z M30.1,9.6c-7.7,0-14,6.2-14,13.9c0,2.9,0.9,5.8,2.7,8.2l-1.8,5.2l5.4-1.7
	c6.4,4.4,15.1,2.7,19.5-3.6s2.7-15.1-3.6-19.5C35.9,10.5,33.1,9.6,30.1,9.6L30.1,9.6z M38.6,27.4c-0.1-0.2-0.4-0.3-0.8-0.5
	c-0.4-0.2-2.4-1.2-2.8-1.3c-0.4-0.1-0.7-0.2-0.9,0.2s-1.1,1.3-1.3,1.6s-0.5,0.3-0.9,0.1c-1.2-0.5-2.3-1.1-3.3-2
	c-0.9-0.8-1.7-1.8-2.3-2.8c-0.2-0.4,0-0.6,0.2-0.8s0.4-0.5,0.6-0.7c0.2-0.2,0.3-0.4,0.4-0.7c0.1-0.2,0.1-0.5,0-0.7
	c-0.1-0.2-0.9-2.2-1.3-3c-0.3-0.8-0.7-0.8-0.9-0.8c-0.2,0-0.5,0-0.7,0.1c-0.4,0.1-0.9,0.2-1.2,0.5c-0.9,0.9-1.4,2.1-1.4,3.4
	c0.1,1.5,0.7,3,1.7,4.2c0.2,0.3,2.8,4.5,7,6.1s4.2,1.1,4.9,1c1.2-0.2,2.2-0.9,2.8-1.9C38.6,28.7,38.7,28,38.6,27.4L38.6,27.4z"/>
</svg>
